G04 (created by PCBNEW (2013-07-07 BZR 4022)-stable) date 12/25/2014 10:33:01 AM*
%MOIN*%
G04 Gerber Fmt 3.4, Leading zero omitted, Abs format*
%FSLAX34Y34*%
G01*
G70*
G90*
G04 APERTURE LIST*
%ADD10C,0.00590551*%
%ADD11C,0.012*%
%ADD12C,0.01*%
%ADD13C,0.015*%
%ADD14C,0.0107*%
%ADD15C,0.008*%
G04 APERTURE END LIST*
G54D10*
G54D11*
X26444Y-51094D02*
X26444Y-43094D01*
X26444Y-43094D02*
X25444Y-43094D01*
X25444Y-43094D02*
X25444Y-51094D01*
X25444Y-51094D02*
X26444Y-51094D01*
X25444Y-50094D02*
X26444Y-50094D01*
X70238Y-26498D02*
X70238Y-27498D01*
X70238Y-27498D02*
X94379Y-27498D01*
X94411Y-27498D02*
X94411Y-26498D01*
X94379Y-26498D02*
X70238Y-26498D01*
X71238Y-27498D02*
X71238Y-26498D01*
X98031Y-37566D02*
X98031Y-37966D01*
X98031Y-37966D02*
X97631Y-37966D01*
X97631Y-37966D02*
X97631Y-41166D01*
X97631Y-41166D02*
X98431Y-41166D01*
X98431Y-41166D02*
X98431Y-37966D01*
X98431Y-37966D02*
X98031Y-37966D01*
X97831Y-37966D02*
X97631Y-38166D01*
X98031Y-41566D02*
X98031Y-41166D01*
X35433Y-37566D02*
X35433Y-37966D01*
X35433Y-37966D02*
X35033Y-37966D01*
X35033Y-37966D02*
X35033Y-41166D01*
X35033Y-41166D02*
X35833Y-41166D01*
X35833Y-41166D02*
X35833Y-37966D01*
X35833Y-37966D02*
X35433Y-37966D01*
X35233Y-37966D02*
X35033Y-38166D01*
X35433Y-41566D02*
X35433Y-41166D01*
X126574Y-37566D02*
X126574Y-37966D01*
X126574Y-37966D02*
X126174Y-37966D01*
X126174Y-37966D02*
X126174Y-41166D01*
X126174Y-41166D02*
X126974Y-41166D01*
X126974Y-41166D02*
X126974Y-37966D01*
X126974Y-37966D02*
X126574Y-37966D01*
X126374Y-37966D02*
X126174Y-38166D01*
X126574Y-41566D02*
X126574Y-41166D01*
X111948Y-56059D02*
X111948Y-55659D01*
X111948Y-55659D02*
X112348Y-55659D01*
X112348Y-55659D02*
X112348Y-52459D01*
X112348Y-52459D02*
X111548Y-52459D01*
X111548Y-52459D02*
X111548Y-55659D01*
X111548Y-55659D02*
X111948Y-55659D01*
X112148Y-55659D02*
X112348Y-55459D01*
X111948Y-52059D02*
X111948Y-52459D01*
X30751Y-56059D02*
X30751Y-55659D01*
X30751Y-55659D02*
X31151Y-55659D01*
X31151Y-55659D02*
X31151Y-52459D01*
X31151Y-52459D02*
X30351Y-52459D01*
X30351Y-52459D02*
X30351Y-55659D01*
X30351Y-55659D02*
X30751Y-55659D01*
X30951Y-55659D02*
X31151Y-55459D01*
X30751Y-52059D02*
X30751Y-52459D01*
X128149Y-56724D02*
X128149Y-56324D01*
X128149Y-56324D02*
X128549Y-56324D01*
X128549Y-56324D02*
X128549Y-53124D01*
X128549Y-53124D02*
X127749Y-53124D01*
X127749Y-53124D02*
X127749Y-56324D01*
X127749Y-56324D02*
X128149Y-56324D01*
X128349Y-56324D02*
X128549Y-56124D01*
X128149Y-52724D02*
X128149Y-53124D01*
X53681Y-56059D02*
X53681Y-55659D01*
X53681Y-55659D02*
X54081Y-55659D01*
X54081Y-55659D02*
X54081Y-52459D01*
X54081Y-52459D02*
X53281Y-52459D01*
X53281Y-52459D02*
X53281Y-55659D01*
X53281Y-55659D02*
X53681Y-55659D01*
X53881Y-55659D02*
X54081Y-55459D01*
X53681Y-52059D02*
X53681Y-52459D01*
X140086Y-51094D02*
X140086Y-43094D01*
X140086Y-43094D02*
X139086Y-43094D01*
X139086Y-43094D02*
X139086Y-51094D01*
X139086Y-51094D02*
X140086Y-51094D01*
X139086Y-50094D02*
X140086Y-50094D01*
X117851Y-50998D02*
X119651Y-50998D01*
X119651Y-50998D02*
X119651Y-43198D01*
X119651Y-43198D02*
X117851Y-43198D01*
X117851Y-43198D02*
X117851Y-50998D01*
G54D12*
X140555Y-28807D02*
X140855Y-28807D01*
X140855Y-28807D02*
X140855Y-32807D01*
X140855Y-32807D02*
X140555Y-32807D01*
X137255Y-28807D02*
X137255Y-32807D01*
X137255Y-32807D02*
X137655Y-32807D01*
X137655Y-32807D02*
X137655Y-28807D01*
X137655Y-28807D02*
X137255Y-28807D01*
X137555Y-28807D02*
X140555Y-28807D01*
X140555Y-32807D02*
X137555Y-32807D01*
X27464Y-28807D02*
X27764Y-28807D01*
X27764Y-28807D02*
X27764Y-32807D01*
X27764Y-32807D02*
X27464Y-32807D01*
X24164Y-28807D02*
X24164Y-32807D01*
X24164Y-32807D02*
X24564Y-32807D01*
X24564Y-32807D02*
X24564Y-28807D01*
X24564Y-28807D02*
X24164Y-28807D01*
X24464Y-28807D02*
X27464Y-28807D01*
X27464Y-32807D02*
X24464Y-32807D01*
G54D13*
X100824Y-36582D02*
X100574Y-36582D01*
X100574Y-36582D02*
X100574Y-40582D01*
X100574Y-40582D02*
X100824Y-40582D01*
X102324Y-36582D02*
X100824Y-36582D01*
X100824Y-36582D02*
X100824Y-40582D01*
X100824Y-40582D02*
X102324Y-40582D01*
X102324Y-40582D02*
X102324Y-36582D01*
X128777Y-36582D02*
X128527Y-36582D01*
X128527Y-36582D02*
X128527Y-40582D01*
X128527Y-40582D02*
X128777Y-40582D01*
X130277Y-36582D02*
X128777Y-36582D01*
X128777Y-36582D02*
X128777Y-40582D01*
X128777Y-40582D02*
X130277Y-40582D01*
X130277Y-40582D02*
X130277Y-36582D01*
X38029Y-36582D02*
X37779Y-36582D01*
X37779Y-36582D02*
X37779Y-40582D01*
X37779Y-40582D02*
X38029Y-40582D01*
X39529Y-36582D02*
X38029Y-36582D01*
X38029Y-36582D02*
X38029Y-40582D01*
X38029Y-40582D02*
X39529Y-40582D01*
X39529Y-40582D02*
X39529Y-36582D01*
X106949Y-54244D02*
X106699Y-54244D01*
X106699Y-54244D02*
X106699Y-58244D01*
X106699Y-58244D02*
X106949Y-58244D01*
X108449Y-54244D02*
X106949Y-54244D01*
X106949Y-54244D02*
X106949Y-58244D01*
X106949Y-58244D02*
X108449Y-58244D01*
X108449Y-58244D02*
X108449Y-54244D01*
X34009Y-54244D02*
X33759Y-54244D01*
X33759Y-54244D02*
X33759Y-58244D01*
X33759Y-58244D02*
X34009Y-58244D01*
X35509Y-54244D02*
X34009Y-54244D01*
X34009Y-54244D02*
X34009Y-58244D01*
X34009Y-58244D02*
X35509Y-58244D01*
X35509Y-58244D02*
X35509Y-54244D01*
X132600Y-54244D02*
X132350Y-54244D01*
X132350Y-54244D02*
X132350Y-58244D01*
X132350Y-58244D02*
X132600Y-58244D01*
X134100Y-54244D02*
X132600Y-54244D01*
X132600Y-54244D02*
X132600Y-58244D01*
X132600Y-58244D02*
X134100Y-58244D01*
X134100Y-58244D02*
X134100Y-54244D01*
X56730Y-54244D02*
X56480Y-54244D01*
X56480Y-54244D02*
X56480Y-58244D01*
X56480Y-58244D02*
X56730Y-58244D01*
X58230Y-54244D02*
X56730Y-54244D01*
X56730Y-54244D02*
X56730Y-58244D01*
X56730Y-58244D02*
X58230Y-58244D01*
X58230Y-58244D02*
X58230Y-54244D01*
G54D14*
X27220Y-49278D02*
X26539Y-49278D01*
X26539Y-49441D01*
X26571Y-49482D01*
X26604Y-49502D01*
X26669Y-49523D01*
X26766Y-49523D01*
X26831Y-49502D01*
X26863Y-49482D01*
X26896Y-49441D01*
X26896Y-49278D01*
X26539Y-49665D02*
X26539Y-49930D01*
X26798Y-49788D01*
X26798Y-49849D01*
X26831Y-49890D01*
X26863Y-49910D01*
X26928Y-49930D01*
X27090Y-49930D01*
X27155Y-49910D01*
X27188Y-49890D01*
X27220Y-49849D01*
X27220Y-49726D01*
X27188Y-49686D01*
X27155Y-49665D01*
G54D11*
G54D12*
X27130Y-44246D02*
X27159Y-44227D01*
X27187Y-44170D01*
X27187Y-44132D01*
X27159Y-44075D01*
X27102Y-44037D01*
X27044Y-44018D01*
X26930Y-43999D01*
X26844Y-43999D01*
X26730Y-44018D01*
X26673Y-44037D01*
X26616Y-44075D01*
X26587Y-44132D01*
X26587Y-44170D01*
X26616Y-44227D01*
X26644Y-44246D01*
X26587Y-44494D02*
X26587Y-44570D01*
X26616Y-44608D01*
X26673Y-44646D01*
X26787Y-44665D01*
X26987Y-44665D01*
X27102Y-44646D01*
X27159Y-44608D01*
X27187Y-44570D01*
X27187Y-44494D01*
X27159Y-44456D01*
X27102Y-44418D01*
X26987Y-44399D01*
X26787Y-44399D01*
X26673Y-44418D01*
X26616Y-44456D01*
X26587Y-44494D01*
X27187Y-44837D02*
X26587Y-44837D01*
X27187Y-45065D01*
X26587Y-45065D01*
X27187Y-45256D02*
X26587Y-45256D01*
X27187Y-45484D01*
X26587Y-45484D01*
X27244Y-45580D02*
X27244Y-45884D01*
X26844Y-46037D02*
X26816Y-45999D01*
X26787Y-45980D01*
X26730Y-45961D01*
X26702Y-45961D01*
X26644Y-45980D01*
X26616Y-45999D01*
X26587Y-46037D01*
X26587Y-46113D01*
X26616Y-46151D01*
X26644Y-46170D01*
X26702Y-46189D01*
X26730Y-46189D01*
X26787Y-46170D01*
X26816Y-46151D01*
X26844Y-46113D01*
X26844Y-46037D01*
X26873Y-45999D01*
X26902Y-45980D01*
X26959Y-45961D01*
X27073Y-45961D01*
X27130Y-45980D01*
X27159Y-45999D01*
X27187Y-46037D01*
X27187Y-46113D01*
X27159Y-46151D01*
X27130Y-46170D01*
X27073Y-46189D01*
X26959Y-46189D01*
X26902Y-46170D01*
X26873Y-46151D01*
X26844Y-46113D01*
G54D11*
G54D14*
X78054Y-28273D02*
X78054Y-27592D01*
X77891Y-27592D01*
X77850Y-27625D01*
X77829Y-27657D01*
X77809Y-27722D01*
X77809Y-27819D01*
X77829Y-27884D01*
X77850Y-27916D01*
X77891Y-27949D01*
X78054Y-27949D01*
X77401Y-28273D02*
X77646Y-28273D01*
X77524Y-28273D02*
X77524Y-27592D01*
X77564Y-27689D01*
X77605Y-27754D01*
X77646Y-27787D01*
G54D12*
X86276Y-28183D02*
X86295Y-28212D01*
X86352Y-28240D01*
X86390Y-28240D01*
X86447Y-28212D01*
X86485Y-28155D01*
X86504Y-28098D01*
X86523Y-27983D01*
X86523Y-27898D01*
X86504Y-27783D01*
X86485Y-27726D01*
X86447Y-27669D01*
X86390Y-27640D01*
X86352Y-27640D01*
X86295Y-27669D01*
X86276Y-27698D01*
X86028Y-27640D02*
X85952Y-27640D01*
X85914Y-27669D01*
X85876Y-27726D01*
X85857Y-27840D01*
X85857Y-28040D01*
X85876Y-28155D01*
X85914Y-28212D01*
X85952Y-28240D01*
X86028Y-28240D01*
X86066Y-28212D01*
X86104Y-28155D01*
X86123Y-28040D01*
X86123Y-27840D01*
X86104Y-27726D01*
X86066Y-27669D01*
X86028Y-27640D01*
X85685Y-28240D02*
X85685Y-27640D01*
X85457Y-28240D01*
X85457Y-27640D01*
X85266Y-28240D02*
X85266Y-27640D01*
X85038Y-28240D01*
X85038Y-27640D01*
X84942Y-28298D02*
X84638Y-28298D01*
X84561Y-27698D02*
X84542Y-27669D01*
X84504Y-27640D01*
X84409Y-27640D01*
X84371Y-27669D01*
X84352Y-27698D01*
X84333Y-27755D01*
X84333Y-27812D01*
X84352Y-27898D01*
X84581Y-28240D01*
X84333Y-28240D01*
X83990Y-27840D02*
X83990Y-28240D01*
X84085Y-27612D02*
X84181Y-28040D01*
X83933Y-28040D01*
G54D11*
G54D15*
X98254Y-39483D02*
X97992Y-39316D01*
X98254Y-39197D02*
X97704Y-39197D01*
X97704Y-39388D01*
X97730Y-39435D01*
X97756Y-39459D01*
X97808Y-39483D01*
X97887Y-39483D01*
X97939Y-39459D01*
X97966Y-39435D01*
X97992Y-39388D01*
X97992Y-39197D01*
X98254Y-39959D02*
X98254Y-39674D01*
X98254Y-39816D02*
X97704Y-39816D01*
X97782Y-39769D01*
X97835Y-39721D01*
X97861Y-39674D01*
X35655Y-39483D02*
X35393Y-39316D01*
X35655Y-39197D02*
X35105Y-39197D01*
X35105Y-39388D01*
X35131Y-39435D01*
X35158Y-39459D01*
X35210Y-39483D01*
X35289Y-39483D01*
X35341Y-39459D01*
X35367Y-39435D01*
X35393Y-39388D01*
X35393Y-39197D01*
X35158Y-39674D02*
X35131Y-39697D01*
X35105Y-39745D01*
X35105Y-39864D01*
X35131Y-39912D01*
X35158Y-39935D01*
X35210Y-39959D01*
X35262Y-39959D01*
X35341Y-39935D01*
X35655Y-39650D01*
X35655Y-39959D01*
X126658Y-39789D02*
X126824Y-39527D01*
X126943Y-39789D02*
X126943Y-39239D01*
X126753Y-39239D01*
X126705Y-39265D01*
X126681Y-39291D01*
X126658Y-39344D01*
X126658Y-39422D01*
X126681Y-39475D01*
X126705Y-39501D01*
X126753Y-39527D01*
X126943Y-39527D01*
X126491Y-39239D02*
X126181Y-39239D01*
X126348Y-39449D01*
X126277Y-39449D01*
X126229Y-39475D01*
X126205Y-39501D01*
X126181Y-39553D01*
X126181Y-39684D01*
X126205Y-39737D01*
X126229Y-39763D01*
X126277Y-39789D01*
X126420Y-39789D01*
X126467Y-39763D01*
X126491Y-39737D01*
X112238Y-53865D02*
X111976Y-53698D01*
X112238Y-53579D02*
X111688Y-53579D01*
X111688Y-53770D01*
X111714Y-53817D01*
X111740Y-53841D01*
X111793Y-53865D01*
X111871Y-53865D01*
X111924Y-53841D01*
X111950Y-53817D01*
X111976Y-53770D01*
X111976Y-53579D01*
X111871Y-54294D02*
X112238Y-54294D01*
X111662Y-54175D02*
X112055Y-54055D01*
X112055Y-54365D01*
X31043Y-54005D02*
X30781Y-53838D01*
X31043Y-53719D02*
X30493Y-53719D01*
X30493Y-53910D01*
X30519Y-53957D01*
X30545Y-53981D01*
X30598Y-54005D01*
X30676Y-54005D01*
X30729Y-53981D01*
X30755Y-53957D01*
X30781Y-53910D01*
X30781Y-53719D01*
X30493Y-54457D02*
X30493Y-54219D01*
X30755Y-54195D01*
X30729Y-54219D01*
X30703Y-54267D01*
X30703Y-54386D01*
X30729Y-54433D01*
X30755Y-54457D01*
X30807Y-54481D01*
X30938Y-54481D01*
X30991Y-54457D01*
X31017Y-54433D01*
X31043Y-54386D01*
X31043Y-54267D01*
X31017Y-54219D01*
X30991Y-54195D01*
X128372Y-54641D02*
X128110Y-54474D01*
X128372Y-54355D02*
X127822Y-54355D01*
X127822Y-54545D01*
X127848Y-54593D01*
X127874Y-54617D01*
X127926Y-54641D01*
X128005Y-54641D01*
X128057Y-54617D01*
X128084Y-54593D01*
X128110Y-54545D01*
X128110Y-54355D01*
X127822Y-55069D02*
X127822Y-54974D01*
X127848Y-54926D01*
X127874Y-54902D01*
X127953Y-54855D01*
X128057Y-54831D01*
X128267Y-54831D01*
X128319Y-54855D01*
X128346Y-54879D01*
X128372Y-54926D01*
X128372Y-55022D01*
X128346Y-55069D01*
X128319Y-55093D01*
X128267Y-55117D01*
X128136Y-55117D01*
X128084Y-55093D01*
X128057Y-55069D01*
X128031Y-55022D01*
X128031Y-54926D01*
X128057Y-54879D01*
X128084Y-54855D01*
X128136Y-54831D01*
X53903Y-53975D02*
X53641Y-53809D01*
X53903Y-53690D02*
X53353Y-53690D01*
X53353Y-53880D01*
X53379Y-53928D01*
X53406Y-53951D01*
X53458Y-53975D01*
X53537Y-53975D01*
X53589Y-53951D01*
X53615Y-53928D01*
X53641Y-53880D01*
X53641Y-53690D01*
X53353Y-54142D02*
X53353Y-54475D01*
X53903Y-54261D01*
G54D14*
X140862Y-49278D02*
X140181Y-49278D01*
X140181Y-49441D01*
X140213Y-49482D01*
X140246Y-49502D01*
X140310Y-49523D01*
X140408Y-49523D01*
X140473Y-49502D01*
X140505Y-49482D01*
X140537Y-49441D01*
X140537Y-49278D01*
X140181Y-49665D02*
X140181Y-49951D01*
X140862Y-49767D01*
G54D11*
G54D12*
X140772Y-44246D02*
X140800Y-44227D01*
X140829Y-44170D01*
X140829Y-44132D01*
X140800Y-44075D01*
X140743Y-44037D01*
X140686Y-44018D01*
X140572Y-43999D01*
X140486Y-43999D01*
X140372Y-44018D01*
X140315Y-44037D01*
X140258Y-44075D01*
X140229Y-44132D01*
X140229Y-44170D01*
X140258Y-44227D01*
X140286Y-44246D01*
X140229Y-44494D02*
X140229Y-44570D01*
X140258Y-44608D01*
X140315Y-44646D01*
X140429Y-44665D01*
X140629Y-44665D01*
X140743Y-44646D01*
X140800Y-44608D01*
X140829Y-44570D01*
X140829Y-44494D01*
X140800Y-44456D01*
X140743Y-44418D01*
X140629Y-44399D01*
X140429Y-44399D01*
X140315Y-44418D01*
X140258Y-44456D01*
X140229Y-44494D01*
X140829Y-44837D02*
X140229Y-44837D01*
X140829Y-45065D01*
X140229Y-45065D01*
X140829Y-45256D02*
X140229Y-45256D01*
X140829Y-45484D01*
X140229Y-45484D01*
X140886Y-45580D02*
X140886Y-45884D01*
X140486Y-46037D02*
X140458Y-45999D01*
X140429Y-45980D01*
X140372Y-45961D01*
X140343Y-45961D01*
X140286Y-45980D01*
X140258Y-45999D01*
X140229Y-46037D01*
X140229Y-46113D01*
X140258Y-46151D01*
X140286Y-46170D01*
X140343Y-46189D01*
X140372Y-46189D01*
X140429Y-46170D01*
X140458Y-46151D01*
X140486Y-46113D01*
X140486Y-46037D01*
X140515Y-45999D01*
X140543Y-45980D01*
X140600Y-45961D01*
X140715Y-45961D01*
X140772Y-45980D01*
X140800Y-45999D01*
X140829Y-46037D01*
X140829Y-46113D01*
X140800Y-46151D01*
X140772Y-46170D01*
X140715Y-46189D01*
X140600Y-46189D01*
X140543Y-46170D01*
X140515Y-46151D01*
X140486Y-46113D01*
G54D11*
G54D15*
X120213Y-46803D02*
X119813Y-46803D01*
X119813Y-46955D01*
X119832Y-46993D01*
X119851Y-47012D01*
X119890Y-47031D01*
X119947Y-47031D01*
X119985Y-47012D01*
X120004Y-46993D01*
X120023Y-46955D01*
X120023Y-46803D01*
X119813Y-47374D02*
X119813Y-47298D01*
X119832Y-47260D01*
X119851Y-47241D01*
X119909Y-47203D01*
X119985Y-47184D01*
X120137Y-47184D01*
X120175Y-47203D01*
X120194Y-47222D01*
X120213Y-47260D01*
X120213Y-47336D01*
X120194Y-47374D01*
X120175Y-47393D01*
X120137Y-47412D01*
X120042Y-47412D01*
X120004Y-47393D01*
X119985Y-47374D01*
X119966Y-47336D01*
X119966Y-47260D01*
X119985Y-47222D01*
X120004Y-47203D01*
X120042Y-47184D01*
X117575Y-45869D02*
X117594Y-45850D01*
X117613Y-45793D01*
X117613Y-45755D01*
X117594Y-45698D01*
X117556Y-45660D01*
X117518Y-45641D01*
X117442Y-45622D01*
X117385Y-45622D01*
X117309Y-45641D01*
X117271Y-45660D01*
X117232Y-45698D01*
X117213Y-45755D01*
X117213Y-45793D01*
X117232Y-45850D01*
X117251Y-45869D01*
X117213Y-46117D02*
X117213Y-46193D01*
X117232Y-46231D01*
X117271Y-46269D01*
X117347Y-46288D01*
X117480Y-46288D01*
X117556Y-46269D01*
X117594Y-46231D01*
X117613Y-46193D01*
X117613Y-46117D01*
X117594Y-46079D01*
X117556Y-46041D01*
X117480Y-46022D01*
X117347Y-46022D01*
X117271Y-46041D01*
X117232Y-46079D01*
X117213Y-46117D01*
X117613Y-46460D02*
X117213Y-46460D01*
X117613Y-46688D01*
X117213Y-46688D01*
X117613Y-46879D02*
X117213Y-46879D01*
X117613Y-47107D01*
X117213Y-47107D01*
X117651Y-47203D02*
X117651Y-47507D01*
X117385Y-47660D02*
X117366Y-47622D01*
X117347Y-47603D01*
X117309Y-47584D01*
X117290Y-47584D01*
X117251Y-47603D01*
X117232Y-47622D01*
X117213Y-47660D01*
X117213Y-47736D01*
X117232Y-47774D01*
X117251Y-47793D01*
X117290Y-47812D01*
X117309Y-47812D01*
X117347Y-47793D01*
X117366Y-47774D01*
X117385Y-47736D01*
X117385Y-47660D01*
X117404Y-47622D01*
X117423Y-47603D01*
X117461Y-47584D01*
X117537Y-47584D01*
X117575Y-47603D01*
X117594Y-47622D01*
X117613Y-47660D01*
X117613Y-47736D01*
X117594Y-47774D01*
X117575Y-47793D01*
X117537Y-47812D01*
X117461Y-47812D01*
X117423Y-47793D01*
X117404Y-47774D01*
X117385Y-47736D01*
X117213Y-47946D02*
X117613Y-48212D01*
X117213Y-48212D02*
X117613Y-47946D01*
X117251Y-48346D02*
X117232Y-48365D01*
X117213Y-48403D01*
X117213Y-48498D01*
X117232Y-48536D01*
X117251Y-48555D01*
X117290Y-48574D01*
X117328Y-48574D01*
X117385Y-48555D01*
X117613Y-48326D01*
X117613Y-48574D01*
G54D11*
X141597Y-30364D02*
X140997Y-30364D01*
X140997Y-30592D01*
X141026Y-30649D01*
X141055Y-30678D01*
X141112Y-30707D01*
X141197Y-30707D01*
X141255Y-30678D01*
X141283Y-30649D01*
X141312Y-30592D01*
X141312Y-30364D01*
X141197Y-31221D02*
X141597Y-31221D01*
X140969Y-31078D02*
X141397Y-30935D01*
X141397Y-31307D01*
X139303Y-25157D02*
X139332Y-25129D01*
X139360Y-25043D01*
X139360Y-24986D01*
X139332Y-24900D01*
X139275Y-24843D01*
X139218Y-24814D01*
X139103Y-24786D01*
X139018Y-24786D01*
X138903Y-24814D01*
X138846Y-24843D01*
X138789Y-24900D01*
X138760Y-24986D01*
X138760Y-25043D01*
X138789Y-25129D01*
X138818Y-25157D01*
X138760Y-25529D02*
X138760Y-25643D01*
X138789Y-25700D01*
X138846Y-25757D01*
X138960Y-25786D01*
X139160Y-25786D01*
X139275Y-25757D01*
X139332Y-25700D01*
X139360Y-25643D01*
X139360Y-25529D01*
X139332Y-25471D01*
X139275Y-25414D01*
X139160Y-25386D01*
X138960Y-25386D01*
X138846Y-25414D01*
X138789Y-25471D01*
X138760Y-25529D01*
X139360Y-26043D02*
X138760Y-26043D01*
X139360Y-26386D01*
X138760Y-26386D01*
X139360Y-26671D02*
X138760Y-26671D01*
X139360Y-27014D01*
X138760Y-27014D01*
X139418Y-27157D02*
X139418Y-27614D01*
X138818Y-27729D02*
X138789Y-27757D01*
X138760Y-27814D01*
X138760Y-27957D01*
X138789Y-28014D01*
X138818Y-28043D01*
X138875Y-28071D01*
X138932Y-28071D01*
X139018Y-28043D01*
X139360Y-27700D01*
X139360Y-28071D01*
X28507Y-30364D02*
X27907Y-30364D01*
X27907Y-30592D01*
X27935Y-30649D01*
X27964Y-30678D01*
X28021Y-30707D01*
X28107Y-30707D01*
X28164Y-30678D01*
X28193Y-30649D01*
X28221Y-30592D01*
X28221Y-30364D01*
X27907Y-31249D02*
X27907Y-30964D01*
X28193Y-30935D01*
X28164Y-30964D01*
X28135Y-31021D01*
X28135Y-31164D01*
X28164Y-31221D01*
X28193Y-31249D01*
X28250Y-31278D01*
X28393Y-31278D01*
X28450Y-31249D01*
X28478Y-31221D01*
X28507Y-31164D01*
X28507Y-31021D01*
X28478Y-30964D01*
X28450Y-30935D01*
X26103Y-34082D02*
X26131Y-34054D01*
X26160Y-33968D01*
X26160Y-33911D01*
X26131Y-33825D01*
X26074Y-33768D01*
X26017Y-33740D01*
X25903Y-33711D01*
X25817Y-33711D01*
X25703Y-33740D01*
X25645Y-33768D01*
X25588Y-33825D01*
X25560Y-33911D01*
X25560Y-33968D01*
X25588Y-34054D01*
X25617Y-34082D01*
X25560Y-34454D02*
X25560Y-34568D01*
X25588Y-34625D01*
X25645Y-34682D01*
X25760Y-34711D01*
X25960Y-34711D01*
X26074Y-34682D01*
X26131Y-34625D01*
X26160Y-34568D01*
X26160Y-34454D01*
X26131Y-34397D01*
X26074Y-34340D01*
X25960Y-34311D01*
X25760Y-34311D01*
X25645Y-34340D01*
X25588Y-34397D01*
X25560Y-34454D01*
X26160Y-34968D02*
X25560Y-34968D01*
X26160Y-35311D01*
X25560Y-35311D01*
X26160Y-35597D02*
X25560Y-35597D01*
X26160Y-35940D01*
X25560Y-35940D01*
X26217Y-36082D02*
X26217Y-36540D01*
X25617Y-36654D02*
X25588Y-36682D01*
X25560Y-36740D01*
X25560Y-36882D01*
X25588Y-36940D01*
X25617Y-36968D01*
X25674Y-36997D01*
X25731Y-36997D01*
X25817Y-36968D01*
X26160Y-36625D01*
X26160Y-36997D01*
G54D15*
X103124Y-38544D02*
X103096Y-38506D01*
X103039Y-38468D01*
X102953Y-38411D01*
X102924Y-38373D01*
X102924Y-38335D01*
X103067Y-38354D02*
X103039Y-38316D01*
X102981Y-38277D01*
X102867Y-38258D01*
X102667Y-38258D01*
X102553Y-38277D01*
X102496Y-38316D01*
X102467Y-38354D01*
X102467Y-38430D01*
X102496Y-38468D01*
X102553Y-38506D01*
X102667Y-38525D01*
X102867Y-38525D01*
X102981Y-38506D01*
X103039Y-38468D01*
X103067Y-38430D01*
X103067Y-38354D01*
X103067Y-38906D02*
X103067Y-38677D01*
X103067Y-38792D02*
X102467Y-38792D01*
X102553Y-38754D01*
X102610Y-38716D01*
X102639Y-38677D01*
X102305Y-35725D02*
X102077Y-35725D01*
X102191Y-36325D02*
X102191Y-35725D01*
X101943Y-36325D02*
X101943Y-35725D01*
X101753Y-36325D02*
X101753Y-35725D01*
X101600Y-35725D01*
X101562Y-35754D01*
X101543Y-35782D01*
X101524Y-35839D01*
X101524Y-35925D01*
X101543Y-35982D01*
X101562Y-36011D01*
X101600Y-36039D01*
X101753Y-36039D01*
X101143Y-36325D02*
X101372Y-36325D01*
X101258Y-36325D02*
X101258Y-35725D01*
X101296Y-35811D01*
X101334Y-35868D01*
X101372Y-35896D01*
X100991Y-35782D02*
X100972Y-35754D01*
X100934Y-35725D01*
X100839Y-35725D01*
X100800Y-35754D01*
X100781Y-35782D01*
X100762Y-35839D01*
X100762Y-35896D01*
X100781Y-35982D01*
X101010Y-36325D01*
X100762Y-36325D01*
X100629Y-35725D02*
X100362Y-35725D01*
X100534Y-36325D01*
X131077Y-38544D02*
X131048Y-38506D01*
X130991Y-38468D01*
X130906Y-38411D01*
X130877Y-38373D01*
X130877Y-38335D01*
X131020Y-38354D02*
X130991Y-38316D01*
X130934Y-38277D01*
X130820Y-38258D01*
X130620Y-38258D01*
X130506Y-38277D01*
X130448Y-38316D01*
X130420Y-38354D01*
X130420Y-38430D01*
X130448Y-38468D01*
X130506Y-38506D01*
X130620Y-38525D01*
X130820Y-38525D01*
X130934Y-38506D01*
X130991Y-38468D01*
X131020Y-38430D01*
X131020Y-38354D01*
X130420Y-38658D02*
X130420Y-38906D01*
X130648Y-38773D01*
X130648Y-38830D01*
X130677Y-38868D01*
X130706Y-38887D01*
X130763Y-38906D01*
X130906Y-38906D01*
X130963Y-38887D01*
X130991Y-38868D01*
X131020Y-38830D01*
X131020Y-38716D01*
X130991Y-38677D01*
X130963Y-38658D01*
X130258Y-35725D02*
X130029Y-35725D01*
X130144Y-36325D02*
X130144Y-35725D01*
X129896Y-36325D02*
X129896Y-35725D01*
X129706Y-36325D02*
X129706Y-35725D01*
X129553Y-35725D01*
X129515Y-35754D01*
X129496Y-35782D01*
X129477Y-35839D01*
X129477Y-35925D01*
X129496Y-35982D01*
X129515Y-36011D01*
X129553Y-36039D01*
X129706Y-36039D01*
X129096Y-36325D02*
X129325Y-36325D01*
X129210Y-36325D02*
X129210Y-35725D01*
X129248Y-35811D01*
X129287Y-35868D01*
X129325Y-35896D01*
X128944Y-35782D02*
X128925Y-35754D01*
X128887Y-35725D01*
X128791Y-35725D01*
X128753Y-35754D01*
X128734Y-35782D01*
X128715Y-35839D01*
X128715Y-35896D01*
X128734Y-35982D01*
X128963Y-36325D01*
X128715Y-36325D01*
X128582Y-35725D02*
X128315Y-35725D01*
X128487Y-36325D01*
X40329Y-38544D02*
X40300Y-38506D01*
X40243Y-38468D01*
X40158Y-38411D01*
X40129Y-38373D01*
X40129Y-38335D01*
X40272Y-38354D02*
X40243Y-38316D01*
X40186Y-38277D01*
X40072Y-38258D01*
X39872Y-38258D01*
X39758Y-38277D01*
X39700Y-38316D01*
X39672Y-38354D01*
X39672Y-38430D01*
X39700Y-38468D01*
X39758Y-38506D01*
X39872Y-38525D01*
X40072Y-38525D01*
X40186Y-38506D01*
X40243Y-38468D01*
X40272Y-38430D01*
X40272Y-38354D01*
X39729Y-38677D02*
X39700Y-38696D01*
X39672Y-38735D01*
X39672Y-38830D01*
X39700Y-38868D01*
X39729Y-38887D01*
X39786Y-38906D01*
X39843Y-38906D01*
X39929Y-38887D01*
X40272Y-38658D01*
X40272Y-38906D01*
X39510Y-35725D02*
X39281Y-35725D01*
X39396Y-36325D02*
X39396Y-35725D01*
X39148Y-36325D02*
X39148Y-35725D01*
X38958Y-36325D02*
X38958Y-35725D01*
X38805Y-35725D01*
X38767Y-35754D01*
X38748Y-35782D01*
X38729Y-35839D01*
X38729Y-35925D01*
X38748Y-35982D01*
X38767Y-36011D01*
X38805Y-36039D01*
X38958Y-36039D01*
X38348Y-36325D02*
X38577Y-36325D01*
X38462Y-36325D02*
X38462Y-35725D01*
X38500Y-35811D01*
X38539Y-35868D01*
X38577Y-35896D01*
X38196Y-35782D02*
X38177Y-35754D01*
X38139Y-35725D01*
X38043Y-35725D01*
X38005Y-35754D01*
X37986Y-35782D01*
X37967Y-35839D01*
X37967Y-35896D01*
X37986Y-35982D01*
X38215Y-36325D01*
X37967Y-36325D01*
X37834Y-35725D02*
X37567Y-35725D01*
X37739Y-36325D01*
X109249Y-56205D02*
X109220Y-56167D01*
X109163Y-56129D01*
X109077Y-56072D01*
X109049Y-56034D01*
X109049Y-55996D01*
X109192Y-56015D02*
X109163Y-55977D01*
X109106Y-55939D01*
X108992Y-55920D01*
X108792Y-55920D01*
X108677Y-55939D01*
X108620Y-55977D01*
X108592Y-56015D01*
X108592Y-56091D01*
X108620Y-56129D01*
X108677Y-56167D01*
X108792Y-56186D01*
X108992Y-56186D01*
X109106Y-56167D01*
X109163Y-56129D01*
X109192Y-56091D01*
X109192Y-56015D01*
X108792Y-56529D02*
X109192Y-56529D01*
X108563Y-56434D02*
X108992Y-56339D01*
X108992Y-56586D01*
X108430Y-53386D02*
X108201Y-53386D01*
X108315Y-53986D02*
X108315Y-53386D01*
X108068Y-53986D02*
X108068Y-53386D01*
X107877Y-53986D02*
X107877Y-53386D01*
X107725Y-53386D01*
X107687Y-53415D01*
X107668Y-53444D01*
X107649Y-53501D01*
X107649Y-53586D01*
X107668Y-53644D01*
X107687Y-53672D01*
X107725Y-53701D01*
X107877Y-53701D01*
X107268Y-53986D02*
X107496Y-53986D01*
X107382Y-53986D02*
X107382Y-53386D01*
X107420Y-53472D01*
X107458Y-53529D01*
X107496Y-53558D01*
X107115Y-53444D02*
X107096Y-53415D01*
X107058Y-53386D01*
X106963Y-53386D01*
X106925Y-53415D01*
X106906Y-53444D01*
X106887Y-53501D01*
X106887Y-53558D01*
X106906Y-53644D01*
X107134Y-53986D01*
X106887Y-53986D01*
X106753Y-53386D02*
X106487Y-53386D01*
X106658Y-53986D01*
X36309Y-56205D02*
X36281Y-56167D01*
X36224Y-56129D01*
X36138Y-56072D01*
X36109Y-56034D01*
X36109Y-55996D01*
X36252Y-56015D02*
X36224Y-55977D01*
X36166Y-55939D01*
X36052Y-55920D01*
X35852Y-55920D01*
X35738Y-55939D01*
X35681Y-55977D01*
X35652Y-56015D01*
X35652Y-56091D01*
X35681Y-56129D01*
X35738Y-56167D01*
X35852Y-56186D01*
X36052Y-56186D01*
X36166Y-56167D01*
X36224Y-56129D01*
X36252Y-56091D01*
X36252Y-56015D01*
X35652Y-56548D02*
X35652Y-56358D01*
X35938Y-56339D01*
X35909Y-56358D01*
X35881Y-56396D01*
X35881Y-56491D01*
X35909Y-56529D01*
X35938Y-56548D01*
X35995Y-56567D01*
X36138Y-56567D01*
X36195Y-56548D01*
X36224Y-56529D01*
X36252Y-56491D01*
X36252Y-56396D01*
X36224Y-56358D01*
X36195Y-56339D01*
X35490Y-53386D02*
X35262Y-53386D01*
X35376Y-53986D02*
X35376Y-53386D01*
X35128Y-53986D02*
X35128Y-53386D01*
X34938Y-53986D02*
X34938Y-53386D01*
X34786Y-53386D01*
X34747Y-53415D01*
X34728Y-53444D01*
X34709Y-53501D01*
X34709Y-53586D01*
X34728Y-53644D01*
X34747Y-53672D01*
X34786Y-53701D01*
X34938Y-53701D01*
X34328Y-53986D02*
X34557Y-53986D01*
X34443Y-53986D02*
X34443Y-53386D01*
X34481Y-53472D01*
X34519Y-53529D01*
X34557Y-53558D01*
X34176Y-53444D02*
X34157Y-53415D01*
X34119Y-53386D01*
X34024Y-53386D01*
X33986Y-53415D01*
X33966Y-53444D01*
X33947Y-53501D01*
X33947Y-53558D01*
X33966Y-53644D01*
X34195Y-53986D01*
X33947Y-53986D01*
X33814Y-53386D02*
X33547Y-53386D01*
X33719Y-53986D01*
X134900Y-56205D02*
X134871Y-56167D01*
X134814Y-56129D01*
X134728Y-56072D01*
X134700Y-56034D01*
X134700Y-55996D01*
X134843Y-56015D02*
X134814Y-55977D01*
X134757Y-55939D01*
X134643Y-55920D01*
X134443Y-55920D01*
X134328Y-55939D01*
X134271Y-55977D01*
X134243Y-56015D01*
X134243Y-56091D01*
X134271Y-56129D01*
X134328Y-56167D01*
X134443Y-56186D01*
X134643Y-56186D01*
X134757Y-56167D01*
X134814Y-56129D01*
X134843Y-56091D01*
X134843Y-56015D01*
X134243Y-56529D02*
X134243Y-56453D01*
X134271Y-56415D01*
X134300Y-56396D01*
X134386Y-56358D01*
X134500Y-56339D01*
X134728Y-56339D01*
X134786Y-56358D01*
X134814Y-56377D01*
X134843Y-56415D01*
X134843Y-56491D01*
X134814Y-56529D01*
X134786Y-56548D01*
X134728Y-56567D01*
X134586Y-56567D01*
X134528Y-56548D01*
X134500Y-56529D01*
X134471Y-56491D01*
X134471Y-56415D01*
X134500Y-56377D01*
X134528Y-56358D01*
X134586Y-56339D01*
X134081Y-53386D02*
X133852Y-53386D01*
X133967Y-53986D02*
X133967Y-53386D01*
X133719Y-53986D02*
X133719Y-53386D01*
X133528Y-53986D02*
X133528Y-53386D01*
X133376Y-53386D01*
X133338Y-53415D01*
X133319Y-53444D01*
X133300Y-53501D01*
X133300Y-53586D01*
X133319Y-53644D01*
X133338Y-53672D01*
X133376Y-53701D01*
X133528Y-53701D01*
X132919Y-53986D02*
X133148Y-53986D01*
X133033Y-53986D02*
X133033Y-53386D01*
X133071Y-53472D01*
X133109Y-53529D01*
X133148Y-53558D01*
X132767Y-53444D02*
X132748Y-53415D01*
X132709Y-53386D01*
X132614Y-53386D01*
X132576Y-53415D01*
X132557Y-53444D01*
X132538Y-53501D01*
X132538Y-53558D01*
X132557Y-53644D01*
X132786Y-53986D01*
X132538Y-53986D01*
X132405Y-53386D02*
X132138Y-53386D01*
X132309Y-53986D01*
X59030Y-56205D02*
X59001Y-56167D01*
X58944Y-56129D01*
X58858Y-56072D01*
X58830Y-56034D01*
X58830Y-55996D01*
X58973Y-56015D02*
X58944Y-55977D01*
X58887Y-55939D01*
X58773Y-55920D01*
X58573Y-55920D01*
X58458Y-55939D01*
X58401Y-55977D01*
X58373Y-56015D01*
X58373Y-56091D01*
X58401Y-56129D01*
X58458Y-56167D01*
X58573Y-56186D01*
X58773Y-56186D01*
X58887Y-56167D01*
X58944Y-56129D01*
X58973Y-56091D01*
X58973Y-56015D01*
X58373Y-56320D02*
X58373Y-56586D01*
X58973Y-56415D01*
X58211Y-53386D02*
X57982Y-53386D01*
X58096Y-53986D02*
X58096Y-53386D01*
X57849Y-53986D02*
X57849Y-53386D01*
X57658Y-53986D02*
X57658Y-53386D01*
X57506Y-53386D01*
X57468Y-53415D01*
X57449Y-53444D01*
X57430Y-53501D01*
X57430Y-53586D01*
X57449Y-53644D01*
X57468Y-53672D01*
X57506Y-53701D01*
X57658Y-53701D01*
X57049Y-53986D02*
X57277Y-53986D01*
X57163Y-53986D02*
X57163Y-53386D01*
X57201Y-53472D01*
X57239Y-53529D01*
X57277Y-53558D01*
X56896Y-53444D02*
X56877Y-53415D01*
X56839Y-53386D01*
X56744Y-53386D01*
X56706Y-53415D01*
X56687Y-53444D01*
X56668Y-53501D01*
X56668Y-53558D01*
X56687Y-53644D01*
X56916Y-53986D01*
X56668Y-53986D01*
X56535Y-53386D02*
X56268Y-53386D01*
X56439Y-53986D01*
M02*
