G04 (created by PCBNEW (2013-07-07 BZR 4022)-stable) date 12/25/2014 10:33:01 AM*
%MOIN*%
G04 Gerber Fmt 3.4, Leading zero omitted, Abs format*
%FSLAX34Y34*%
G01*
G70*
G90*
G04 APERTURE LIST*
%ADD10C,0.00590551*%
%ADD11R,0.0708661X0.0708661*%
%ADD12C,0.0708661*%
%ADD13C,0.06*%
%ADD14R,0.06X0.06*%
%ADD15R,0.1181X0.1181*%
%ADD16C,0.1181*%
%ADD17C,0.07*%
%ADD18R,0.07X0.07*%
%ADD19C,0.23622*%
%ADD20C,0.16*%
%ADD21C,0.15748*%
%ADD22R,0.0590551X0.0866142*%
%ADD23O,0.0590551X0.0866142*%
%ADD24C,0.035*%
%ADD25C,0.0393701*%
%ADD26C,0.01*%
G04 APERTURE END LIST*
G54D10*
G54D11*
X25944Y-50594D03*
G54D12*
X25944Y-49594D03*
X25944Y-48594D03*
X25944Y-47594D03*
X25944Y-46594D03*
X25944Y-45594D03*
X25944Y-44594D03*
X25944Y-43594D03*
G54D11*
X70738Y-26998D03*
G54D12*
X71738Y-26998D03*
X72738Y-26998D03*
X73738Y-26998D03*
X74738Y-26998D03*
X75738Y-26998D03*
X76738Y-26998D03*
X77738Y-26998D03*
X78738Y-26998D03*
X79738Y-26998D03*
X80738Y-26998D03*
X81738Y-26998D03*
X82738Y-26998D03*
X83738Y-26998D03*
X84738Y-26998D03*
X85738Y-26998D03*
X86738Y-26998D03*
X87738Y-26998D03*
X88738Y-26998D03*
X89738Y-26998D03*
X90738Y-26998D03*
X91738Y-26998D03*
X92738Y-26998D03*
X93738Y-26998D03*
G54D13*
X98031Y-37566D03*
X98031Y-41566D03*
X35433Y-37566D03*
X35433Y-41566D03*
X126574Y-37566D03*
X126574Y-41566D03*
X111948Y-56059D03*
X111948Y-52059D03*
X30751Y-56059D03*
X30751Y-52059D03*
X128149Y-56724D03*
X128149Y-52724D03*
X53681Y-56059D03*
X53681Y-52059D03*
G54D11*
X139586Y-50594D03*
G54D12*
X139586Y-49594D03*
X139586Y-48594D03*
X139586Y-47594D03*
X139586Y-46594D03*
X139586Y-45594D03*
X139586Y-44594D03*
X139586Y-43594D03*
G54D14*
X118251Y-50598D03*
G54D13*
X119251Y-50598D03*
X118251Y-49598D03*
X119251Y-49598D03*
X118251Y-48598D03*
X119251Y-48598D03*
X118251Y-47598D03*
X119251Y-47598D03*
X118251Y-46598D03*
X119251Y-46598D03*
X118251Y-45598D03*
X119251Y-45598D03*
X118251Y-44598D03*
X119251Y-44598D03*
X118251Y-43598D03*
X119251Y-43598D03*
G54D15*
X139055Y-31807D03*
G54D16*
X139055Y-29807D03*
G54D15*
X25964Y-31807D03*
G54D16*
X25964Y-29807D03*
G54D17*
X101574Y-37582D03*
X101574Y-38582D03*
G54D18*
X101574Y-39582D03*
G54D17*
X129527Y-37582D03*
X129527Y-38582D03*
G54D18*
X129527Y-39582D03*
G54D17*
X38779Y-37582D03*
X38779Y-38582D03*
G54D18*
X38779Y-39582D03*
G54D17*
X107699Y-55244D03*
X107699Y-56244D03*
G54D18*
X107699Y-57244D03*
G54D17*
X34759Y-55244D03*
X34759Y-56244D03*
G54D18*
X34759Y-57244D03*
G54D17*
X133350Y-55244D03*
X133350Y-56244D03*
G54D18*
X133350Y-57244D03*
G54D17*
X57480Y-55244D03*
X57480Y-56244D03*
G54D18*
X57480Y-57244D03*
G54D19*
X93937Y-54921D03*
X70511Y-54921D03*
G54D20*
X139665Y-69881D03*
X25787Y-24212D03*
X139763Y-24409D03*
G54D21*
X62775Y-24409D03*
G54D20*
X25295Y-69980D03*
X62992Y-69881D03*
G54D22*
X31933Y-62283D03*
G54D23*
X33933Y-62283D03*
X35933Y-62283D03*
X37933Y-62283D03*
X39933Y-62283D03*
X41933Y-62283D03*
X43933Y-62283D03*
X43933Y-32283D03*
X41933Y-32283D03*
X39933Y-32283D03*
X37933Y-32283D03*
X35933Y-32283D03*
X33933Y-32283D03*
X31933Y-32283D03*
G54D22*
X61716Y-62283D03*
G54D23*
X63716Y-62283D03*
X65716Y-62283D03*
X67716Y-62283D03*
X69716Y-62283D03*
X71716Y-62283D03*
X73716Y-62283D03*
X73716Y-32283D03*
X71716Y-32283D03*
X69716Y-32283D03*
X67716Y-32283D03*
X65716Y-32283D03*
X63716Y-32283D03*
X61716Y-32283D03*
G54D22*
X91480Y-62283D03*
G54D23*
X93480Y-62283D03*
X95480Y-62283D03*
X97480Y-62283D03*
X99480Y-62283D03*
X101480Y-62283D03*
X103480Y-62283D03*
X103480Y-32283D03*
X101480Y-32283D03*
X99480Y-32283D03*
X97480Y-32283D03*
X95480Y-32283D03*
X93480Y-32283D03*
X91480Y-32283D03*
G54D22*
X121283Y-62283D03*
G54D23*
X123283Y-62283D03*
X125283Y-62283D03*
X127283Y-62283D03*
X129283Y-62283D03*
X131283Y-62283D03*
X133283Y-62283D03*
X133283Y-32283D03*
X131283Y-32283D03*
X129283Y-32283D03*
X127283Y-32283D03*
X125283Y-32283D03*
X123283Y-32283D03*
X121283Y-32283D03*
G54D20*
X102362Y-69881D03*
X102362Y-24015D03*
G54D24*
X35421Y-43570D03*
X74212Y-43110D03*
X74212Y-51968D03*
X83759Y-52066D03*
X83740Y-42677D03*
X95964Y-51771D03*
X86712Y-42618D03*
X97342Y-51771D03*
X87893Y-42421D03*
X44881Y-52460D03*
X44881Y-43267D03*
X46948Y-43405D03*
X46751Y-52460D03*
X65748Y-43110D03*
X65748Y-51968D03*
X119685Y-31102D03*
X93700Y-34055D03*
X89763Y-34055D03*
X89763Y-32283D03*
X59055Y-33661D03*
X121417Y-51610D03*
X121133Y-56208D03*
X119488Y-63976D03*
X89960Y-63976D03*
X94488Y-63976D03*
X65551Y-63976D03*
X60236Y-63976D03*
X138110Y-43295D03*
X129255Y-43468D03*
X122543Y-51519D03*
X104429Y-51763D03*
X104279Y-57594D03*
X104322Y-60169D03*
X122440Y-64960D03*
X119488Y-64960D03*
X92913Y-64960D03*
X89960Y-64960D03*
X62992Y-64960D03*
X57677Y-64960D03*
G54D25*
X25944Y-50594D02*
X24929Y-50594D01*
X81783Y-41566D02*
X98031Y-41566D01*
X80913Y-42437D02*
X81783Y-41566D01*
X25169Y-42437D02*
X80913Y-42437D01*
X24433Y-43173D02*
X25169Y-42437D01*
X24433Y-50098D02*
X24433Y-43173D01*
X24929Y-50594D02*
X24433Y-50098D01*
X29397Y-49594D02*
X25944Y-49594D01*
X35421Y-43570D02*
X29397Y-49594D01*
X126574Y-41566D02*
X126574Y-50736D01*
X117279Y-48598D02*
X118251Y-48598D01*
X116480Y-49397D02*
X117279Y-48598D01*
X116480Y-51590D02*
X116480Y-49397D01*
X117318Y-52429D02*
X116480Y-51590D01*
X124881Y-52429D02*
X117318Y-52429D01*
X126574Y-50736D02*
X124881Y-52429D01*
X111948Y-52059D02*
X111948Y-49929D01*
X114279Y-47598D02*
X118251Y-47598D01*
X111948Y-49929D02*
X114279Y-47598D01*
X118251Y-45598D02*
X114366Y-45598D01*
X126122Y-54751D02*
X128149Y-52724D01*
X112149Y-54751D02*
X126122Y-54751D01*
X110177Y-52779D02*
X112149Y-54751D01*
X110177Y-49787D02*
X110177Y-52779D01*
X114366Y-45598D02*
X110177Y-49787D01*
X53681Y-52059D02*
X53681Y-53318D01*
X27519Y-43019D02*
X25944Y-44594D01*
X37783Y-43019D02*
X27519Y-43019D01*
X39314Y-44551D02*
X37783Y-43019D01*
X39314Y-51763D02*
X39314Y-44551D01*
X42649Y-55098D02*
X39314Y-51763D01*
X51901Y-55098D02*
X42649Y-55098D01*
X53681Y-53318D02*
X51901Y-55098D01*
X70738Y-26998D02*
X38356Y-26998D01*
X33933Y-31421D02*
X33933Y-32283D01*
X38356Y-26998D02*
X33933Y-31421D01*
X74212Y-50000D02*
X74212Y-43110D01*
X74212Y-51574D02*
X74212Y-50000D01*
X74212Y-51968D02*
X74212Y-51574D01*
X82738Y-26998D02*
X82738Y-28328D01*
X92259Y-31062D02*
X93480Y-32283D01*
X85472Y-31062D02*
X92259Y-31062D01*
X82738Y-28328D02*
X85472Y-31062D01*
X83759Y-46791D02*
X83759Y-52066D01*
X83740Y-46771D02*
X83759Y-46791D01*
X83740Y-44251D02*
X83740Y-46771D01*
X83740Y-42677D02*
X83740Y-44251D01*
X84738Y-26998D02*
X84738Y-28832D01*
X97480Y-31614D02*
X97480Y-32283D01*
X96102Y-30236D02*
X97480Y-31614D01*
X86141Y-30236D02*
X96102Y-30236D01*
X84738Y-28832D02*
X86141Y-30236D01*
X85738Y-26998D02*
X85738Y-28375D01*
X99480Y-31488D02*
X99480Y-32283D01*
X97559Y-29566D02*
X99480Y-31488D01*
X86929Y-29566D02*
X97559Y-29566D01*
X85738Y-28375D02*
X86929Y-29566D01*
X95866Y-51771D02*
X95964Y-51771D01*
X86712Y-42618D02*
X95866Y-51771D01*
X88738Y-26998D02*
X88738Y-28187D01*
X119858Y-28858D02*
X123283Y-32283D01*
X89409Y-28858D02*
X119858Y-28858D01*
X88738Y-28187D02*
X89409Y-28858D01*
X97244Y-51771D02*
X97342Y-51771D01*
X87893Y-42421D02*
X97244Y-51771D01*
X90738Y-26998D02*
X90738Y-27746D01*
X123070Y-28070D02*
X127283Y-32283D01*
X91062Y-28070D02*
X123070Y-28070D01*
X90738Y-27746D02*
X91062Y-28070D01*
X91738Y-26998D02*
X91738Y-26450D01*
X122905Y-25905D02*
X129283Y-32283D01*
X92283Y-25905D02*
X122905Y-25905D01*
X91738Y-26450D02*
X92283Y-25905D01*
X44881Y-43267D02*
X44881Y-52460D01*
X72738Y-26998D02*
X72738Y-27419D01*
X37933Y-31476D02*
X37933Y-32283D01*
X41220Y-28188D02*
X37933Y-31476D01*
X71968Y-28188D02*
X41220Y-28188D01*
X72738Y-27419D02*
X71968Y-28188D01*
X73738Y-26998D02*
X73738Y-27679D01*
X39933Y-31602D02*
X39933Y-32283D01*
X42637Y-28897D02*
X39933Y-31602D01*
X72519Y-28897D02*
X42637Y-28897D01*
X73738Y-27679D02*
X72519Y-28897D01*
X46948Y-52263D02*
X46948Y-43405D01*
X46751Y-52460D02*
X46948Y-52263D01*
X63716Y-32283D02*
X63716Y-30771D01*
X76738Y-27474D02*
X76738Y-26998D01*
X74409Y-29803D02*
X76738Y-27474D01*
X64685Y-29803D02*
X74409Y-29803D01*
X63716Y-30771D02*
X64685Y-29803D01*
X65748Y-46653D02*
X65748Y-43110D01*
X65748Y-50590D02*
X65748Y-46653D01*
X65748Y-51968D02*
X65748Y-50590D01*
X67716Y-32283D02*
X67716Y-31417D01*
X78738Y-27403D02*
X78738Y-26998D01*
X75669Y-30472D02*
X78738Y-27403D01*
X68661Y-30472D02*
X75669Y-30472D01*
X67716Y-31417D02*
X68661Y-30472D01*
X69716Y-32283D02*
X69716Y-31779D01*
X79738Y-27427D02*
X79738Y-26998D01*
X75984Y-31181D02*
X79738Y-27427D01*
X70314Y-31181D02*
X75984Y-31181D01*
X69716Y-31779D02*
X70314Y-31181D01*
X139586Y-50594D02*
X140413Y-50594D01*
X131283Y-32783D02*
X131283Y-32283D01*
X140881Y-42381D02*
X131283Y-32783D01*
X140881Y-50125D02*
X140881Y-42381D01*
X140413Y-50594D02*
X140881Y-50125D01*
X101480Y-32283D02*
X101480Y-31984D01*
X101480Y-31984D02*
X102362Y-31102D01*
X102362Y-31102D02*
X119685Y-31102D01*
X89763Y-34055D02*
X75393Y-34055D01*
X71716Y-33724D02*
X72047Y-34055D01*
X72047Y-34055D02*
X75393Y-34055D01*
X71716Y-33598D02*
X71716Y-33724D01*
X101480Y-32574D02*
X101480Y-32283D01*
X100000Y-34055D02*
X101480Y-32574D01*
X93700Y-34055D02*
X100000Y-34055D01*
X41933Y-32283D02*
X41933Y-31098D01*
X71716Y-33598D02*
X71716Y-32283D01*
X71259Y-34055D02*
X71716Y-33598D01*
X63582Y-34055D02*
X71259Y-34055D01*
X62795Y-33267D02*
X63582Y-34055D01*
X62795Y-31496D02*
X62795Y-33267D01*
X61614Y-30314D02*
X62795Y-31496D01*
X42716Y-30314D02*
X61614Y-30314D01*
X41933Y-31098D02*
X42716Y-30314D01*
X139586Y-49594D02*
X137295Y-49594D01*
X121929Y-34228D02*
X121283Y-34228D01*
X137295Y-49594D02*
X121929Y-34228D01*
X91480Y-34251D02*
X91480Y-34393D01*
X91480Y-34393D02*
X91929Y-34842D01*
X91929Y-34842D02*
X120669Y-34842D01*
X120669Y-34842D02*
X121283Y-34228D01*
X121283Y-34228D02*
X121283Y-32283D01*
X61716Y-34149D02*
X61716Y-34157D01*
X91480Y-34307D02*
X91480Y-34251D01*
X91480Y-34251D02*
X91480Y-32283D01*
X90944Y-34842D02*
X91480Y-34307D01*
X62401Y-34842D02*
X90944Y-34842D01*
X61716Y-34157D02*
X62401Y-34842D01*
X31933Y-32283D02*
X31933Y-33704D01*
X61716Y-34149D02*
X61716Y-32283D01*
X61023Y-34842D02*
X61716Y-34149D01*
X33070Y-34842D02*
X61023Y-34842D01*
X31933Y-33704D02*
X33070Y-34842D01*
X129527Y-38582D02*
X133921Y-38582D01*
X137783Y-48594D02*
X139586Y-48594D01*
X136665Y-47476D02*
X137783Y-48594D01*
X136665Y-41326D02*
X136665Y-47476D01*
X133921Y-38582D02*
X136665Y-41326D01*
X73716Y-32283D02*
X89763Y-32283D01*
X43933Y-32283D02*
X57677Y-32283D01*
X57677Y-32283D02*
X59055Y-33661D01*
X107699Y-56244D02*
X110145Y-56244D01*
X119736Y-47598D02*
X119251Y-47598D01*
X121397Y-49259D02*
X119736Y-47598D01*
X121397Y-51590D02*
X121397Y-49259D01*
X121417Y-51610D02*
X121397Y-51590D01*
X120118Y-57224D02*
X121133Y-56208D01*
X111125Y-57224D02*
X120118Y-57224D01*
X110145Y-56244D02*
X111125Y-57224D01*
X99480Y-62283D02*
X99480Y-60586D01*
X103822Y-56244D02*
X107699Y-56244D01*
X99480Y-60586D02*
X103822Y-56244D01*
X129283Y-63039D02*
X129283Y-62283D01*
X128346Y-63976D02*
X129283Y-63039D01*
X119488Y-63976D02*
X128346Y-63976D01*
X89960Y-63976D02*
X94488Y-63976D01*
X60236Y-63976D02*
X65551Y-63976D01*
X121283Y-62283D02*
X121283Y-61051D01*
X138787Y-46594D02*
X139586Y-46594D01*
X138003Y-45811D02*
X138787Y-46594D01*
X138003Y-43401D02*
X138003Y-45811D01*
X138110Y-43295D02*
X138003Y-43401D01*
X129255Y-53078D02*
X129255Y-43468D01*
X121283Y-61051D02*
X129255Y-53078D01*
X31933Y-62283D02*
X31933Y-58507D01*
X34196Y-56244D02*
X34759Y-56244D01*
X31933Y-58507D02*
X34196Y-56244D01*
X119251Y-45598D02*
X119606Y-45598D01*
X122543Y-48535D02*
X122543Y-51519D01*
X119606Y-45598D02*
X122543Y-48535D01*
X133350Y-56244D02*
X132141Y-56244D01*
X130968Y-59968D02*
X133283Y-62283D01*
X130968Y-57417D02*
X130968Y-59968D01*
X132141Y-56244D02*
X130968Y-57417D01*
X103480Y-65157D02*
X103480Y-65291D01*
X133283Y-64748D02*
X133283Y-62283D01*
X132086Y-65944D02*
X133283Y-64748D01*
X104133Y-65944D02*
X132086Y-65944D01*
X103480Y-65291D02*
X104133Y-65944D01*
X73716Y-64763D02*
X73716Y-65055D01*
X103480Y-65220D02*
X103480Y-65157D01*
X103480Y-65157D02*
X103480Y-62283D01*
X102755Y-65944D02*
X103480Y-65220D01*
X74606Y-65944D02*
X102755Y-65944D01*
X73716Y-65055D02*
X74606Y-65944D01*
X43933Y-62283D02*
X43933Y-64996D01*
X73716Y-64866D02*
X73716Y-64763D01*
X73716Y-64763D02*
X73716Y-62283D01*
X72637Y-65944D02*
X73716Y-64866D01*
X44881Y-65944D02*
X72637Y-65944D01*
X43933Y-64996D02*
X44881Y-65944D01*
X119925Y-44598D02*
X119251Y-44598D01*
X120271Y-44251D02*
X119925Y-44598D01*
X120271Y-43173D02*
X120271Y-44251D01*
X119370Y-42271D02*
X120271Y-43173D01*
X113921Y-42271D02*
X119370Y-42271D01*
X104429Y-51763D02*
X113921Y-42271D01*
X104279Y-60125D02*
X104279Y-57594D01*
X104322Y-60169D02*
X104279Y-60125D01*
X57480Y-56244D02*
X57677Y-56244D01*
X57677Y-56244D02*
X63716Y-62283D01*
X119488Y-64960D02*
X122440Y-64960D01*
X89960Y-64960D02*
X92913Y-64960D01*
X61023Y-64960D02*
X62992Y-64960D01*
X57677Y-64960D02*
X61023Y-64960D01*
G54D10*
G36*
X141305Y-71206D02*
X140715Y-71206D01*
X140715Y-69673D01*
X140556Y-69287D01*
X140260Y-68992D01*
X139875Y-68832D01*
X139457Y-68831D01*
X139071Y-68991D01*
X138775Y-69286D01*
X138615Y-69672D01*
X138615Y-70089D01*
X138774Y-70475D01*
X139069Y-70771D01*
X139455Y-70931D01*
X139873Y-70932D01*
X140259Y-70772D01*
X140554Y-70477D01*
X140715Y-70091D01*
X140715Y-69673D01*
X140715Y-71206D01*
X133950Y-71206D01*
X133950Y-56125D01*
X133859Y-55904D01*
X133698Y-55743D01*
X133858Y-55584D01*
X133950Y-55363D01*
X133950Y-55125D01*
X133859Y-54904D01*
X133690Y-54735D01*
X133470Y-54644D01*
X133231Y-54643D01*
X133010Y-54735D01*
X132842Y-54903D01*
X132750Y-55124D01*
X132750Y-55362D01*
X132841Y-55583D01*
X133001Y-55744D01*
X132948Y-55797D01*
X132141Y-55797D01*
X131970Y-55831D01*
X131825Y-55928D01*
X130652Y-57101D01*
X130555Y-57246D01*
X130521Y-57417D01*
X130521Y-59968D01*
X130555Y-60139D01*
X130652Y-60284D01*
X132738Y-62370D01*
X132738Y-62434D01*
X132779Y-62643D01*
X132836Y-62728D01*
X132836Y-64562D01*
X131901Y-65498D01*
X131828Y-65498D01*
X131828Y-62434D01*
X131828Y-62132D01*
X131787Y-61923D01*
X131669Y-61746D01*
X131492Y-61628D01*
X131283Y-61587D01*
X131074Y-61628D01*
X130897Y-61746D01*
X130779Y-61923D01*
X130738Y-62132D01*
X130738Y-62434D01*
X130779Y-62643D01*
X130897Y-62820D01*
X131074Y-62938D01*
X131283Y-62979D01*
X131492Y-62938D01*
X131669Y-62820D01*
X131787Y-62643D01*
X131828Y-62434D01*
X131828Y-65498D01*
X129828Y-65498D01*
X129828Y-62434D01*
X129828Y-62132D01*
X129787Y-61923D01*
X129702Y-61797D01*
X129702Y-53078D01*
X129702Y-43468D01*
X129668Y-43297D01*
X129571Y-43152D01*
X129426Y-43055D01*
X129255Y-43021D01*
X129084Y-43055D01*
X128939Y-43152D01*
X128843Y-43297D01*
X128809Y-43468D01*
X128809Y-52893D01*
X128699Y-53003D01*
X128699Y-52615D01*
X128616Y-52413D01*
X128461Y-52258D01*
X128259Y-52174D01*
X128040Y-52174D01*
X127838Y-52257D01*
X127683Y-52412D01*
X127599Y-52614D01*
X127599Y-52642D01*
X125936Y-54305D01*
X112334Y-54305D01*
X110624Y-52594D01*
X110624Y-49972D01*
X114551Y-46045D01*
X117920Y-46045D01*
X117940Y-46064D01*
X118021Y-46098D01*
X117940Y-46131D01*
X117785Y-46286D01*
X117702Y-46488D01*
X117701Y-46707D01*
X117785Y-46909D01*
X117940Y-47064D01*
X118021Y-47098D01*
X117940Y-47131D01*
X117921Y-47151D01*
X114279Y-47151D01*
X114108Y-47185D01*
X113963Y-47282D01*
X111632Y-49613D01*
X111535Y-49758D01*
X111501Y-49929D01*
X111501Y-51727D01*
X111482Y-51747D01*
X111398Y-51949D01*
X111398Y-52167D01*
X111482Y-52370D01*
X111636Y-52525D01*
X111838Y-52608D01*
X112057Y-52609D01*
X112259Y-52525D01*
X112414Y-52371D01*
X112498Y-52168D01*
X112498Y-51950D01*
X112415Y-51747D01*
X112395Y-51728D01*
X112395Y-50114D01*
X114464Y-48045D01*
X117920Y-48045D01*
X117940Y-48064D01*
X118021Y-48098D01*
X117940Y-48131D01*
X117921Y-48151D01*
X117279Y-48151D01*
X117108Y-48185D01*
X116963Y-48282D01*
X116164Y-49081D01*
X116067Y-49226D01*
X116033Y-49397D01*
X116033Y-51590D01*
X116067Y-51761D01*
X116164Y-51906D01*
X117002Y-52745D01*
X117002Y-52745D01*
X117147Y-52841D01*
X117318Y-52875D01*
X117318Y-52875D01*
X124881Y-52875D01*
X125052Y-52841D01*
X125052Y-52841D01*
X125197Y-52745D01*
X126890Y-51052D01*
X126987Y-50907D01*
X127021Y-50736D01*
X127021Y-50736D01*
X127021Y-41897D01*
X127040Y-41878D01*
X127124Y-41676D01*
X127124Y-41458D01*
X127041Y-41255D01*
X126886Y-41100D01*
X126684Y-41017D01*
X126465Y-41016D01*
X126263Y-41100D01*
X126108Y-41254D01*
X126024Y-41457D01*
X126024Y-41675D01*
X126108Y-41878D01*
X126127Y-41897D01*
X126127Y-50551D01*
X124696Y-51982D01*
X121649Y-51982D01*
X121733Y-51926D01*
X121830Y-51781D01*
X121864Y-51610D01*
X121844Y-51511D01*
X121844Y-49259D01*
X121810Y-49088D01*
X121810Y-49088D01*
X121713Y-48943D01*
X120052Y-47282D01*
X119907Y-47185D01*
X119736Y-47151D01*
X119583Y-47151D01*
X119563Y-47132D01*
X119482Y-47098D01*
X119563Y-47064D01*
X119717Y-46910D01*
X119801Y-46708D01*
X119802Y-46489D01*
X119757Y-46381D01*
X122096Y-48720D01*
X122096Y-51519D01*
X122130Y-51690D01*
X122227Y-51835D01*
X122372Y-51932D01*
X122543Y-51966D01*
X122714Y-51932D01*
X122859Y-51835D01*
X122956Y-51690D01*
X122990Y-51519D01*
X122990Y-48535D01*
X122956Y-48364D01*
X122956Y-48364D01*
X122859Y-48219D01*
X119922Y-45282D01*
X119777Y-45185D01*
X119606Y-45151D01*
X119583Y-45151D01*
X119563Y-45132D01*
X119482Y-45098D01*
X119563Y-45064D01*
X119582Y-45045D01*
X119925Y-45045D01*
X120096Y-45011D01*
X120096Y-45011D01*
X120241Y-44914D01*
X120587Y-44567D01*
X120587Y-44567D01*
X120684Y-44422D01*
X120718Y-44251D01*
X120718Y-44251D01*
X120718Y-43173D01*
X120684Y-43002D01*
X120684Y-43002D01*
X120587Y-42857D01*
X119686Y-41955D01*
X119541Y-41858D01*
X119370Y-41824D01*
X113921Y-41824D01*
X113750Y-41858D01*
X113605Y-41955D01*
X113605Y-41955D01*
X113605Y-41955D01*
X104113Y-51447D01*
X104016Y-51592D01*
X103982Y-51763D01*
X104016Y-51934D01*
X104113Y-52079D01*
X104258Y-52176D01*
X104429Y-52210D01*
X104600Y-52176D01*
X104745Y-52079D01*
X114106Y-42718D01*
X119184Y-42718D01*
X119824Y-43358D01*
X119824Y-44066D01*
X119740Y-44151D01*
X119583Y-44151D01*
X119563Y-44132D01*
X119482Y-44098D01*
X119563Y-44064D01*
X119717Y-43910D01*
X119801Y-43708D01*
X119802Y-43489D01*
X119718Y-43287D01*
X119563Y-43132D01*
X119361Y-43048D01*
X119143Y-43048D01*
X118940Y-43131D01*
X118785Y-43286D01*
X118751Y-43368D01*
X118718Y-43287D01*
X118563Y-43132D01*
X118361Y-43048D01*
X118143Y-43048D01*
X117940Y-43131D01*
X117785Y-43286D01*
X117702Y-43488D01*
X117701Y-43707D01*
X117785Y-43909D01*
X117940Y-44064D01*
X118021Y-44098D01*
X117940Y-44131D01*
X117785Y-44286D01*
X117702Y-44488D01*
X117701Y-44707D01*
X117785Y-44909D01*
X117940Y-45064D01*
X118021Y-45098D01*
X117940Y-45131D01*
X117921Y-45151D01*
X114366Y-45151D01*
X114195Y-45185D01*
X114050Y-45282D01*
X109861Y-49471D01*
X109764Y-49616D01*
X109730Y-49787D01*
X109730Y-52779D01*
X109764Y-52950D01*
X109861Y-53095D01*
X111833Y-55067D01*
X111833Y-55067D01*
X111978Y-55164D01*
X112149Y-55198D01*
X112149Y-55198D01*
X126122Y-55198D01*
X126293Y-55164D01*
X126293Y-55164D01*
X126438Y-55067D01*
X128231Y-53274D01*
X128258Y-53274D01*
X128460Y-53190D01*
X128615Y-53036D01*
X128699Y-52834D01*
X128699Y-52615D01*
X128699Y-53003D01*
X121580Y-60121D01*
X121580Y-56208D01*
X121546Y-56037D01*
X121449Y-55892D01*
X121304Y-55795D01*
X121133Y-55761D01*
X120962Y-55795D01*
X120817Y-55892D01*
X119933Y-56777D01*
X112498Y-56777D01*
X112498Y-55950D01*
X112415Y-55747D01*
X112260Y-55593D01*
X112058Y-55509D01*
X111839Y-55508D01*
X111637Y-55592D01*
X111482Y-55747D01*
X111398Y-55949D01*
X111398Y-56167D01*
X111482Y-56370D01*
X111636Y-56525D01*
X111838Y-56608D01*
X112057Y-56609D01*
X112259Y-56525D01*
X112414Y-56371D01*
X112498Y-56168D01*
X112498Y-55950D01*
X112498Y-56777D01*
X111311Y-56777D01*
X110461Y-55928D01*
X110316Y-55831D01*
X110145Y-55797D01*
X108100Y-55797D01*
X108047Y-55743D01*
X108207Y-55584D01*
X108299Y-55363D01*
X108299Y-55125D01*
X108208Y-54904D01*
X108039Y-54735D01*
X107819Y-54644D01*
X107580Y-54643D01*
X107359Y-54735D01*
X107190Y-54903D01*
X107099Y-55124D01*
X107099Y-55362D01*
X107190Y-55583D01*
X107350Y-55744D01*
X107297Y-55797D01*
X103822Y-55797D01*
X103651Y-55831D01*
X103506Y-55928D01*
X102174Y-57260D01*
X102174Y-38463D01*
X102083Y-38243D01*
X101923Y-38082D01*
X102083Y-37922D01*
X102174Y-37702D01*
X102174Y-37463D01*
X102083Y-37243D01*
X101915Y-37074D01*
X101694Y-36982D01*
X101455Y-36982D01*
X101235Y-37073D01*
X101066Y-37242D01*
X100974Y-37462D01*
X100974Y-37701D01*
X101065Y-37922D01*
X101226Y-38082D01*
X101066Y-38242D01*
X100974Y-38462D01*
X100974Y-38701D01*
X101065Y-38922D01*
X101140Y-38996D01*
X101083Y-39020D01*
X101012Y-39090D01*
X100974Y-39182D01*
X100974Y-39282D01*
X100974Y-39470D01*
X101037Y-39532D01*
X101524Y-39532D01*
X101524Y-39524D01*
X101624Y-39524D01*
X101624Y-39532D01*
X102112Y-39532D01*
X102174Y-39470D01*
X102174Y-39282D01*
X102174Y-39182D01*
X102136Y-39090D01*
X102066Y-39020D01*
X102009Y-38996D01*
X102083Y-38922D01*
X102174Y-38702D01*
X102174Y-38463D01*
X102174Y-57260D01*
X102174Y-57260D01*
X102174Y-39883D01*
X102174Y-39695D01*
X102112Y-39632D01*
X101624Y-39632D01*
X101624Y-40120D01*
X101687Y-40182D01*
X101974Y-40182D01*
X102066Y-40144D01*
X102136Y-40074D01*
X102174Y-39982D01*
X102174Y-39883D01*
X102174Y-57260D01*
X101524Y-57910D01*
X101524Y-40120D01*
X101524Y-39632D01*
X101037Y-39632D01*
X100974Y-39695D01*
X100974Y-39883D01*
X100974Y-39982D01*
X101012Y-40074D01*
X101083Y-40144D01*
X101175Y-40182D01*
X101462Y-40182D01*
X101524Y-40120D01*
X101524Y-57910D01*
X99164Y-60270D01*
X99067Y-60415D01*
X99033Y-60586D01*
X99033Y-61838D01*
X98976Y-61923D01*
X98935Y-62132D01*
X98935Y-62434D01*
X98976Y-62643D01*
X99094Y-62820D01*
X99271Y-62938D01*
X99480Y-62979D01*
X99688Y-62938D01*
X99865Y-62820D01*
X99984Y-62643D01*
X100025Y-62434D01*
X100025Y-62132D01*
X99984Y-61923D01*
X99927Y-61838D01*
X99927Y-60771D01*
X104007Y-56690D01*
X107198Y-56690D01*
X107137Y-56752D01*
X107099Y-56844D01*
X107099Y-56943D01*
X107099Y-57131D01*
X107161Y-57194D01*
X107649Y-57194D01*
X107649Y-57186D01*
X107749Y-57186D01*
X107749Y-57194D01*
X108236Y-57194D01*
X108299Y-57131D01*
X108299Y-56943D01*
X108299Y-56844D01*
X108261Y-56752D01*
X108199Y-56690D01*
X109960Y-56690D01*
X110810Y-57540D01*
X110810Y-57540D01*
X110954Y-57637D01*
X111125Y-57671D01*
X111125Y-57671D01*
X120118Y-57671D01*
X120289Y-57637D01*
X120289Y-57637D01*
X120434Y-57540D01*
X121449Y-56524D01*
X121546Y-56379D01*
X121580Y-56208D01*
X121580Y-60121D01*
X120967Y-60735D01*
X120870Y-60880D01*
X120836Y-61051D01*
X120836Y-61648D01*
X120776Y-61708D01*
X120738Y-61800D01*
X120738Y-61899D01*
X120738Y-62766D01*
X120776Y-62857D01*
X120846Y-62928D01*
X120938Y-62966D01*
X121037Y-62966D01*
X121628Y-62966D01*
X121720Y-62928D01*
X121790Y-62858D01*
X121828Y-62766D01*
X121828Y-62667D01*
X121828Y-61800D01*
X121790Y-61708D01*
X121730Y-61648D01*
X121730Y-61236D01*
X129571Y-53394D01*
X129571Y-53394D01*
X129668Y-53249D01*
X129702Y-53078D01*
X129702Y-53078D01*
X129702Y-61797D01*
X129669Y-61746D01*
X129492Y-61628D01*
X129283Y-61587D01*
X129074Y-61628D01*
X128897Y-61746D01*
X128779Y-61923D01*
X128738Y-62132D01*
X128738Y-62434D01*
X128779Y-62643D01*
X128836Y-62728D01*
X128836Y-62854D01*
X128699Y-62991D01*
X128699Y-56615D01*
X128616Y-56413D01*
X128461Y-56258D01*
X128259Y-56174D01*
X128040Y-56174D01*
X127838Y-56257D01*
X127683Y-56412D01*
X127599Y-56614D01*
X127599Y-56833D01*
X127683Y-57035D01*
X127837Y-57190D01*
X128039Y-57274D01*
X128258Y-57274D01*
X128460Y-57190D01*
X128615Y-57036D01*
X128699Y-56834D01*
X128699Y-56615D01*
X128699Y-62991D01*
X128161Y-63529D01*
X127828Y-63529D01*
X127828Y-62434D01*
X127828Y-62132D01*
X127787Y-61923D01*
X127669Y-61746D01*
X127492Y-61628D01*
X127283Y-61587D01*
X127074Y-61628D01*
X126897Y-61746D01*
X126779Y-61923D01*
X126738Y-62132D01*
X126738Y-62434D01*
X126779Y-62643D01*
X126897Y-62820D01*
X127074Y-62938D01*
X127283Y-62979D01*
X127492Y-62938D01*
X127669Y-62820D01*
X127787Y-62643D01*
X127828Y-62434D01*
X127828Y-63529D01*
X125828Y-63529D01*
X125828Y-62434D01*
X125828Y-62132D01*
X125787Y-61923D01*
X125669Y-61746D01*
X125492Y-61628D01*
X125283Y-61587D01*
X125074Y-61628D01*
X124897Y-61746D01*
X124779Y-61923D01*
X124738Y-62132D01*
X124738Y-62434D01*
X124779Y-62643D01*
X124897Y-62820D01*
X125074Y-62938D01*
X125283Y-62979D01*
X125492Y-62938D01*
X125669Y-62820D01*
X125787Y-62643D01*
X125828Y-62434D01*
X125828Y-63529D01*
X123828Y-63529D01*
X123828Y-62434D01*
X123828Y-62132D01*
X123787Y-61923D01*
X123669Y-61746D01*
X123492Y-61628D01*
X123283Y-61587D01*
X123074Y-61628D01*
X122897Y-61746D01*
X122779Y-61923D01*
X122738Y-62132D01*
X122738Y-62434D01*
X122779Y-62643D01*
X122897Y-62820D01*
X123074Y-62938D01*
X123283Y-62979D01*
X123492Y-62938D01*
X123669Y-62820D01*
X123787Y-62643D01*
X123828Y-62434D01*
X123828Y-63529D01*
X119488Y-63529D01*
X119317Y-63563D01*
X119172Y-63660D01*
X119075Y-63805D01*
X119041Y-63976D01*
X119075Y-64147D01*
X119172Y-64292D01*
X119317Y-64389D01*
X119488Y-64423D01*
X128346Y-64423D01*
X128517Y-64389D01*
X128517Y-64389D01*
X128662Y-64292D01*
X129599Y-63355D01*
X129696Y-63210D01*
X129696Y-63210D01*
X129730Y-63039D01*
X129730Y-62728D01*
X129787Y-62643D01*
X129828Y-62434D01*
X129828Y-65498D01*
X122887Y-65498D01*
X122887Y-64960D01*
X122853Y-64789D01*
X122756Y-64644D01*
X122611Y-64547D01*
X122440Y-64513D01*
X119488Y-64513D01*
X119317Y-64547D01*
X119172Y-64644D01*
X119075Y-64789D01*
X119041Y-64960D01*
X119075Y-65131D01*
X119172Y-65276D01*
X119317Y-65373D01*
X119488Y-65407D01*
X122440Y-65407D01*
X122611Y-65373D01*
X122756Y-65276D01*
X122853Y-65131D01*
X122887Y-64960D01*
X122887Y-65498D01*
X108299Y-65498D01*
X108299Y-57544D01*
X108299Y-57356D01*
X108236Y-57294D01*
X107749Y-57294D01*
X107749Y-57781D01*
X107811Y-57844D01*
X108098Y-57844D01*
X108190Y-57806D01*
X108261Y-57735D01*
X108299Y-57644D01*
X108299Y-57544D01*
X108299Y-65498D01*
X107649Y-65498D01*
X107649Y-57781D01*
X107649Y-57294D01*
X107161Y-57294D01*
X107099Y-57356D01*
X107099Y-57544D01*
X107099Y-57644D01*
X107137Y-57735D01*
X107207Y-57806D01*
X107299Y-57844D01*
X107586Y-57844D01*
X107649Y-57781D01*
X107649Y-65498D01*
X104769Y-65498D01*
X104769Y-60169D01*
X104735Y-59998D01*
X104726Y-59984D01*
X104726Y-57594D01*
X104692Y-57423D01*
X104595Y-57278D01*
X104450Y-57181D01*
X104279Y-57147D01*
X104108Y-57181D01*
X103963Y-57278D01*
X103866Y-57423D01*
X103832Y-57594D01*
X103832Y-60125D01*
X103866Y-60296D01*
X103963Y-60441D01*
X104006Y-60485D01*
X104151Y-60582D01*
X104322Y-60616D01*
X104493Y-60582D01*
X104638Y-60485D01*
X104735Y-60340D01*
X104769Y-60169D01*
X104769Y-65498D01*
X104318Y-65498D01*
X103927Y-65106D01*
X103927Y-62728D01*
X103984Y-62643D01*
X104025Y-62434D01*
X104025Y-62132D01*
X103984Y-61923D01*
X103865Y-61746D01*
X103688Y-61628D01*
X103480Y-61587D01*
X103271Y-61628D01*
X103094Y-61746D01*
X102976Y-61923D01*
X102935Y-62132D01*
X102935Y-62434D01*
X102976Y-62643D01*
X103033Y-62728D01*
X103033Y-65035D01*
X102570Y-65498D01*
X102025Y-65498D01*
X102025Y-62434D01*
X102025Y-62132D01*
X101984Y-61923D01*
X101865Y-61746D01*
X101688Y-61628D01*
X101480Y-61587D01*
X101271Y-61628D01*
X101094Y-61746D01*
X100976Y-61923D01*
X100935Y-62132D01*
X100935Y-62434D01*
X100976Y-62643D01*
X101094Y-62820D01*
X101271Y-62938D01*
X101480Y-62979D01*
X101688Y-62938D01*
X101865Y-62820D01*
X101984Y-62643D01*
X102025Y-62434D01*
X102025Y-65498D01*
X98581Y-65498D01*
X98581Y-41458D01*
X98581Y-37458D01*
X98498Y-37255D01*
X98343Y-37100D01*
X98141Y-37017D01*
X97922Y-37016D01*
X97720Y-37100D01*
X97565Y-37254D01*
X97481Y-37457D01*
X97481Y-37675D01*
X97564Y-37878D01*
X97719Y-38032D01*
X97921Y-38116D01*
X98140Y-38117D01*
X98342Y-38033D01*
X98497Y-37878D01*
X98581Y-37676D01*
X98581Y-37458D01*
X98581Y-41458D01*
X98498Y-41255D01*
X98343Y-41100D01*
X98141Y-41017D01*
X97922Y-41016D01*
X97720Y-41100D01*
X97700Y-41120D01*
X81783Y-41120D01*
X81612Y-41154D01*
X81467Y-41250D01*
X80728Y-41990D01*
X39379Y-41990D01*
X39379Y-38463D01*
X39288Y-38243D01*
X39128Y-38082D01*
X39287Y-37922D01*
X39379Y-37702D01*
X39379Y-37463D01*
X39288Y-37243D01*
X39119Y-37074D01*
X38899Y-36982D01*
X38660Y-36982D01*
X38440Y-37073D01*
X38271Y-37242D01*
X38179Y-37462D01*
X38179Y-37701D01*
X38270Y-37922D01*
X38430Y-38082D01*
X38271Y-38242D01*
X38179Y-38462D01*
X38179Y-38701D01*
X38270Y-38922D01*
X38345Y-38996D01*
X38288Y-39020D01*
X38217Y-39090D01*
X38179Y-39182D01*
X38179Y-39282D01*
X38179Y-39470D01*
X38242Y-39532D01*
X38729Y-39532D01*
X38729Y-39524D01*
X38829Y-39524D01*
X38829Y-39532D01*
X39317Y-39532D01*
X39379Y-39470D01*
X39379Y-39282D01*
X39379Y-39182D01*
X39341Y-39090D01*
X39270Y-39020D01*
X39213Y-38996D01*
X39287Y-38922D01*
X39379Y-38702D01*
X39379Y-38463D01*
X39379Y-41990D01*
X39379Y-41990D01*
X39379Y-39883D01*
X39379Y-39695D01*
X39317Y-39632D01*
X38829Y-39632D01*
X38829Y-40120D01*
X38892Y-40182D01*
X39179Y-40182D01*
X39270Y-40144D01*
X39341Y-40074D01*
X39379Y-39982D01*
X39379Y-39883D01*
X39379Y-41990D01*
X38729Y-41990D01*
X38729Y-40120D01*
X38729Y-39632D01*
X38242Y-39632D01*
X38179Y-39695D01*
X38179Y-39883D01*
X38179Y-39982D01*
X38217Y-40074D01*
X38288Y-40144D01*
X38380Y-40182D01*
X38667Y-40182D01*
X38729Y-40120D01*
X38729Y-41990D01*
X35787Y-41990D01*
X35899Y-41878D01*
X35982Y-41676D01*
X35983Y-41458D01*
X35983Y-37458D01*
X35899Y-37255D01*
X35745Y-37100D01*
X35542Y-37017D01*
X35324Y-37016D01*
X35121Y-37100D01*
X34967Y-37254D01*
X34883Y-37457D01*
X34882Y-37675D01*
X34966Y-37878D01*
X35121Y-38032D01*
X35323Y-38116D01*
X35541Y-38117D01*
X35744Y-38033D01*
X35899Y-37878D01*
X35982Y-37676D01*
X35983Y-37458D01*
X35983Y-41458D01*
X35899Y-41255D01*
X35745Y-41100D01*
X35542Y-41017D01*
X35324Y-41016D01*
X35121Y-41100D01*
X34967Y-41254D01*
X34883Y-41457D01*
X34882Y-41675D01*
X34966Y-41878D01*
X35078Y-41990D01*
X26837Y-41990D01*
X26837Y-24004D01*
X26678Y-23618D01*
X26382Y-23322D01*
X25997Y-23162D01*
X25579Y-23162D01*
X25193Y-23321D01*
X24897Y-23617D01*
X24737Y-24002D01*
X24737Y-24420D01*
X24896Y-24806D01*
X25191Y-25102D01*
X25577Y-25262D01*
X25995Y-25262D01*
X26381Y-25103D01*
X26677Y-24808D01*
X26837Y-24422D01*
X26837Y-24004D01*
X26837Y-41990D01*
X26805Y-41990D01*
X26805Y-29640D01*
X26677Y-29331D01*
X26441Y-29094D01*
X26132Y-28966D01*
X25798Y-28966D01*
X25489Y-29094D01*
X25252Y-29330D01*
X25124Y-29639D01*
X25123Y-29973D01*
X25251Y-30282D01*
X25487Y-30519D01*
X25796Y-30647D01*
X26131Y-30647D01*
X26440Y-30520D01*
X26676Y-30283D01*
X26804Y-29975D01*
X26805Y-29640D01*
X26805Y-41990D01*
X26805Y-41990D01*
X26805Y-32447D01*
X26805Y-31167D01*
X26767Y-31075D01*
X26696Y-31004D01*
X26605Y-30966D01*
X26505Y-30966D01*
X26077Y-30966D01*
X26014Y-31029D01*
X26014Y-31757D01*
X26742Y-31757D01*
X26805Y-31694D01*
X26805Y-31167D01*
X26805Y-32447D01*
X26805Y-31919D01*
X26742Y-31857D01*
X26014Y-31857D01*
X26014Y-32585D01*
X26077Y-32647D01*
X26505Y-32647D01*
X26605Y-32647D01*
X26696Y-32609D01*
X26767Y-32539D01*
X26805Y-32447D01*
X26805Y-41990D01*
X25914Y-41990D01*
X25914Y-32585D01*
X25914Y-31857D01*
X25914Y-31757D01*
X25914Y-31029D01*
X25852Y-30966D01*
X25423Y-30966D01*
X25324Y-30966D01*
X25232Y-31004D01*
X25162Y-31075D01*
X25124Y-31167D01*
X25124Y-31694D01*
X25186Y-31757D01*
X25914Y-31757D01*
X25914Y-31857D01*
X25186Y-31857D01*
X25124Y-31919D01*
X25124Y-32447D01*
X25162Y-32539D01*
X25232Y-32609D01*
X25324Y-32647D01*
X25423Y-32647D01*
X25852Y-32647D01*
X25914Y-32585D01*
X25914Y-41990D01*
X25169Y-41990D01*
X24998Y-42024D01*
X24853Y-42121D01*
X24117Y-42857D01*
X24020Y-43002D01*
X23986Y-43173D01*
X23986Y-50098D01*
X24020Y-50269D01*
X24117Y-50414D01*
X24613Y-50910D01*
X24758Y-51007D01*
X24758Y-51007D01*
X24929Y-51041D01*
X25358Y-51041D01*
X25378Y-51090D01*
X25448Y-51160D01*
X25540Y-51198D01*
X25640Y-51198D01*
X26348Y-51198D01*
X26440Y-51160D01*
X26511Y-51090D01*
X26549Y-50998D01*
X26549Y-50899D01*
X26549Y-50190D01*
X26511Y-50098D01*
X26453Y-50041D01*
X29397Y-50041D01*
X29568Y-50007D01*
X29568Y-50007D01*
X29713Y-49910D01*
X35737Y-43886D01*
X35834Y-43741D01*
X35868Y-43570D01*
X35847Y-43466D01*
X37598Y-43466D01*
X38868Y-44736D01*
X38868Y-51763D01*
X38902Y-51934D01*
X38998Y-52079D01*
X42333Y-55414D01*
X42333Y-55414D01*
X42478Y-55511D01*
X42649Y-55545D01*
X42649Y-55545D01*
X51901Y-55545D01*
X52072Y-55511D01*
X52072Y-55511D01*
X52217Y-55414D01*
X53997Y-53634D01*
X54093Y-53489D01*
X54127Y-53318D01*
X54127Y-52390D01*
X54147Y-52371D01*
X54231Y-52168D01*
X54231Y-51950D01*
X54147Y-51747D01*
X53993Y-51593D01*
X53790Y-51509D01*
X53572Y-51508D01*
X53369Y-51592D01*
X53215Y-51747D01*
X53131Y-51949D01*
X53131Y-52167D01*
X53214Y-52370D01*
X53234Y-52389D01*
X53234Y-53133D01*
X51716Y-54651D01*
X47395Y-54651D01*
X47395Y-52263D01*
X47395Y-43405D01*
X47361Y-43234D01*
X47264Y-43089D01*
X47119Y-42992D01*
X46948Y-42958D01*
X46777Y-42992D01*
X46632Y-43089D01*
X46535Y-43234D01*
X46501Y-43405D01*
X46501Y-52078D01*
X46435Y-52144D01*
X46339Y-52289D01*
X46305Y-52460D01*
X46339Y-52631D01*
X46435Y-52776D01*
X46580Y-52873D01*
X46751Y-52907D01*
X46922Y-52873D01*
X47067Y-52776D01*
X47264Y-52579D01*
X47264Y-52579D01*
X47361Y-52434D01*
X47395Y-52263D01*
X47395Y-52263D01*
X47395Y-54651D01*
X42834Y-54651D01*
X39761Y-51578D01*
X39761Y-44551D01*
X39761Y-44551D01*
X39727Y-44380D01*
X39630Y-44235D01*
X39630Y-44235D01*
X38279Y-42883D01*
X44667Y-42883D01*
X44565Y-42951D01*
X44469Y-43096D01*
X44435Y-43267D01*
X44435Y-52460D01*
X44469Y-52631D01*
X44565Y-52776D01*
X44710Y-52873D01*
X44881Y-52907D01*
X45052Y-52873D01*
X45197Y-52776D01*
X45294Y-52631D01*
X45328Y-52460D01*
X45328Y-43267D01*
X45294Y-43096D01*
X45197Y-42951D01*
X45096Y-42883D01*
X65372Y-42883D01*
X65335Y-42939D01*
X65301Y-43110D01*
X65301Y-46653D01*
X65301Y-50590D01*
X65301Y-51968D01*
X65335Y-52139D01*
X65432Y-52284D01*
X65577Y-52381D01*
X65748Y-52415D01*
X65919Y-52381D01*
X66064Y-52284D01*
X66160Y-52139D01*
X66194Y-51968D01*
X66194Y-50590D01*
X66194Y-46653D01*
X66194Y-43110D01*
X66160Y-42939D01*
X66123Y-42883D01*
X73836Y-42883D01*
X73799Y-42939D01*
X73765Y-43110D01*
X73765Y-50000D01*
X73765Y-51574D01*
X73765Y-51968D01*
X73799Y-52139D01*
X73896Y-52284D01*
X74041Y-52381D01*
X74212Y-52415D01*
X74383Y-52381D01*
X74528Y-52284D01*
X74625Y-52139D01*
X74659Y-51968D01*
X74659Y-51574D01*
X74659Y-50000D01*
X74659Y-43110D01*
X74625Y-42939D01*
X74588Y-42883D01*
X80913Y-42883D01*
X81084Y-42849D01*
X81084Y-42849D01*
X81229Y-42752D01*
X81968Y-42013D01*
X87714Y-42013D01*
X87577Y-42105D01*
X87480Y-42250D01*
X87446Y-42421D01*
X87480Y-42592D01*
X87577Y-42737D01*
X96928Y-52087D01*
X97073Y-52184D01*
X97073Y-52184D01*
X97244Y-52218D01*
X97342Y-52218D01*
X97513Y-52184D01*
X97658Y-52087D01*
X97755Y-51942D01*
X97789Y-51771D01*
X97755Y-51600D01*
X97658Y-51455D01*
X97513Y-51358D01*
X97450Y-51346D01*
X88209Y-42105D01*
X88072Y-42013D01*
X97700Y-42013D01*
X97719Y-42032D01*
X97921Y-42116D01*
X98140Y-42117D01*
X98342Y-42033D01*
X98497Y-41878D01*
X98581Y-41676D01*
X98581Y-41458D01*
X98581Y-65498D01*
X98025Y-65498D01*
X98025Y-62434D01*
X98025Y-62132D01*
X97984Y-61923D01*
X97865Y-61746D01*
X97688Y-61628D01*
X97480Y-61587D01*
X97271Y-61628D01*
X97094Y-61746D01*
X96976Y-61923D01*
X96935Y-62132D01*
X96935Y-62434D01*
X96976Y-62643D01*
X97094Y-62820D01*
X97271Y-62938D01*
X97480Y-62979D01*
X97688Y-62938D01*
X97865Y-62820D01*
X97984Y-62643D01*
X98025Y-62434D01*
X98025Y-65498D01*
X96411Y-65498D01*
X96411Y-51771D01*
X96377Y-51600D01*
X96280Y-51455D01*
X96135Y-51358D01*
X96072Y-51346D01*
X87028Y-42302D01*
X86883Y-42205D01*
X86712Y-42171D01*
X86541Y-42205D01*
X86396Y-42302D01*
X86299Y-42447D01*
X86265Y-42618D01*
X86299Y-42789D01*
X86396Y-42934D01*
X95550Y-52087D01*
X95695Y-52184D01*
X95866Y-52218D01*
X95964Y-52218D01*
X96135Y-52184D01*
X96280Y-52087D01*
X96377Y-51942D01*
X96411Y-51771D01*
X96411Y-65498D01*
X96025Y-65498D01*
X96025Y-62434D01*
X96025Y-62132D01*
X95984Y-61923D01*
X95865Y-61746D01*
X95688Y-61628D01*
X95480Y-61587D01*
X95368Y-61609D01*
X95368Y-54637D01*
X95150Y-54111D01*
X94748Y-53708D01*
X94222Y-53490D01*
X93653Y-53489D01*
X93127Y-53707D01*
X92724Y-54109D01*
X92506Y-54635D01*
X92505Y-55204D01*
X92723Y-55730D01*
X93125Y-56133D01*
X93651Y-56352D01*
X94220Y-56352D01*
X94746Y-56135D01*
X95149Y-55732D01*
X95367Y-55207D01*
X95368Y-54637D01*
X95368Y-61609D01*
X95271Y-61628D01*
X95094Y-61746D01*
X94976Y-61923D01*
X94935Y-62132D01*
X94935Y-62434D01*
X94976Y-62643D01*
X95094Y-62820D01*
X95271Y-62938D01*
X95480Y-62979D01*
X95688Y-62938D01*
X95865Y-62820D01*
X95984Y-62643D01*
X96025Y-62434D01*
X96025Y-65498D01*
X94935Y-65498D01*
X94935Y-63976D01*
X94901Y-63805D01*
X94804Y-63660D01*
X94659Y-63563D01*
X94488Y-63529D01*
X94025Y-63529D01*
X94025Y-62434D01*
X94025Y-62132D01*
X93984Y-61923D01*
X93865Y-61746D01*
X93688Y-61628D01*
X93480Y-61587D01*
X93271Y-61628D01*
X93094Y-61746D01*
X92976Y-61923D01*
X92935Y-62132D01*
X92935Y-62434D01*
X92976Y-62643D01*
X93094Y-62820D01*
X93271Y-62938D01*
X93480Y-62979D01*
X93688Y-62938D01*
X93865Y-62820D01*
X93984Y-62643D01*
X94025Y-62434D01*
X94025Y-63529D01*
X92025Y-63529D01*
X92025Y-62667D01*
X92025Y-61800D01*
X91987Y-61708D01*
X91917Y-61638D01*
X91825Y-61600D01*
X91726Y-61600D01*
X91135Y-61600D01*
X91043Y-61638D01*
X90973Y-61708D01*
X90935Y-61800D01*
X90934Y-61899D01*
X90934Y-62766D01*
X90972Y-62857D01*
X91043Y-62928D01*
X91135Y-62966D01*
X91234Y-62966D01*
X91825Y-62966D01*
X91917Y-62928D01*
X91987Y-62858D01*
X92025Y-62766D01*
X92025Y-62667D01*
X92025Y-63529D01*
X89960Y-63529D01*
X89789Y-63563D01*
X89644Y-63660D01*
X89547Y-63805D01*
X89513Y-63976D01*
X89547Y-64147D01*
X89644Y-64292D01*
X89789Y-64389D01*
X89960Y-64423D01*
X94488Y-64423D01*
X94659Y-64389D01*
X94804Y-64292D01*
X94901Y-64147D01*
X94935Y-63976D01*
X94935Y-65498D01*
X93360Y-65498D01*
X93360Y-64960D01*
X93326Y-64789D01*
X93229Y-64644D01*
X93084Y-64547D01*
X92913Y-64513D01*
X89960Y-64513D01*
X89789Y-64547D01*
X89644Y-64644D01*
X89547Y-64789D01*
X89513Y-64960D01*
X89547Y-65131D01*
X89644Y-65276D01*
X89789Y-65373D01*
X89960Y-65407D01*
X92913Y-65407D01*
X93084Y-65373D01*
X93229Y-65276D01*
X93326Y-65131D01*
X93360Y-64960D01*
X93360Y-65498D01*
X84206Y-65498D01*
X84206Y-52066D01*
X84206Y-46791D01*
X84187Y-46692D01*
X84187Y-46692D01*
X84187Y-44251D01*
X84187Y-42677D01*
X84152Y-42506D01*
X84056Y-42361D01*
X83911Y-42264D01*
X83740Y-42230D01*
X83569Y-42264D01*
X83424Y-42361D01*
X83327Y-42506D01*
X83293Y-42677D01*
X83293Y-44251D01*
X83293Y-46771D01*
X83312Y-46870D01*
X83312Y-52066D01*
X83347Y-52237D01*
X83443Y-52382D01*
X83588Y-52479D01*
X83759Y-52513D01*
X83930Y-52479D01*
X84075Y-52382D01*
X84172Y-52237D01*
X84206Y-52066D01*
X84206Y-65498D01*
X74791Y-65498D01*
X74163Y-64870D01*
X74163Y-64866D01*
X74163Y-64763D01*
X74163Y-62728D01*
X74220Y-62643D01*
X74261Y-62434D01*
X74261Y-62132D01*
X74220Y-61923D01*
X74102Y-61746D01*
X73925Y-61628D01*
X73716Y-61587D01*
X73507Y-61628D01*
X73330Y-61746D01*
X73212Y-61923D01*
X73171Y-62132D01*
X73171Y-62434D01*
X73212Y-62643D01*
X73269Y-62728D01*
X73269Y-64681D01*
X72452Y-65498D01*
X72261Y-65498D01*
X72261Y-62434D01*
X72261Y-62132D01*
X72220Y-61923D01*
X72102Y-61746D01*
X71943Y-61640D01*
X71943Y-54637D01*
X71725Y-54111D01*
X71323Y-53708D01*
X70797Y-53490D01*
X70228Y-53489D01*
X69702Y-53707D01*
X69299Y-54109D01*
X69080Y-54635D01*
X69080Y-55204D01*
X69297Y-55730D01*
X69700Y-56133D01*
X70225Y-56352D01*
X70795Y-56352D01*
X71321Y-56135D01*
X71724Y-55732D01*
X71942Y-55207D01*
X71943Y-54637D01*
X71943Y-61640D01*
X71925Y-61628D01*
X71716Y-61587D01*
X71507Y-61628D01*
X71330Y-61746D01*
X71212Y-61923D01*
X71171Y-62132D01*
X71171Y-62434D01*
X71212Y-62643D01*
X71330Y-62820D01*
X71507Y-62938D01*
X71716Y-62979D01*
X71925Y-62938D01*
X72102Y-62820D01*
X72220Y-62643D01*
X72261Y-62434D01*
X72261Y-65498D01*
X70261Y-65498D01*
X70261Y-62434D01*
X70261Y-62132D01*
X70220Y-61923D01*
X70102Y-61746D01*
X69925Y-61628D01*
X69716Y-61587D01*
X69507Y-61628D01*
X69330Y-61746D01*
X69212Y-61923D01*
X69171Y-62132D01*
X69171Y-62434D01*
X69212Y-62643D01*
X69330Y-62820D01*
X69507Y-62938D01*
X69716Y-62979D01*
X69925Y-62938D01*
X70102Y-62820D01*
X70220Y-62643D01*
X70261Y-62434D01*
X70261Y-65498D01*
X68261Y-65498D01*
X68261Y-62434D01*
X68261Y-62132D01*
X68220Y-61923D01*
X68102Y-61746D01*
X67925Y-61628D01*
X67716Y-61587D01*
X67507Y-61628D01*
X67330Y-61746D01*
X67212Y-61923D01*
X67171Y-62132D01*
X67171Y-62434D01*
X67212Y-62643D01*
X67330Y-62820D01*
X67507Y-62938D01*
X67716Y-62979D01*
X67925Y-62938D01*
X68102Y-62820D01*
X68220Y-62643D01*
X68261Y-62434D01*
X68261Y-65498D01*
X66261Y-65498D01*
X66261Y-62434D01*
X66261Y-62132D01*
X66220Y-61923D01*
X66102Y-61746D01*
X65925Y-61628D01*
X65716Y-61587D01*
X65507Y-61628D01*
X65330Y-61746D01*
X65212Y-61923D01*
X65171Y-62132D01*
X65171Y-62434D01*
X65212Y-62643D01*
X65330Y-62820D01*
X65507Y-62938D01*
X65716Y-62979D01*
X65925Y-62938D01*
X66102Y-62820D01*
X66220Y-62643D01*
X66261Y-62434D01*
X66261Y-65498D01*
X65998Y-65498D01*
X65998Y-63976D01*
X65964Y-63805D01*
X65867Y-63660D01*
X65722Y-63563D01*
X65551Y-63529D01*
X64261Y-63529D01*
X64261Y-62434D01*
X64261Y-62132D01*
X64220Y-61923D01*
X64102Y-61746D01*
X63925Y-61628D01*
X63716Y-61587D01*
X63662Y-61597D01*
X58003Y-55938D01*
X57989Y-55904D01*
X57828Y-55743D01*
X57988Y-55584D01*
X58080Y-55363D01*
X58080Y-55125D01*
X57989Y-54904D01*
X57820Y-54735D01*
X57600Y-54644D01*
X57361Y-54643D01*
X57140Y-54735D01*
X56971Y-54903D01*
X56880Y-55124D01*
X56880Y-55362D01*
X56971Y-55583D01*
X57131Y-55744D01*
X56971Y-55903D01*
X56880Y-56124D01*
X56880Y-56362D01*
X56971Y-56583D01*
X57046Y-56658D01*
X56988Y-56682D01*
X56918Y-56752D01*
X56880Y-56844D01*
X56880Y-56943D01*
X56880Y-57131D01*
X56942Y-57194D01*
X57430Y-57194D01*
X57430Y-57186D01*
X57530Y-57186D01*
X57530Y-57194D01*
X57538Y-57194D01*
X57538Y-57294D01*
X57530Y-57294D01*
X57530Y-57781D01*
X57592Y-57844D01*
X57879Y-57844D01*
X57971Y-57806D01*
X58042Y-57735D01*
X58080Y-57644D01*
X58080Y-57544D01*
X58080Y-57356D01*
X58017Y-57294D01*
X58080Y-57294D01*
X58080Y-57279D01*
X63171Y-62370D01*
X63171Y-62434D01*
X63212Y-62643D01*
X63330Y-62820D01*
X63507Y-62938D01*
X63716Y-62979D01*
X63925Y-62938D01*
X64102Y-62820D01*
X64220Y-62643D01*
X64261Y-62434D01*
X64261Y-63529D01*
X62261Y-63529D01*
X62261Y-62667D01*
X62261Y-61800D01*
X62223Y-61708D01*
X62153Y-61638D01*
X62061Y-61600D01*
X61962Y-61600D01*
X61371Y-61600D01*
X61279Y-61638D01*
X61209Y-61708D01*
X61171Y-61800D01*
X61171Y-61899D01*
X61171Y-62766D01*
X61209Y-62857D01*
X61279Y-62928D01*
X61371Y-62966D01*
X61470Y-62966D01*
X62061Y-62966D01*
X62153Y-62928D01*
X62223Y-62858D01*
X62261Y-62766D01*
X62261Y-62667D01*
X62261Y-63529D01*
X60236Y-63529D01*
X60065Y-63563D01*
X59920Y-63660D01*
X59823Y-63805D01*
X59789Y-63976D01*
X59823Y-64147D01*
X59920Y-64292D01*
X60065Y-64389D01*
X60236Y-64423D01*
X65551Y-64423D01*
X65722Y-64389D01*
X65867Y-64292D01*
X65964Y-64147D01*
X65998Y-63976D01*
X65998Y-65498D01*
X63438Y-65498D01*
X63438Y-64960D01*
X63404Y-64789D01*
X63308Y-64644D01*
X63163Y-64547D01*
X62992Y-64513D01*
X61023Y-64513D01*
X58080Y-64513D01*
X57677Y-64513D01*
X57506Y-64547D01*
X57430Y-64598D01*
X57430Y-57781D01*
X57430Y-57294D01*
X56942Y-57294D01*
X56880Y-57356D01*
X56880Y-57544D01*
X56880Y-57644D01*
X56918Y-57735D01*
X56988Y-57806D01*
X57080Y-57844D01*
X57367Y-57844D01*
X57430Y-57781D01*
X57430Y-64598D01*
X57361Y-64644D01*
X57264Y-64789D01*
X57230Y-64960D01*
X57264Y-65131D01*
X57361Y-65276D01*
X57506Y-65373D01*
X57677Y-65407D01*
X61023Y-65407D01*
X62992Y-65407D01*
X63163Y-65373D01*
X63308Y-65276D01*
X63404Y-65131D01*
X63438Y-64960D01*
X63438Y-65498D01*
X54231Y-65498D01*
X54231Y-55950D01*
X54147Y-55747D01*
X53993Y-55593D01*
X53790Y-55509D01*
X53572Y-55508D01*
X53369Y-55592D01*
X53215Y-55747D01*
X53131Y-55949D01*
X53131Y-56167D01*
X53214Y-56370D01*
X53369Y-56525D01*
X53571Y-56608D01*
X53790Y-56609D01*
X53992Y-56525D01*
X54147Y-56371D01*
X54231Y-56168D01*
X54231Y-55950D01*
X54231Y-65498D01*
X45066Y-65498D01*
X44379Y-64810D01*
X44379Y-62728D01*
X44436Y-62643D01*
X44478Y-62434D01*
X44478Y-62132D01*
X44436Y-61923D01*
X44318Y-61746D01*
X44141Y-61628D01*
X43933Y-61587D01*
X43724Y-61628D01*
X43547Y-61746D01*
X43429Y-61923D01*
X43387Y-62132D01*
X43387Y-62434D01*
X43429Y-62643D01*
X43486Y-62728D01*
X43486Y-64996D01*
X43520Y-65167D01*
X43617Y-65312D01*
X44565Y-66260D01*
X44565Y-66260D01*
X44710Y-66357D01*
X44881Y-66391D01*
X72637Y-66391D01*
X72808Y-66357D01*
X72808Y-66357D01*
X72953Y-66260D01*
X73622Y-65592D01*
X74290Y-66260D01*
X74290Y-66260D01*
X74435Y-66357D01*
X74606Y-66391D01*
X102755Y-66391D01*
X102926Y-66357D01*
X102926Y-66357D01*
X103071Y-66260D01*
X103444Y-65887D01*
X103817Y-66260D01*
X103817Y-66260D01*
X103962Y-66357D01*
X104133Y-66391D01*
X132086Y-66391D01*
X132257Y-66357D01*
X132257Y-66357D01*
X132402Y-66260D01*
X133599Y-65064D01*
X133696Y-64919D01*
X133696Y-64919D01*
X133730Y-64748D01*
X133730Y-62728D01*
X133787Y-62643D01*
X133828Y-62434D01*
X133828Y-62132D01*
X133787Y-61923D01*
X133669Y-61746D01*
X133492Y-61628D01*
X133300Y-61590D01*
X133300Y-57781D01*
X133300Y-57294D01*
X132812Y-57294D01*
X132750Y-57356D01*
X132750Y-57544D01*
X132750Y-57644D01*
X132788Y-57735D01*
X132858Y-57806D01*
X132950Y-57844D01*
X133237Y-57844D01*
X133300Y-57781D01*
X133300Y-61590D01*
X133283Y-61587D01*
X133229Y-61597D01*
X131415Y-59783D01*
X131415Y-57602D01*
X132326Y-56690D01*
X132850Y-56690D01*
X132788Y-56752D01*
X132750Y-56844D01*
X132750Y-56943D01*
X132750Y-57131D01*
X132812Y-57194D01*
X133300Y-57194D01*
X133300Y-57186D01*
X133400Y-57186D01*
X133400Y-57194D01*
X133887Y-57194D01*
X133950Y-57131D01*
X133950Y-56943D01*
X133950Y-56844D01*
X133912Y-56752D01*
X133841Y-56682D01*
X133784Y-56658D01*
X133858Y-56584D01*
X133950Y-56363D01*
X133950Y-56125D01*
X133950Y-71206D01*
X133950Y-71206D01*
X133950Y-57544D01*
X133950Y-57356D01*
X133887Y-57294D01*
X133400Y-57294D01*
X133400Y-57781D01*
X133462Y-57844D01*
X133749Y-57844D01*
X133841Y-57806D01*
X133912Y-57735D01*
X133950Y-57644D01*
X133950Y-57544D01*
X133950Y-71206D01*
X103412Y-71206D01*
X103412Y-69673D01*
X103252Y-69287D01*
X102957Y-68992D01*
X102571Y-68832D01*
X102154Y-68831D01*
X101768Y-68991D01*
X101472Y-69286D01*
X101312Y-69672D01*
X101312Y-70089D01*
X101471Y-70475D01*
X101766Y-70771D01*
X102152Y-70931D01*
X102570Y-70932D01*
X102956Y-70772D01*
X103251Y-70477D01*
X103412Y-70091D01*
X103412Y-69673D01*
X103412Y-71206D01*
X64042Y-71206D01*
X64042Y-69673D01*
X63882Y-69287D01*
X63587Y-68992D01*
X63201Y-68832D01*
X62784Y-68831D01*
X62398Y-68991D01*
X62102Y-69286D01*
X61942Y-69672D01*
X61941Y-70089D01*
X62101Y-70475D01*
X62396Y-70771D01*
X62782Y-70931D01*
X63200Y-70932D01*
X63586Y-70772D01*
X63881Y-70477D01*
X64041Y-70091D01*
X64042Y-69673D01*
X64042Y-71206D01*
X42478Y-71206D01*
X42478Y-62434D01*
X42478Y-62132D01*
X42436Y-61923D01*
X42318Y-61746D01*
X42141Y-61628D01*
X41933Y-61587D01*
X41724Y-61628D01*
X41547Y-61746D01*
X41429Y-61923D01*
X41387Y-62132D01*
X41387Y-62434D01*
X41429Y-62643D01*
X41547Y-62820D01*
X41724Y-62938D01*
X41933Y-62979D01*
X42141Y-62938D01*
X42318Y-62820D01*
X42436Y-62643D01*
X42478Y-62434D01*
X42478Y-71206D01*
X40478Y-71206D01*
X40478Y-62434D01*
X40478Y-62132D01*
X40436Y-61923D01*
X40318Y-61746D01*
X40141Y-61628D01*
X39933Y-61587D01*
X39724Y-61628D01*
X39547Y-61746D01*
X39429Y-61923D01*
X39387Y-62132D01*
X39387Y-62434D01*
X39429Y-62643D01*
X39547Y-62820D01*
X39724Y-62938D01*
X39933Y-62979D01*
X40141Y-62938D01*
X40318Y-62820D01*
X40436Y-62643D01*
X40478Y-62434D01*
X40478Y-71206D01*
X38478Y-71206D01*
X38478Y-62434D01*
X38478Y-62132D01*
X38436Y-61923D01*
X38318Y-61746D01*
X38141Y-61628D01*
X37933Y-61587D01*
X37724Y-61628D01*
X37547Y-61746D01*
X37429Y-61923D01*
X37387Y-62132D01*
X37387Y-62434D01*
X37429Y-62643D01*
X37547Y-62820D01*
X37724Y-62938D01*
X37933Y-62979D01*
X38141Y-62938D01*
X38318Y-62820D01*
X38436Y-62643D01*
X38478Y-62434D01*
X38478Y-71206D01*
X36478Y-71206D01*
X36478Y-62434D01*
X36478Y-62132D01*
X36436Y-61923D01*
X36318Y-61746D01*
X36141Y-61628D01*
X35933Y-61587D01*
X35724Y-61628D01*
X35547Y-61746D01*
X35429Y-61923D01*
X35387Y-62132D01*
X35387Y-62434D01*
X35429Y-62643D01*
X35547Y-62820D01*
X35724Y-62938D01*
X35933Y-62979D01*
X36141Y-62938D01*
X36318Y-62820D01*
X36436Y-62643D01*
X36478Y-62434D01*
X36478Y-71206D01*
X35359Y-71206D01*
X35359Y-56125D01*
X35268Y-55904D01*
X35108Y-55743D01*
X35268Y-55584D01*
X35359Y-55363D01*
X35359Y-55125D01*
X35268Y-54904D01*
X35100Y-54735D01*
X34879Y-54644D01*
X34641Y-54643D01*
X34420Y-54735D01*
X34251Y-54903D01*
X34159Y-55124D01*
X34159Y-55362D01*
X34250Y-55583D01*
X34411Y-55744D01*
X34358Y-55797D01*
X34196Y-55797D01*
X34025Y-55831D01*
X33880Y-55928D01*
X31617Y-58191D01*
X31520Y-58336D01*
X31486Y-58507D01*
X31486Y-61648D01*
X31425Y-61708D01*
X31387Y-61800D01*
X31387Y-61899D01*
X31387Y-62766D01*
X31425Y-62857D01*
X31495Y-62928D01*
X31587Y-62966D01*
X31687Y-62966D01*
X32277Y-62966D01*
X32369Y-62928D01*
X32440Y-62858D01*
X32478Y-62766D01*
X32478Y-62667D01*
X32478Y-61800D01*
X32440Y-61708D01*
X32379Y-61648D01*
X32379Y-58692D01*
X34159Y-56913D01*
X34159Y-56943D01*
X34159Y-57131D01*
X34222Y-57194D01*
X34709Y-57194D01*
X34709Y-57186D01*
X34809Y-57186D01*
X34809Y-57194D01*
X35297Y-57194D01*
X35359Y-57131D01*
X35359Y-56943D01*
X35359Y-56844D01*
X35321Y-56752D01*
X35251Y-56682D01*
X35194Y-56658D01*
X35268Y-56584D01*
X35359Y-56363D01*
X35359Y-56125D01*
X35359Y-71206D01*
X35359Y-71206D01*
X35359Y-57544D01*
X35359Y-57356D01*
X35297Y-57294D01*
X34809Y-57294D01*
X34809Y-57781D01*
X34872Y-57844D01*
X35159Y-57844D01*
X35251Y-57806D01*
X35321Y-57735D01*
X35359Y-57644D01*
X35359Y-57544D01*
X35359Y-71206D01*
X34709Y-71206D01*
X34709Y-57781D01*
X34709Y-57294D01*
X34222Y-57294D01*
X34159Y-57356D01*
X34159Y-57544D01*
X34159Y-57644D01*
X34198Y-57735D01*
X34268Y-57806D01*
X34360Y-57844D01*
X34647Y-57844D01*
X34709Y-57781D01*
X34709Y-71206D01*
X34478Y-71206D01*
X34478Y-62434D01*
X34478Y-62132D01*
X34436Y-61923D01*
X34318Y-61746D01*
X34141Y-61628D01*
X33933Y-61587D01*
X33724Y-61628D01*
X33547Y-61746D01*
X33429Y-61923D01*
X33387Y-62132D01*
X33387Y-62434D01*
X33429Y-62643D01*
X33547Y-62820D01*
X33724Y-62938D01*
X33933Y-62979D01*
X34141Y-62938D01*
X34318Y-62820D01*
X34436Y-62643D01*
X34478Y-62434D01*
X34478Y-71206D01*
X31302Y-71206D01*
X31302Y-55950D01*
X31302Y-51950D01*
X31218Y-51747D01*
X31063Y-51593D01*
X30861Y-51509D01*
X30643Y-51508D01*
X30440Y-51592D01*
X30285Y-51747D01*
X30202Y-51949D01*
X30201Y-52167D01*
X30285Y-52370D01*
X30440Y-52525D01*
X30642Y-52608D01*
X30860Y-52609D01*
X31063Y-52525D01*
X31217Y-52371D01*
X31301Y-52168D01*
X31302Y-51950D01*
X31302Y-55950D01*
X31218Y-55747D01*
X31063Y-55593D01*
X30861Y-55509D01*
X30643Y-55508D01*
X30440Y-55592D01*
X30285Y-55747D01*
X30202Y-55949D01*
X30201Y-56167D01*
X30285Y-56370D01*
X30440Y-56525D01*
X30642Y-56608D01*
X30860Y-56609D01*
X31063Y-56525D01*
X31217Y-56371D01*
X31301Y-56168D01*
X31302Y-55950D01*
X31302Y-71206D01*
X26345Y-71206D01*
X26345Y-69772D01*
X26185Y-69386D01*
X25890Y-69090D01*
X25505Y-68930D01*
X25087Y-68930D01*
X24701Y-69089D01*
X24405Y-69384D01*
X24245Y-69770D01*
X24245Y-70188D01*
X24404Y-70574D01*
X24699Y-70869D01*
X25085Y-71030D01*
X25503Y-71030D01*
X25889Y-70870D01*
X26184Y-70575D01*
X26345Y-70190D01*
X26345Y-69772D01*
X26345Y-71206D01*
X23950Y-71206D01*
X23950Y-22671D01*
X141305Y-22671D01*
X141305Y-42263D01*
X141294Y-42210D01*
X141197Y-42065D01*
X141197Y-42065D01*
X140813Y-41682D01*
X140813Y-24201D01*
X140654Y-23815D01*
X140359Y-23519D01*
X139973Y-23359D01*
X139555Y-23359D01*
X139169Y-23518D01*
X138874Y-23813D01*
X138713Y-24199D01*
X138713Y-24617D01*
X138873Y-25003D01*
X139168Y-25299D01*
X139554Y-25459D01*
X139971Y-25459D01*
X140357Y-25300D01*
X140653Y-25005D01*
X140813Y-24619D01*
X140813Y-24201D01*
X140813Y-41682D01*
X139895Y-40763D01*
X139895Y-29640D01*
X139768Y-29331D01*
X139531Y-29094D01*
X139223Y-28966D01*
X138888Y-28966D01*
X138579Y-29094D01*
X138342Y-29330D01*
X138214Y-29639D01*
X138214Y-29973D01*
X138342Y-30282D01*
X138578Y-30519D01*
X138887Y-30647D01*
X139221Y-30647D01*
X139530Y-30520D01*
X139767Y-30283D01*
X139895Y-29975D01*
X139895Y-29640D01*
X139895Y-40763D01*
X139895Y-40763D01*
X139895Y-32447D01*
X139895Y-31167D01*
X139857Y-31075D01*
X139787Y-31004D01*
X139695Y-30966D01*
X139596Y-30966D01*
X139167Y-30966D01*
X139105Y-31029D01*
X139105Y-31757D01*
X139833Y-31757D01*
X139895Y-31694D01*
X139895Y-31167D01*
X139895Y-32447D01*
X139895Y-31919D01*
X139833Y-31857D01*
X139105Y-31857D01*
X139105Y-32585D01*
X139167Y-32647D01*
X139596Y-32647D01*
X139695Y-32647D01*
X139787Y-32609D01*
X139857Y-32539D01*
X139895Y-32447D01*
X139895Y-40763D01*
X139005Y-39873D01*
X139005Y-32585D01*
X139005Y-31857D01*
X139005Y-31757D01*
X139005Y-31029D01*
X138942Y-30966D01*
X138514Y-30966D01*
X138414Y-30966D01*
X138322Y-31004D01*
X138252Y-31075D01*
X138214Y-31167D01*
X138214Y-31694D01*
X138277Y-31757D01*
X139005Y-31757D01*
X139005Y-31857D01*
X138277Y-31857D01*
X138214Y-31919D01*
X138214Y-32447D01*
X138252Y-32539D01*
X138322Y-32609D01*
X138414Y-32647D01*
X138514Y-32647D01*
X138942Y-32647D01*
X139005Y-32585D01*
X139005Y-39873D01*
X133828Y-34696D01*
X133828Y-32434D01*
X133828Y-32132D01*
X133787Y-31923D01*
X133669Y-31746D01*
X133492Y-31628D01*
X133283Y-31587D01*
X133074Y-31628D01*
X132897Y-31746D01*
X132779Y-31923D01*
X132738Y-32132D01*
X132738Y-32434D01*
X132779Y-32643D01*
X132897Y-32820D01*
X133074Y-32938D01*
X133283Y-32979D01*
X133492Y-32938D01*
X133669Y-32820D01*
X133787Y-32643D01*
X133828Y-32434D01*
X133828Y-34696D01*
X131782Y-32650D01*
X131787Y-32643D01*
X131828Y-32434D01*
X131828Y-32132D01*
X131787Y-31923D01*
X131669Y-31746D01*
X131492Y-31628D01*
X131283Y-31587D01*
X131074Y-31628D01*
X130897Y-31746D01*
X130779Y-31923D01*
X130738Y-32132D01*
X130738Y-32434D01*
X130779Y-32643D01*
X130836Y-32728D01*
X130836Y-32783D01*
X130870Y-32954D01*
X130967Y-33099D01*
X140435Y-42566D01*
X140435Y-49940D01*
X140228Y-50147D01*
X140173Y-50147D01*
X140153Y-50098D01*
X140082Y-50028D01*
X140029Y-50006D01*
X140098Y-49937D01*
X140190Y-49715D01*
X140191Y-49474D01*
X140099Y-49252D01*
X139941Y-49094D01*
X140098Y-48937D01*
X140190Y-48715D01*
X140191Y-48474D01*
X140099Y-48252D01*
X139941Y-48094D01*
X140098Y-47937D01*
X140190Y-47715D01*
X140191Y-47474D01*
X140099Y-47252D01*
X139941Y-47094D01*
X140098Y-46937D01*
X140190Y-46715D01*
X140191Y-46474D01*
X140099Y-46252D01*
X139941Y-46094D01*
X140098Y-45937D01*
X140190Y-45715D01*
X140191Y-45474D01*
X140099Y-45252D01*
X139941Y-45094D01*
X140098Y-44937D01*
X140190Y-44715D01*
X140191Y-44474D01*
X140099Y-44252D01*
X139941Y-44094D01*
X140098Y-43937D01*
X140190Y-43715D01*
X140191Y-43474D01*
X140099Y-43252D01*
X139929Y-43082D01*
X139707Y-42990D01*
X139466Y-42990D01*
X139244Y-43081D01*
X139074Y-43251D01*
X138982Y-43473D01*
X138982Y-43714D01*
X139073Y-43936D01*
X139231Y-44094D01*
X139074Y-44251D01*
X138982Y-44473D01*
X138982Y-44714D01*
X139073Y-44936D01*
X139231Y-45094D01*
X139074Y-45251D01*
X138982Y-45473D01*
X138982Y-45714D01*
X139073Y-45936D01*
X139231Y-46094D01*
X139178Y-46147D01*
X138972Y-46147D01*
X138450Y-45625D01*
X138450Y-43574D01*
X138523Y-43466D01*
X138557Y-43295D01*
X138523Y-43124D01*
X138426Y-42979D01*
X138281Y-42882D01*
X138110Y-42848D01*
X137939Y-42882D01*
X137794Y-42979D01*
X137687Y-43085D01*
X137591Y-43230D01*
X137557Y-43401D01*
X137557Y-45811D01*
X137591Y-45982D01*
X137687Y-46126D01*
X138471Y-46910D01*
X138471Y-46910D01*
X138616Y-47007D01*
X138787Y-47041D01*
X138787Y-47041D01*
X139178Y-47041D01*
X139231Y-47094D01*
X139074Y-47251D01*
X138982Y-47473D01*
X138982Y-47714D01*
X139073Y-47936D01*
X139231Y-48094D01*
X139178Y-48147D01*
X137968Y-48147D01*
X137112Y-47291D01*
X137112Y-41326D01*
X137078Y-41155D01*
X136981Y-41010D01*
X136981Y-41010D01*
X134237Y-38266D01*
X134092Y-38169D01*
X133921Y-38135D01*
X129929Y-38135D01*
X129876Y-38082D01*
X130035Y-37922D01*
X130127Y-37702D01*
X130127Y-37463D01*
X130036Y-37243D01*
X129867Y-37074D01*
X129647Y-36982D01*
X129408Y-36982D01*
X129188Y-37073D01*
X129019Y-37242D01*
X128927Y-37462D01*
X128927Y-37701D01*
X129018Y-37922D01*
X129179Y-38082D01*
X129019Y-38242D01*
X128927Y-38462D01*
X128927Y-38701D01*
X129018Y-38922D01*
X129093Y-38996D01*
X129036Y-39020D01*
X128965Y-39090D01*
X128927Y-39182D01*
X128927Y-39282D01*
X128927Y-39470D01*
X128990Y-39532D01*
X129477Y-39532D01*
X129477Y-39524D01*
X129577Y-39524D01*
X129577Y-39532D01*
X130065Y-39532D01*
X130127Y-39470D01*
X130127Y-39282D01*
X130127Y-39182D01*
X130089Y-39090D01*
X130027Y-39029D01*
X133736Y-39029D01*
X136218Y-41511D01*
X136218Y-47476D01*
X136252Y-47647D01*
X136349Y-47792D01*
X137467Y-48910D01*
X137467Y-48910D01*
X137612Y-49007D01*
X137783Y-49041D01*
X139178Y-49041D01*
X139231Y-49094D01*
X139178Y-49147D01*
X137480Y-49147D01*
X130127Y-41794D01*
X130127Y-39883D01*
X130127Y-39695D01*
X130065Y-39632D01*
X129577Y-39632D01*
X129577Y-40120D01*
X129640Y-40182D01*
X129927Y-40182D01*
X130018Y-40144D01*
X130089Y-40074D01*
X130127Y-39982D01*
X130127Y-39883D01*
X130127Y-41794D01*
X129477Y-41144D01*
X129477Y-40120D01*
X129477Y-39632D01*
X128990Y-39632D01*
X128927Y-39695D01*
X128927Y-39883D01*
X128927Y-39982D01*
X128965Y-40074D01*
X129036Y-40144D01*
X129128Y-40182D01*
X129415Y-40182D01*
X129477Y-40120D01*
X129477Y-41144D01*
X126438Y-38105D01*
X126464Y-38116D01*
X126683Y-38117D01*
X126885Y-38033D01*
X127040Y-37878D01*
X127124Y-37676D01*
X127124Y-37458D01*
X127041Y-37255D01*
X126886Y-37100D01*
X126684Y-37017D01*
X126465Y-37016D01*
X126263Y-37100D01*
X126108Y-37254D01*
X126024Y-37457D01*
X126024Y-37675D01*
X126036Y-37703D01*
X125828Y-37496D01*
X125828Y-32434D01*
X125828Y-32132D01*
X125787Y-31923D01*
X125669Y-31746D01*
X125492Y-31628D01*
X125283Y-31587D01*
X125074Y-31628D01*
X124897Y-31746D01*
X124779Y-31923D01*
X124738Y-32132D01*
X124738Y-32434D01*
X124779Y-32643D01*
X124897Y-32820D01*
X125074Y-32938D01*
X125283Y-32979D01*
X125492Y-32938D01*
X125669Y-32820D01*
X125787Y-32643D01*
X125828Y-32434D01*
X125828Y-37496D01*
X122245Y-33912D01*
X122100Y-33815D01*
X121929Y-33781D01*
X121730Y-33781D01*
X121730Y-32728D01*
X121787Y-32643D01*
X121828Y-32434D01*
X121828Y-32132D01*
X121787Y-31923D01*
X121669Y-31746D01*
X121492Y-31628D01*
X121283Y-31587D01*
X121074Y-31628D01*
X120897Y-31746D01*
X120779Y-31923D01*
X120738Y-32132D01*
X120738Y-32434D01*
X120779Y-32643D01*
X120836Y-32728D01*
X120836Y-34043D01*
X120484Y-34395D01*
X104025Y-34395D01*
X104025Y-32434D01*
X104025Y-32132D01*
X103984Y-31923D01*
X103865Y-31746D01*
X103688Y-31628D01*
X103480Y-31587D01*
X103271Y-31628D01*
X103094Y-31746D01*
X102976Y-31923D01*
X102935Y-32132D01*
X102935Y-32434D01*
X102976Y-32643D01*
X103094Y-32820D01*
X103271Y-32938D01*
X103480Y-32979D01*
X103688Y-32938D01*
X103865Y-32820D01*
X103984Y-32643D01*
X104025Y-32434D01*
X104025Y-34395D01*
X100279Y-34395D01*
X100315Y-34371D01*
X101796Y-32890D01*
X101796Y-32890D01*
X101796Y-32890D01*
X101825Y-32847D01*
X101825Y-32847D01*
X101865Y-32820D01*
X101984Y-32643D01*
X102025Y-32434D01*
X102025Y-32132D01*
X102015Y-32081D01*
X102547Y-31549D01*
X119685Y-31549D01*
X119856Y-31515D01*
X120001Y-31418D01*
X120097Y-31273D01*
X120131Y-31102D01*
X120097Y-30931D01*
X120001Y-30786D01*
X119856Y-30689D01*
X119685Y-30655D01*
X102362Y-30655D01*
X102191Y-30689D01*
X102046Y-30786D01*
X101164Y-31668D01*
X101125Y-31725D01*
X101094Y-31746D01*
X100976Y-31923D01*
X100935Y-32132D01*
X100935Y-32434D01*
X100943Y-32479D01*
X99814Y-33608D01*
X96025Y-33608D01*
X96025Y-32434D01*
X96025Y-32132D01*
X95984Y-31923D01*
X95865Y-31746D01*
X95688Y-31628D01*
X95480Y-31587D01*
X95271Y-31628D01*
X95094Y-31746D01*
X94976Y-31923D01*
X94935Y-32132D01*
X94935Y-32434D01*
X94976Y-32643D01*
X95094Y-32820D01*
X95271Y-32938D01*
X95480Y-32979D01*
X95688Y-32938D01*
X95865Y-32820D01*
X95984Y-32643D01*
X96025Y-32434D01*
X96025Y-33608D01*
X93700Y-33608D01*
X93529Y-33642D01*
X93384Y-33739D01*
X93287Y-33884D01*
X93253Y-34055D01*
X93287Y-34226D01*
X93384Y-34371D01*
X93421Y-34395D01*
X92114Y-34395D01*
X91927Y-34208D01*
X91927Y-32728D01*
X91984Y-32643D01*
X92025Y-32434D01*
X92025Y-32132D01*
X91984Y-31923D01*
X91865Y-31746D01*
X91688Y-31628D01*
X91480Y-31587D01*
X91271Y-31628D01*
X91094Y-31746D01*
X90976Y-31923D01*
X90935Y-32132D01*
X90935Y-32434D01*
X90976Y-32643D01*
X91033Y-32728D01*
X91033Y-34121D01*
X90759Y-34395D01*
X90042Y-34395D01*
X90079Y-34371D01*
X90176Y-34226D01*
X90210Y-34055D01*
X90176Y-33884D01*
X90079Y-33739D01*
X89934Y-33642D01*
X89763Y-33608D01*
X75393Y-33608D01*
X72232Y-33608D01*
X72163Y-33539D01*
X72163Y-32728D01*
X72220Y-32643D01*
X72261Y-32434D01*
X72261Y-32132D01*
X72220Y-31923D01*
X72102Y-31746D01*
X71925Y-31628D01*
X71922Y-31627D01*
X73510Y-31627D01*
X73507Y-31628D01*
X73330Y-31746D01*
X73212Y-31923D01*
X73171Y-32132D01*
X73171Y-32434D01*
X73212Y-32643D01*
X73330Y-32820D01*
X73507Y-32938D01*
X73716Y-32979D01*
X73925Y-32938D01*
X74102Y-32820D01*
X74162Y-32730D01*
X89763Y-32730D01*
X89934Y-32696D01*
X90079Y-32599D01*
X90176Y-32454D01*
X90210Y-32283D01*
X90176Y-32112D01*
X90079Y-31967D01*
X89934Y-31870D01*
X89763Y-31836D01*
X74162Y-31836D01*
X74102Y-31746D01*
X73925Y-31628D01*
X73922Y-31627D01*
X75984Y-31627D01*
X76155Y-31593D01*
X76155Y-31593D01*
X76300Y-31497D01*
X80054Y-27743D01*
X80151Y-27598D01*
X80185Y-27427D01*
X80185Y-27427D01*
X80185Y-27405D01*
X80238Y-27352D01*
X80395Y-27510D01*
X80617Y-27602D01*
X80857Y-27602D01*
X81080Y-27510D01*
X81238Y-27352D01*
X81395Y-27510D01*
X81617Y-27602D01*
X81857Y-27602D01*
X82080Y-27510D01*
X82238Y-27352D01*
X82291Y-27405D01*
X82291Y-28328D01*
X82325Y-28499D01*
X82422Y-28644D01*
X85156Y-31378D01*
X85301Y-31475D01*
X85301Y-31475D01*
X85472Y-31509D01*
X92074Y-31509D01*
X92935Y-32370D01*
X92935Y-32434D01*
X92976Y-32643D01*
X93094Y-32820D01*
X93271Y-32938D01*
X93480Y-32979D01*
X93688Y-32938D01*
X93865Y-32820D01*
X93984Y-32643D01*
X94025Y-32434D01*
X94025Y-32132D01*
X93984Y-31923D01*
X93865Y-31746D01*
X93688Y-31628D01*
X93480Y-31587D01*
X93426Y-31597D01*
X92575Y-30747D01*
X92480Y-30683D01*
X95917Y-30683D01*
X97033Y-31799D01*
X97033Y-31838D01*
X96976Y-31923D01*
X96935Y-32132D01*
X96935Y-32434D01*
X96976Y-32643D01*
X97094Y-32820D01*
X97271Y-32938D01*
X97480Y-32979D01*
X97688Y-32938D01*
X97865Y-32820D01*
X97984Y-32643D01*
X98025Y-32434D01*
X98025Y-32132D01*
X97984Y-31923D01*
X97927Y-31838D01*
X97927Y-31614D01*
X97893Y-31443D01*
X97796Y-31298D01*
X97796Y-31298D01*
X96511Y-30013D01*
X97373Y-30013D01*
X99033Y-31673D01*
X99033Y-31838D01*
X98976Y-31923D01*
X98935Y-32132D01*
X98935Y-32434D01*
X98976Y-32643D01*
X99094Y-32820D01*
X99271Y-32938D01*
X99480Y-32979D01*
X99688Y-32938D01*
X99865Y-32820D01*
X99984Y-32643D01*
X100025Y-32434D01*
X100025Y-32132D01*
X99984Y-31923D01*
X99927Y-31838D01*
X99927Y-31488D01*
X99893Y-31317D01*
X99893Y-31317D01*
X99796Y-31172D01*
X97929Y-29305D01*
X119673Y-29305D01*
X122738Y-32370D01*
X122738Y-32434D01*
X122779Y-32643D01*
X122897Y-32820D01*
X123074Y-32938D01*
X123283Y-32979D01*
X123492Y-32938D01*
X123669Y-32820D01*
X123787Y-32643D01*
X123828Y-32434D01*
X123828Y-32132D01*
X123787Y-31923D01*
X123669Y-31746D01*
X123492Y-31628D01*
X123283Y-31587D01*
X123229Y-31597D01*
X120174Y-28542D01*
X120137Y-28517D01*
X122885Y-28517D01*
X126738Y-32370D01*
X126738Y-32434D01*
X126779Y-32643D01*
X126897Y-32820D01*
X127074Y-32938D01*
X127283Y-32979D01*
X127492Y-32938D01*
X127669Y-32820D01*
X127787Y-32643D01*
X127828Y-32434D01*
X127828Y-32132D01*
X127787Y-31923D01*
X127669Y-31746D01*
X127492Y-31628D01*
X127283Y-31587D01*
X127229Y-31597D01*
X123386Y-27754D01*
X123241Y-27658D01*
X123070Y-27624D01*
X91248Y-27624D01*
X91185Y-27560D01*
X91185Y-27405D01*
X91238Y-27352D01*
X91395Y-27510D01*
X91617Y-27602D01*
X91857Y-27602D01*
X92080Y-27510D01*
X92238Y-27352D01*
X92395Y-27510D01*
X92617Y-27602D01*
X92857Y-27602D01*
X93080Y-27510D01*
X93238Y-27352D01*
X93395Y-27510D01*
X93617Y-27602D01*
X93857Y-27602D01*
X94080Y-27510D01*
X94250Y-27340D01*
X94342Y-27118D01*
X94342Y-26883D01*
X104173Y-26883D01*
X104276Y-26863D01*
X104363Y-26804D01*
X104422Y-26717D01*
X104442Y-26614D01*
X104422Y-26510D01*
X104363Y-26423D01*
X104276Y-26365D01*
X104212Y-26352D01*
X122720Y-26352D01*
X128738Y-32370D01*
X128738Y-32434D01*
X128779Y-32643D01*
X128897Y-32820D01*
X129074Y-32938D01*
X129283Y-32979D01*
X129492Y-32938D01*
X129669Y-32820D01*
X129787Y-32643D01*
X129828Y-32434D01*
X129828Y-32132D01*
X129787Y-31923D01*
X129669Y-31746D01*
X129492Y-31628D01*
X129283Y-31587D01*
X129229Y-31597D01*
X123221Y-25589D01*
X123076Y-25492D01*
X122905Y-25458D01*
X103412Y-25458D01*
X103412Y-23807D01*
X103252Y-23421D01*
X102957Y-23126D01*
X102571Y-22965D01*
X102154Y-22965D01*
X101768Y-23125D01*
X101472Y-23420D01*
X101312Y-23805D01*
X101312Y-24223D01*
X101471Y-24609D01*
X101766Y-24905D01*
X102152Y-25065D01*
X102570Y-25065D01*
X102956Y-24906D01*
X103251Y-24611D01*
X103412Y-24225D01*
X103412Y-23807D01*
X103412Y-25458D01*
X92283Y-25458D01*
X92112Y-25492D01*
X91967Y-25589D01*
X91422Y-26134D01*
X91325Y-26279D01*
X91291Y-26450D01*
X91291Y-26590D01*
X91238Y-26643D01*
X91080Y-26486D01*
X90858Y-26393D01*
X90618Y-26393D01*
X90396Y-26485D01*
X90238Y-26643D01*
X90080Y-26486D01*
X89858Y-26393D01*
X89618Y-26393D01*
X89396Y-26485D01*
X89238Y-26643D01*
X89080Y-26486D01*
X88858Y-26393D01*
X88618Y-26393D01*
X88396Y-26485D01*
X88238Y-26643D01*
X88080Y-26486D01*
X87858Y-26393D01*
X87618Y-26393D01*
X87396Y-26485D01*
X87238Y-26643D01*
X87080Y-26486D01*
X86858Y-26393D01*
X86618Y-26393D01*
X86396Y-26485D01*
X86238Y-26643D01*
X86080Y-26486D01*
X85858Y-26393D01*
X85618Y-26393D01*
X85396Y-26485D01*
X85238Y-26643D01*
X85080Y-26486D01*
X84858Y-26393D01*
X84618Y-26393D01*
X84396Y-26485D01*
X84238Y-26643D01*
X84080Y-26486D01*
X83858Y-26393D01*
X83618Y-26393D01*
X83396Y-26485D01*
X83238Y-26643D01*
X83080Y-26486D01*
X82858Y-26393D01*
X82618Y-26393D01*
X82396Y-26485D01*
X82238Y-26643D01*
X82080Y-26486D01*
X81858Y-26393D01*
X81618Y-26393D01*
X81396Y-26485D01*
X81238Y-26643D01*
X81080Y-26486D01*
X80858Y-26393D01*
X80618Y-26393D01*
X80396Y-26485D01*
X80238Y-26643D01*
X80080Y-26486D01*
X79858Y-26393D01*
X79618Y-26393D01*
X79396Y-26485D01*
X79238Y-26643D01*
X79080Y-26486D01*
X78858Y-26393D01*
X78618Y-26393D01*
X78396Y-26485D01*
X78238Y-26643D01*
X78080Y-26486D01*
X77858Y-26393D01*
X77618Y-26393D01*
X77396Y-26485D01*
X77238Y-26643D01*
X77080Y-26486D01*
X76858Y-26393D01*
X76618Y-26393D01*
X76396Y-26485D01*
X76238Y-26643D01*
X76080Y-26486D01*
X75858Y-26393D01*
X75618Y-26393D01*
X75396Y-26485D01*
X75238Y-26643D01*
X75080Y-26486D01*
X74858Y-26393D01*
X74618Y-26393D01*
X74396Y-26485D01*
X74238Y-26643D01*
X74080Y-26486D01*
X73858Y-26393D01*
X73618Y-26393D01*
X73396Y-26485D01*
X73238Y-26643D01*
X73080Y-26486D01*
X72858Y-26393D01*
X72618Y-26393D01*
X72396Y-26485D01*
X72238Y-26643D01*
X72080Y-26486D01*
X71858Y-26393D01*
X71618Y-26393D01*
X71396Y-26485D01*
X71326Y-26555D01*
X71304Y-26502D01*
X71234Y-26431D01*
X71142Y-26393D01*
X71043Y-26393D01*
X70334Y-26393D01*
X70242Y-26431D01*
X70172Y-26501D01*
X70151Y-26551D01*
X63813Y-26551D01*
X63813Y-24204D01*
X63655Y-23822D01*
X63363Y-23530D01*
X62982Y-23372D01*
X62570Y-23371D01*
X62188Y-23529D01*
X61896Y-23821D01*
X61738Y-24202D01*
X61738Y-24614D01*
X61895Y-24996D01*
X62187Y-25288D01*
X62568Y-25446D01*
X62981Y-25447D01*
X63362Y-25289D01*
X63654Y-24997D01*
X63812Y-24616D01*
X63813Y-24204D01*
X63813Y-26551D01*
X38356Y-26551D01*
X38185Y-26585D01*
X38040Y-26682D01*
X33617Y-31105D01*
X33520Y-31250D01*
X33486Y-31421D01*
X33486Y-31838D01*
X33429Y-31923D01*
X33387Y-32132D01*
X33387Y-32434D01*
X33429Y-32643D01*
X33547Y-32820D01*
X33724Y-32938D01*
X33933Y-32979D01*
X34141Y-32938D01*
X34318Y-32820D01*
X34436Y-32643D01*
X34478Y-32434D01*
X34478Y-32132D01*
X34436Y-31923D01*
X34379Y-31838D01*
X34379Y-31606D01*
X38541Y-27444D01*
X70151Y-27444D01*
X70171Y-27493D01*
X70242Y-27564D01*
X70333Y-27602D01*
X70433Y-27602D01*
X71142Y-27602D01*
X71233Y-27564D01*
X71304Y-27494D01*
X71326Y-27440D01*
X71395Y-27510D01*
X71617Y-27602D01*
X71857Y-27602D01*
X71968Y-27556D01*
X71783Y-27742D01*
X41220Y-27742D01*
X41049Y-27776D01*
X40904Y-27873D01*
X37617Y-31160D01*
X37520Y-31305D01*
X37486Y-31476D01*
X37486Y-31838D01*
X37429Y-31923D01*
X37387Y-32132D01*
X37387Y-32434D01*
X37429Y-32643D01*
X37547Y-32820D01*
X37724Y-32938D01*
X37933Y-32979D01*
X38141Y-32938D01*
X38318Y-32820D01*
X38436Y-32643D01*
X38478Y-32434D01*
X38478Y-32132D01*
X38436Y-31923D01*
X38379Y-31838D01*
X38379Y-31661D01*
X41405Y-28635D01*
X42267Y-28635D01*
X39617Y-31286D01*
X39520Y-31431D01*
X39486Y-31602D01*
X39486Y-31838D01*
X39429Y-31923D01*
X39387Y-32132D01*
X39387Y-32434D01*
X39429Y-32643D01*
X39547Y-32820D01*
X39724Y-32938D01*
X39933Y-32979D01*
X40141Y-32938D01*
X40318Y-32820D01*
X40436Y-32643D01*
X40478Y-32434D01*
X40478Y-32132D01*
X40436Y-31923D01*
X40379Y-31838D01*
X40379Y-31787D01*
X42822Y-29344D01*
X72519Y-29344D01*
X72690Y-29310D01*
X72690Y-29310D01*
X72835Y-29213D01*
X74054Y-27995D01*
X74054Y-27995D01*
X74151Y-27850D01*
X74185Y-27679D01*
X74185Y-27679D01*
X74185Y-27405D01*
X74238Y-27352D01*
X74395Y-27510D01*
X74617Y-27602D01*
X74857Y-27602D01*
X75080Y-27510D01*
X75238Y-27352D01*
X75395Y-27510D01*
X75617Y-27602D01*
X75857Y-27602D01*
X76062Y-27517D01*
X74224Y-29356D01*
X64685Y-29356D01*
X64514Y-29390D01*
X64369Y-29487D01*
X63400Y-30455D01*
X63303Y-30600D01*
X63269Y-30771D01*
X63269Y-31838D01*
X63242Y-31879D01*
X63242Y-31496D01*
X63208Y-31325D01*
X63111Y-31180D01*
X63111Y-31180D01*
X61930Y-29998D01*
X61785Y-29902D01*
X61614Y-29868D01*
X42716Y-29868D01*
X42545Y-29902D01*
X42400Y-29998D01*
X42400Y-29998D01*
X42400Y-29998D01*
X41617Y-30782D01*
X41520Y-30927D01*
X41486Y-31098D01*
X41486Y-31838D01*
X41429Y-31923D01*
X41387Y-32132D01*
X41387Y-32434D01*
X41429Y-32643D01*
X41547Y-32820D01*
X41724Y-32938D01*
X41933Y-32979D01*
X42141Y-32938D01*
X42318Y-32820D01*
X42436Y-32643D01*
X42478Y-32434D01*
X42478Y-32132D01*
X42436Y-31923D01*
X42379Y-31838D01*
X42379Y-31283D01*
X42901Y-30761D01*
X61429Y-30761D01*
X62348Y-31681D01*
X62348Y-33267D01*
X62382Y-33438D01*
X62479Y-33583D01*
X63266Y-34371D01*
X63303Y-34395D01*
X62586Y-34395D01*
X62163Y-33972D01*
X62163Y-32728D01*
X62220Y-32643D01*
X62261Y-32434D01*
X62261Y-32132D01*
X62220Y-31923D01*
X62102Y-31746D01*
X61925Y-31628D01*
X61716Y-31587D01*
X61507Y-31628D01*
X61330Y-31746D01*
X61212Y-31923D01*
X61171Y-32132D01*
X61171Y-32434D01*
X61212Y-32643D01*
X61269Y-32728D01*
X61269Y-33964D01*
X60838Y-34395D01*
X59501Y-34395D01*
X59501Y-33661D01*
X59467Y-33490D01*
X59371Y-33345D01*
X57993Y-31967D01*
X57848Y-31870D01*
X57677Y-31836D01*
X44378Y-31836D01*
X44318Y-31746D01*
X44141Y-31628D01*
X43933Y-31587D01*
X43724Y-31628D01*
X43547Y-31746D01*
X43429Y-31923D01*
X43387Y-32132D01*
X43387Y-32434D01*
X43429Y-32643D01*
X43547Y-32820D01*
X43724Y-32938D01*
X43933Y-32979D01*
X44141Y-32938D01*
X44318Y-32820D01*
X44378Y-32730D01*
X52625Y-32730D01*
X52624Y-32736D01*
X52644Y-32839D01*
X52703Y-32926D01*
X52790Y-32985D01*
X52893Y-33005D01*
X52913Y-33005D01*
X53016Y-32985D01*
X53104Y-32926D01*
X53162Y-32839D01*
X53183Y-32736D01*
X53181Y-32730D01*
X57492Y-32730D01*
X58739Y-33977D01*
X58884Y-34074D01*
X59055Y-34108D01*
X59226Y-34074D01*
X59371Y-33977D01*
X59467Y-33832D01*
X59501Y-33661D01*
X59501Y-34395D01*
X36478Y-34395D01*
X36478Y-32434D01*
X36478Y-32132D01*
X36436Y-31923D01*
X36318Y-31746D01*
X36141Y-31628D01*
X35933Y-31587D01*
X35724Y-31628D01*
X35547Y-31746D01*
X35429Y-31923D01*
X35387Y-32132D01*
X35387Y-32434D01*
X35429Y-32643D01*
X35547Y-32820D01*
X35724Y-32938D01*
X35933Y-32979D01*
X36141Y-32938D01*
X36318Y-32820D01*
X36436Y-32643D01*
X36478Y-32434D01*
X36478Y-34395D01*
X33255Y-34395D01*
X32379Y-33519D01*
X32379Y-32728D01*
X32436Y-32643D01*
X32478Y-32434D01*
X32478Y-32132D01*
X32436Y-31923D01*
X32318Y-31746D01*
X32141Y-31628D01*
X31933Y-31587D01*
X31724Y-31628D01*
X31547Y-31746D01*
X31429Y-31923D01*
X31387Y-32132D01*
X31387Y-32434D01*
X31429Y-32643D01*
X31486Y-32728D01*
X31486Y-33704D01*
X31520Y-33875D01*
X31617Y-34020D01*
X32754Y-35158D01*
X32899Y-35255D01*
X32899Y-35255D01*
X33070Y-35289D01*
X61023Y-35289D01*
X61194Y-35255D01*
X61194Y-35255D01*
X61339Y-35158D01*
X61712Y-34785D01*
X62085Y-35158D01*
X62085Y-35158D01*
X62230Y-35255D01*
X62401Y-35289D01*
X90944Y-35289D01*
X91115Y-35255D01*
X91115Y-35255D01*
X91260Y-35158D01*
X91437Y-34982D01*
X91613Y-35158D01*
X91613Y-35158D01*
X91758Y-35255D01*
X91929Y-35289D01*
X120669Y-35289D01*
X120840Y-35255D01*
X120840Y-35255D01*
X120985Y-35158D01*
X121468Y-34675D01*
X121744Y-34675D01*
X136979Y-49910D01*
X137124Y-50007D01*
X137295Y-50041D01*
X139077Y-50041D01*
X139020Y-50098D01*
X138982Y-50190D01*
X138982Y-50289D01*
X138982Y-50998D01*
X139020Y-51090D01*
X139090Y-51160D01*
X139182Y-51198D01*
X139281Y-51198D01*
X139990Y-51198D01*
X140082Y-51160D01*
X140152Y-51090D01*
X140173Y-51041D01*
X140413Y-51041D01*
X140584Y-51007D01*
X140584Y-51007D01*
X140729Y-50910D01*
X141197Y-50441D01*
X141294Y-50296D01*
X141294Y-50296D01*
X141305Y-50244D01*
X141305Y-71206D01*
X141305Y-71206D01*
G37*
G54D26*
X141305Y-71206D02*
X140715Y-71206D01*
X140715Y-69673D01*
X140556Y-69287D01*
X140260Y-68992D01*
X139875Y-68832D01*
X139457Y-68831D01*
X139071Y-68991D01*
X138775Y-69286D01*
X138615Y-69672D01*
X138615Y-70089D01*
X138774Y-70475D01*
X139069Y-70771D01*
X139455Y-70931D01*
X139873Y-70932D01*
X140259Y-70772D01*
X140554Y-70477D01*
X140715Y-70091D01*
X140715Y-69673D01*
X140715Y-71206D01*
X133950Y-71206D01*
X133950Y-56125D01*
X133859Y-55904D01*
X133698Y-55743D01*
X133858Y-55584D01*
X133950Y-55363D01*
X133950Y-55125D01*
X133859Y-54904D01*
X133690Y-54735D01*
X133470Y-54644D01*
X133231Y-54643D01*
X133010Y-54735D01*
X132842Y-54903D01*
X132750Y-55124D01*
X132750Y-55362D01*
X132841Y-55583D01*
X133001Y-55744D01*
X132948Y-55797D01*
X132141Y-55797D01*
X131970Y-55831D01*
X131825Y-55928D01*
X130652Y-57101D01*
X130555Y-57246D01*
X130521Y-57417D01*
X130521Y-59968D01*
X130555Y-60139D01*
X130652Y-60284D01*
X132738Y-62370D01*
X132738Y-62434D01*
X132779Y-62643D01*
X132836Y-62728D01*
X132836Y-64562D01*
X131901Y-65498D01*
X131828Y-65498D01*
X131828Y-62434D01*
X131828Y-62132D01*
X131787Y-61923D01*
X131669Y-61746D01*
X131492Y-61628D01*
X131283Y-61587D01*
X131074Y-61628D01*
X130897Y-61746D01*
X130779Y-61923D01*
X130738Y-62132D01*
X130738Y-62434D01*
X130779Y-62643D01*
X130897Y-62820D01*
X131074Y-62938D01*
X131283Y-62979D01*
X131492Y-62938D01*
X131669Y-62820D01*
X131787Y-62643D01*
X131828Y-62434D01*
X131828Y-65498D01*
X129828Y-65498D01*
X129828Y-62434D01*
X129828Y-62132D01*
X129787Y-61923D01*
X129702Y-61797D01*
X129702Y-53078D01*
X129702Y-43468D01*
X129668Y-43297D01*
X129571Y-43152D01*
X129426Y-43055D01*
X129255Y-43021D01*
X129084Y-43055D01*
X128939Y-43152D01*
X128843Y-43297D01*
X128809Y-43468D01*
X128809Y-52893D01*
X128699Y-53003D01*
X128699Y-52615D01*
X128616Y-52413D01*
X128461Y-52258D01*
X128259Y-52174D01*
X128040Y-52174D01*
X127838Y-52257D01*
X127683Y-52412D01*
X127599Y-52614D01*
X127599Y-52642D01*
X125936Y-54305D01*
X112334Y-54305D01*
X110624Y-52594D01*
X110624Y-49972D01*
X114551Y-46045D01*
X117920Y-46045D01*
X117940Y-46064D01*
X118021Y-46098D01*
X117940Y-46131D01*
X117785Y-46286D01*
X117702Y-46488D01*
X117701Y-46707D01*
X117785Y-46909D01*
X117940Y-47064D01*
X118021Y-47098D01*
X117940Y-47131D01*
X117921Y-47151D01*
X114279Y-47151D01*
X114108Y-47185D01*
X113963Y-47282D01*
X111632Y-49613D01*
X111535Y-49758D01*
X111501Y-49929D01*
X111501Y-51727D01*
X111482Y-51747D01*
X111398Y-51949D01*
X111398Y-52167D01*
X111482Y-52370D01*
X111636Y-52525D01*
X111838Y-52608D01*
X112057Y-52609D01*
X112259Y-52525D01*
X112414Y-52371D01*
X112498Y-52168D01*
X112498Y-51950D01*
X112415Y-51747D01*
X112395Y-51728D01*
X112395Y-50114D01*
X114464Y-48045D01*
X117920Y-48045D01*
X117940Y-48064D01*
X118021Y-48098D01*
X117940Y-48131D01*
X117921Y-48151D01*
X117279Y-48151D01*
X117108Y-48185D01*
X116963Y-48282D01*
X116164Y-49081D01*
X116067Y-49226D01*
X116033Y-49397D01*
X116033Y-51590D01*
X116067Y-51761D01*
X116164Y-51906D01*
X117002Y-52745D01*
X117002Y-52745D01*
X117147Y-52841D01*
X117318Y-52875D01*
X117318Y-52875D01*
X124881Y-52875D01*
X125052Y-52841D01*
X125052Y-52841D01*
X125197Y-52745D01*
X126890Y-51052D01*
X126987Y-50907D01*
X127021Y-50736D01*
X127021Y-50736D01*
X127021Y-41897D01*
X127040Y-41878D01*
X127124Y-41676D01*
X127124Y-41458D01*
X127041Y-41255D01*
X126886Y-41100D01*
X126684Y-41017D01*
X126465Y-41016D01*
X126263Y-41100D01*
X126108Y-41254D01*
X126024Y-41457D01*
X126024Y-41675D01*
X126108Y-41878D01*
X126127Y-41897D01*
X126127Y-50551D01*
X124696Y-51982D01*
X121649Y-51982D01*
X121733Y-51926D01*
X121830Y-51781D01*
X121864Y-51610D01*
X121844Y-51511D01*
X121844Y-49259D01*
X121810Y-49088D01*
X121810Y-49088D01*
X121713Y-48943D01*
X120052Y-47282D01*
X119907Y-47185D01*
X119736Y-47151D01*
X119583Y-47151D01*
X119563Y-47132D01*
X119482Y-47098D01*
X119563Y-47064D01*
X119717Y-46910D01*
X119801Y-46708D01*
X119802Y-46489D01*
X119757Y-46381D01*
X122096Y-48720D01*
X122096Y-51519D01*
X122130Y-51690D01*
X122227Y-51835D01*
X122372Y-51932D01*
X122543Y-51966D01*
X122714Y-51932D01*
X122859Y-51835D01*
X122956Y-51690D01*
X122990Y-51519D01*
X122990Y-48535D01*
X122956Y-48364D01*
X122956Y-48364D01*
X122859Y-48219D01*
X119922Y-45282D01*
X119777Y-45185D01*
X119606Y-45151D01*
X119583Y-45151D01*
X119563Y-45132D01*
X119482Y-45098D01*
X119563Y-45064D01*
X119582Y-45045D01*
X119925Y-45045D01*
X120096Y-45011D01*
X120096Y-45011D01*
X120241Y-44914D01*
X120587Y-44567D01*
X120587Y-44567D01*
X120684Y-44422D01*
X120718Y-44251D01*
X120718Y-44251D01*
X120718Y-43173D01*
X120684Y-43002D01*
X120684Y-43002D01*
X120587Y-42857D01*
X119686Y-41955D01*
X119541Y-41858D01*
X119370Y-41824D01*
X113921Y-41824D01*
X113750Y-41858D01*
X113605Y-41955D01*
X113605Y-41955D01*
X113605Y-41955D01*
X104113Y-51447D01*
X104016Y-51592D01*
X103982Y-51763D01*
X104016Y-51934D01*
X104113Y-52079D01*
X104258Y-52176D01*
X104429Y-52210D01*
X104600Y-52176D01*
X104745Y-52079D01*
X114106Y-42718D01*
X119184Y-42718D01*
X119824Y-43358D01*
X119824Y-44066D01*
X119740Y-44151D01*
X119583Y-44151D01*
X119563Y-44132D01*
X119482Y-44098D01*
X119563Y-44064D01*
X119717Y-43910D01*
X119801Y-43708D01*
X119802Y-43489D01*
X119718Y-43287D01*
X119563Y-43132D01*
X119361Y-43048D01*
X119143Y-43048D01*
X118940Y-43131D01*
X118785Y-43286D01*
X118751Y-43368D01*
X118718Y-43287D01*
X118563Y-43132D01*
X118361Y-43048D01*
X118143Y-43048D01*
X117940Y-43131D01*
X117785Y-43286D01*
X117702Y-43488D01*
X117701Y-43707D01*
X117785Y-43909D01*
X117940Y-44064D01*
X118021Y-44098D01*
X117940Y-44131D01*
X117785Y-44286D01*
X117702Y-44488D01*
X117701Y-44707D01*
X117785Y-44909D01*
X117940Y-45064D01*
X118021Y-45098D01*
X117940Y-45131D01*
X117921Y-45151D01*
X114366Y-45151D01*
X114195Y-45185D01*
X114050Y-45282D01*
X109861Y-49471D01*
X109764Y-49616D01*
X109730Y-49787D01*
X109730Y-52779D01*
X109764Y-52950D01*
X109861Y-53095D01*
X111833Y-55067D01*
X111833Y-55067D01*
X111978Y-55164D01*
X112149Y-55198D01*
X112149Y-55198D01*
X126122Y-55198D01*
X126293Y-55164D01*
X126293Y-55164D01*
X126438Y-55067D01*
X128231Y-53274D01*
X128258Y-53274D01*
X128460Y-53190D01*
X128615Y-53036D01*
X128699Y-52834D01*
X128699Y-52615D01*
X128699Y-53003D01*
X121580Y-60121D01*
X121580Y-56208D01*
X121546Y-56037D01*
X121449Y-55892D01*
X121304Y-55795D01*
X121133Y-55761D01*
X120962Y-55795D01*
X120817Y-55892D01*
X119933Y-56777D01*
X112498Y-56777D01*
X112498Y-55950D01*
X112415Y-55747D01*
X112260Y-55593D01*
X112058Y-55509D01*
X111839Y-55508D01*
X111637Y-55592D01*
X111482Y-55747D01*
X111398Y-55949D01*
X111398Y-56167D01*
X111482Y-56370D01*
X111636Y-56525D01*
X111838Y-56608D01*
X112057Y-56609D01*
X112259Y-56525D01*
X112414Y-56371D01*
X112498Y-56168D01*
X112498Y-55950D01*
X112498Y-56777D01*
X111311Y-56777D01*
X110461Y-55928D01*
X110316Y-55831D01*
X110145Y-55797D01*
X108100Y-55797D01*
X108047Y-55743D01*
X108207Y-55584D01*
X108299Y-55363D01*
X108299Y-55125D01*
X108208Y-54904D01*
X108039Y-54735D01*
X107819Y-54644D01*
X107580Y-54643D01*
X107359Y-54735D01*
X107190Y-54903D01*
X107099Y-55124D01*
X107099Y-55362D01*
X107190Y-55583D01*
X107350Y-55744D01*
X107297Y-55797D01*
X103822Y-55797D01*
X103651Y-55831D01*
X103506Y-55928D01*
X102174Y-57260D01*
X102174Y-38463D01*
X102083Y-38243D01*
X101923Y-38082D01*
X102083Y-37922D01*
X102174Y-37702D01*
X102174Y-37463D01*
X102083Y-37243D01*
X101915Y-37074D01*
X101694Y-36982D01*
X101455Y-36982D01*
X101235Y-37073D01*
X101066Y-37242D01*
X100974Y-37462D01*
X100974Y-37701D01*
X101065Y-37922D01*
X101226Y-38082D01*
X101066Y-38242D01*
X100974Y-38462D01*
X100974Y-38701D01*
X101065Y-38922D01*
X101140Y-38996D01*
X101083Y-39020D01*
X101012Y-39090D01*
X100974Y-39182D01*
X100974Y-39282D01*
X100974Y-39470D01*
X101037Y-39532D01*
X101524Y-39532D01*
X101524Y-39524D01*
X101624Y-39524D01*
X101624Y-39532D01*
X102112Y-39532D01*
X102174Y-39470D01*
X102174Y-39282D01*
X102174Y-39182D01*
X102136Y-39090D01*
X102066Y-39020D01*
X102009Y-38996D01*
X102083Y-38922D01*
X102174Y-38702D01*
X102174Y-38463D01*
X102174Y-57260D01*
X102174Y-57260D01*
X102174Y-39883D01*
X102174Y-39695D01*
X102112Y-39632D01*
X101624Y-39632D01*
X101624Y-40120D01*
X101687Y-40182D01*
X101974Y-40182D01*
X102066Y-40144D01*
X102136Y-40074D01*
X102174Y-39982D01*
X102174Y-39883D01*
X102174Y-57260D01*
X101524Y-57910D01*
X101524Y-40120D01*
X101524Y-39632D01*
X101037Y-39632D01*
X100974Y-39695D01*
X100974Y-39883D01*
X100974Y-39982D01*
X101012Y-40074D01*
X101083Y-40144D01*
X101175Y-40182D01*
X101462Y-40182D01*
X101524Y-40120D01*
X101524Y-57910D01*
X99164Y-60270D01*
X99067Y-60415D01*
X99033Y-60586D01*
X99033Y-61838D01*
X98976Y-61923D01*
X98935Y-62132D01*
X98935Y-62434D01*
X98976Y-62643D01*
X99094Y-62820D01*
X99271Y-62938D01*
X99480Y-62979D01*
X99688Y-62938D01*
X99865Y-62820D01*
X99984Y-62643D01*
X100025Y-62434D01*
X100025Y-62132D01*
X99984Y-61923D01*
X99927Y-61838D01*
X99927Y-60771D01*
X104007Y-56690D01*
X107198Y-56690D01*
X107137Y-56752D01*
X107099Y-56844D01*
X107099Y-56943D01*
X107099Y-57131D01*
X107161Y-57194D01*
X107649Y-57194D01*
X107649Y-57186D01*
X107749Y-57186D01*
X107749Y-57194D01*
X108236Y-57194D01*
X108299Y-57131D01*
X108299Y-56943D01*
X108299Y-56844D01*
X108261Y-56752D01*
X108199Y-56690D01*
X109960Y-56690D01*
X110810Y-57540D01*
X110810Y-57540D01*
X110954Y-57637D01*
X111125Y-57671D01*
X111125Y-57671D01*
X120118Y-57671D01*
X120289Y-57637D01*
X120289Y-57637D01*
X120434Y-57540D01*
X121449Y-56524D01*
X121546Y-56379D01*
X121580Y-56208D01*
X121580Y-60121D01*
X120967Y-60735D01*
X120870Y-60880D01*
X120836Y-61051D01*
X120836Y-61648D01*
X120776Y-61708D01*
X120738Y-61800D01*
X120738Y-61899D01*
X120738Y-62766D01*
X120776Y-62857D01*
X120846Y-62928D01*
X120938Y-62966D01*
X121037Y-62966D01*
X121628Y-62966D01*
X121720Y-62928D01*
X121790Y-62858D01*
X121828Y-62766D01*
X121828Y-62667D01*
X121828Y-61800D01*
X121790Y-61708D01*
X121730Y-61648D01*
X121730Y-61236D01*
X129571Y-53394D01*
X129571Y-53394D01*
X129668Y-53249D01*
X129702Y-53078D01*
X129702Y-53078D01*
X129702Y-61797D01*
X129669Y-61746D01*
X129492Y-61628D01*
X129283Y-61587D01*
X129074Y-61628D01*
X128897Y-61746D01*
X128779Y-61923D01*
X128738Y-62132D01*
X128738Y-62434D01*
X128779Y-62643D01*
X128836Y-62728D01*
X128836Y-62854D01*
X128699Y-62991D01*
X128699Y-56615D01*
X128616Y-56413D01*
X128461Y-56258D01*
X128259Y-56174D01*
X128040Y-56174D01*
X127838Y-56257D01*
X127683Y-56412D01*
X127599Y-56614D01*
X127599Y-56833D01*
X127683Y-57035D01*
X127837Y-57190D01*
X128039Y-57274D01*
X128258Y-57274D01*
X128460Y-57190D01*
X128615Y-57036D01*
X128699Y-56834D01*
X128699Y-56615D01*
X128699Y-62991D01*
X128161Y-63529D01*
X127828Y-63529D01*
X127828Y-62434D01*
X127828Y-62132D01*
X127787Y-61923D01*
X127669Y-61746D01*
X127492Y-61628D01*
X127283Y-61587D01*
X127074Y-61628D01*
X126897Y-61746D01*
X126779Y-61923D01*
X126738Y-62132D01*
X126738Y-62434D01*
X126779Y-62643D01*
X126897Y-62820D01*
X127074Y-62938D01*
X127283Y-62979D01*
X127492Y-62938D01*
X127669Y-62820D01*
X127787Y-62643D01*
X127828Y-62434D01*
X127828Y-63529D01*
X125828Y-63529D01*
X125828Y-62434D01*
X125828Y-62132D01*
X125787Y-61923D01*
X125669Y-61746D01*
X125492Y-61628D01*
X125283Y-61587D01*
X125074Y-61628D01*
X124897Y-61746D01*
X124779Y-61923D01*
X124738Y-62132D01*
X124738Y-62434D01*
X124779Y-62643D01*
X124897Y-62820D01*
X125074Y-62938D01*
X125283Y-62979D01*
X125492Y-62938D01*
X125669Y-62820D01*
X125787Y-62643D01*
X125828Y-62434D01*
X125828Y-63529D01*
X123828Y-63529D01*
X123828Y-62434D01*
X123828Y-62132D01*
X123787Y-61923D01*
X123669Y-61746D01*
X123492Y-61628D01*
X123283Y-61587D01*
X123074Y-61628D01*
X122897Y-61746D01*
X122779Y-61923D01*
X122738Y-62132D01*
X122738Y-62434D01*
X122779Y-62643D01*
X122897Y-62820D01*
X123074Y-62938D01*
X123283Y-62979D01*
X123492Y-62938D01*
X123669Y-62820D01*
X123787Y-62643D01*
X123828Y-62434D01*
X123828Y-63529D01*
X119488Y-63529D01*
X119317Y-63563D01*
X119172Y-63660D01*
X119075Y-63805D01*
X119041Y-63976D01*
X119075Y-64147D01*
X119172Y-64292D01*
X119317Y-64389D01*
X119488Y-64423D01*
X128346Y-64423D01*
X128517Y-64389D01*
X128517Y-64389D01*
X128662Y-64292D01*
X129599Y-63355D01*
X129696Y-63210D01*
X129696Y-63210D01*
X129730Y-63039D01*
X129730Y-62728D01*
X129787Y-62643D01*
X129828Y-62434D01*
X129828Y-65498D01*
X122887Y-65498D01*
X122887Y-64960D01*
X122853Y-64789D01*
X122756Y-64644D01*
X122611Y-64547D01*
X122440Y-64513D01*
X119488Y-64513D01*
X119317Y-64547D01*
X119172Y-64644D01*
X119075Y-64789D01*
X119041Y-64960D01*
X119075Y-65131D01*
X119172Y-65276D01*
X119317Y-65373D01*
X119488Y-65407D01*
X122440Y-65407D01*
X122611Y-65373D01*
X122756Y-65276D01*
X122853Y-65131D01*
X122887Y-64960D01*
X122887Y-65498D01*
X108299Y-65498D01*
X108299Y-57544D01*
X108299Y-57356D01*
X108236Y-57294D01*
X107749Y-57294D01*
X107749Y-57781D01*
X107811Y-57844D01*
X108098Y-57844D01*
X108190Y-57806D01*
X108261Y-57735D01*
X108299Y-57644D01*
X108299Y-57544D01*
X108299Y-65498D01*
X107649Y-65498D01*
X107649Y-57781D01*
X107649Y-57294D01*
X107161Y-57294D01*
X107099Y-57356D01*
X107099Y-57544D01*
X107099Y-57644D01*
X107137Y-57735D01*
X107207Y-57806D01*
X107299Y-57844D01*
X107586Y-57844D01*
X107649Y-57781D01*
X107649Y-65498D01*
X104769Y-65498D01*
X104769Y-60169D01*
X104735Y-59998D01*
X104726Y-59984D01*
X104726Y-57594D01*
X104692Y-57423D01*
X104595Y-57278D01*
X104450Y-57181D01*
X104279Y-57147D01*
X104108Y-57181D01*
X103963Y-57278D01*
X103866Y-57423D01*
X103832Y-57594D01*
X103832Y-60125D01*
X103866Y-60296D01*
X103963Y-60441D01*
X104006Y-60485D01*
X104151Y-60582D01*
X104322Y-60616D01*
X104493Y-60582D01*
X104638Y-60485D01*
X104735Y-60340D01*
X104769Y-60169D01*
X104769Y-65498D01*
X104318Y-65498D01*
X103927Y-65106D01*
X103927Y-62728D01*
X103984Y-62643D01*
X104025Y-62434D01*
X104025Y-62132D01*
X103984Y-61923D01*
X103865Y-61746D01*
X103688Y-61628D01*
X103480Y-61587D01*
X103271Y-61628D01*
X103094Y-61746D01*
X102976Y-61923D01*
X102935Y-62132D01*
X102935Y-62434D01*
X102976Y-62643D01*
X103033Y-62728D01*
X103033Y-65035D01*
X102570Y-65498D01*
X102025Y-65498D01*
X102025Y-62434D01*
X102025Y-62132D01*
X101984Y-61923D01*
X101865Y-61746D01*
X101688Y-61628D01*
X101480Y-61587D01*
X101271Y-61628D01*
X101094Y-61746D01*
X100976Y-61923D01*
X100935Y-62132D01*
X100935Y-62434D01*
X100976Y-62643D01*
X101094Y-62820D01*
X101271Y-62938D01*
X101480Y-62979D01*
X101688Y-62938D01*
X101865Y-62820D01*
X101984Y-62643D01*
X102025Y-62434D01*
X102025Y-65498D01*
X98581Y-65498D01*
X98581Y-41458D01*
X98581Y-37458D01*
X98498Y-37255D01*
X98343Y-37100D01*
X98141Y-37017D01*
X97922Y-37016D01*
X97720Y-37100D01*
X97565Y-37254D01*
X97481Y-37457D01*
X97481Y-37675D01*
X97564Y-37878D01*
X97719Y-38032D01*
X97921Y-38116D01*
X98140Y-38117D01*
X98342Y-38033D01*
X98497Y-37878D01*
X98581Y-37676D01*
X98581Y-37458D01*
X98581Y-41458D01*
X98498Y-41255D01*
X98343Y-41100D01*
X98141Y-41017D01*
X97922Y-41016D01*
X97720Y-41100D01*
X97700Y-41120D01*
X81783Y-41120D01*
X81612Y-41154D01*
X81467Y-41250D01*
X80728Y-41990D01*
X39379Y-41990D01*
X39379Y-38463D01*
X39288Y-38243D01*
X39128Y-38082D01*
X39287Y-37922D01*
X39379Y-37702D01*
X39379Y-37463D01*
X39288Y-37243D01*
X39119Y-37074D01*
X38899Y-36982D01*
X38660Y-36982D01*
X38440Y-37073D01*
X38271Y-37242D01*
X38179Y-37462D01*
X38179Y-37701D01*
X38270Y-37922D01*
X38430Y-38082D01*
X38271Y-38242D01*
X38179Y-38462D01*
X38179Y-38701D01*
X38270Y-38922D01*
X38345Y-38996D01*
X38288Y-39020D01*
X38217Y-39090D01*
X38179Y-39182D01*
X38179Y-39282D01*
X38179Y-39470D01*
X38242Y-39532D01*
X38729Y-39532D01*
X38729Y-39524D01*
X38829Y-39524D01*
X38829Y-39532D01*
X39317Y-39532D01*
X39379Y-39470D01*
X39379Y-39282D01*
X39379Y-39182D01*
X39341Y-39090D01*
X39270Y-39020D01*
X39213Y-38996D01*
X39287Y-38922D01*
X39379Y-38702D01*
X39379Y-38463D01*
X39379Y-41990D01*
X39379Y-41990D01*
X39379Y-39883D01*
X39379Y-39695D01*
X39317Y-39632D01*
X38829Y-39632D01*
X38829Y-40120D01*
X38892Y-40182D01*
X39179Y-40182D01*
X39270Y-40144D01*
X39341Y-40074D01*
X39379Y-39982D01*
X39379Y-39883D01*
X39379Y-41990D01*
X38729Y-41990D01*
X38729Y-40120D01*
X38729Y-39632D01*
X38242Y-39632D01*
X38179Y-39695D01*
X38179Y-39883D01*
X38179Y-39982D01*
X38217Y-40074D01*
X38288Y-40144D01*
X38380Y-40182D01*
X38667Y-40182D01*
X38729Y-40120D01*
X38729Y-41990D01*
X35787Y-41990D01*
X35899Y-41878D01*
X35982Y-41676D01*
X35983Y-41458D01*
X35983Y-37458D01*
X35899Y-37255D01*
X35745Y-37100D01*
X35542Y-37017D01*
X35324Y-37016D01*
X35121Y-37100D01*
X34967Y-37254D01*
X34883Y-37457D01*
X34882Y-37675D01*
X34966Y-37878D01*
X35121Y-38032D01*
X35323Y-38116D01*
X35541Y-38117D01*
X35744Y-38033D01*
X35899Y-37878D01*
X35982Y-37676D01*
X35983Y-37458D01*
X35983Y-41458D01*
X35899Y-41255D01*
X35745Y-41100D01*
X35542Y-41017D01*
X35324Y-41016D01*
X35121Y-41100D01*
X34967Y-41254D01*
X34883Y-41457D01*
X34882Y-41675D01*
X34966Y-41878D01*
X35078Y-41990D01*
X26837Y-41990D01*
X26837Y-24004D01*
X26678Y-23618D01*
X26382Y-23322D01*
X25997Y-23162D01*
X25579Y-23162D01*
X25193Y-23321D01*
X24897Y-23617D01*
X24737Y-24002D01*
X24737Y-24420D01*
X24896Y-24806D01*
X25191Y-25102D01*
X25577Y-25262D01*
X25995Y-25262D01*
X26381Y-25103D01*
X26677Y-24808D01*
X26837Y-24422D01*
X26837Y-24004D01*
X26837Y-41990D01*
X26805Y-41990D01*
X26805Y-29640D01*
X26677Y-29331D01*
X26441Y-29094D01*
X26132Y-28966D01*
X25798Y-28966D01*
X25489Y-29094D01*
X25252Y-29330D01*
X25124Y-29639D01*
X25123Y-29973D01*
X25251Y-30282D01*
X25487Y-30519D01*
X25796Y-30647D01*
X26131Y-30647D01*
X26440Y-30520D01*
X26676Y-30283D01*
X26804Y-29975D01*
X26805Y-29640D01*
X26805Y-41990D01*
X26805Y-41990D01*
X26805Y-32447D01*
X26805Y-31167D01*
X26767Y-31075D01*
X26696Y-31004D01*
X26605Y-30966D01*
X26505Y-30966D01*
X26077Y-30966D01*
X26014Y-31029D01*
X26014Y-31757D01*
X26742Y-31757D01*
X26805Y-31694D01*
X26805Y-31167D01*
X26805Y-32447D01*
X26805Y-31919D01*
X26742Y-31857D01*
X26014Y-31857D01*
X26014Y-32585D01*
X26077Y-32647D01*
X26505Y-32647D01*
X26605Y-32647D01*
X26696Y-32609D01*
X26767Y-32539D01*
X26805Y-32447D01*
X26805Y-41990D01*
X25914Y-41990D01*
X25914Y-32585D01*
X25914Y-31857D01*
X25914Y-31757D01*
X25914Y-31029D01*
X25852Y-30966D01*
X25423Y-30966D01*
X25324Y-30966D01*
X25232Y-31004D01*
X25162Y-31075D01*
X25124Y-31167D01*
X25124Y-31694D01*
X25186Y-31757D01*
X25914Y-31757D01*
X25914Y-31857D01*
X25186Y-31857D01*
X25124Y-31919D01*
X25124Y-32447D01*
X25162Y-32539D01*
X25232Y-32609D01*
X25324Y-32647D01*
X25423Y-32647D01*
X25852Y-32647D01*
X25914Y-32585D01*
X25914Y-41990D01*
X25169Y-41990D01*
X24998Y-42024D01*
X24853Y-42121D01*
X24117Y-42857D01*
X24020Y-43002D01*
X23986Y-43173D01*
X23986Y-50098D01*
X24020Y-50269D01*
X24117Y-50414D01*
X24613Y-50910D01*
X24758Y-51007D01*
X24758Y-51007D01*
X24929Y-51041D01*
X25358Y-51041D01*
X25378Y-51090D01*
X25448Y-51160D01*
X25540Y-51198D01*
X25640Y-51198D01*
X26348Y-51198D01*
X26440Y-51160D01*
X26511Y-51090D01*
X26549Y-50998D01*
X26549Y-50899D01*
X26549Y-50190D01*
X26511Y-50098D01*
X26453Y-50041D01*
X29397Y-50041D01*
X29568Y-50007D01*
X29568Y-50007D01*
X29713Y-49910D01*
X35737Y-43886D01*
X35834Y-43741D01*
X35868Y-43570D01*
X35847Y-43466D01*
X37598Y-43466D01*
X38868Y-44736D01*
X38868Y-51763D01*
X38902Y-51934D01*
X38998Y-52079D01*
X42333Y-55414D01*
X42333Y-55414D01*
X42478Y-55511D01*
X42649Y-55545D01*
X42649Y-55545D01*
X51901Y-55545D01*
X52072Y-55511D01*
X52072Y-55511D01*
X52217Y-55414D01*
X53997Y-53634D01*
X54093Y-53489D01*
X54127Y-53318D01*
X54127Y-52390D01*
X54147Y-52371D01*
X54231Y-52168D01*
X54231Y-51950D01*
X54147Y-51747D01*
X53993Y-51593D01*
X53790Y-51509D01*
X53572Y-51508D01*
X53369Y-51592D01*
X53215Y-51747D01*
X53131Y-51949D01*
X53131Y-52167D01*
X53214Y-52370D01*
X53234Y-52389D01*
X53234Y-53133D01*
X51716Y-54651D01*
X47395Y-54651D01*
X47395Y-52263D01*
X47395Y-43405D01*
X47361Y-43234D01*
X47264Y-43089D01*
X47119Y-42992D01*
X46948Y-42958D01*
X46777Y-42992D01*
X46632Y-43089D01*
X46535Y-43234D01*
X46501Y-43405D01*
X46501Y-52078D01*
X46435Y-52144D01*
X46339Y-52289D01*
X46305Y-52460D01*
X46339Y-52631D01*
X46435Y-52776D01*
X46580Y-52873D01*
X46751Y-52907D01*
X46922Y-52873D01*
X47067Y-52776D01*
X47264Y-52579D01*
X47264Y-52579D01*
X47361Y-52434D01*
X47395Y-52263D01*
X47395Y-52263D01*
X47395Y-54651D01*
X42834Y-54651D01*
X39761Y-51578D01*
X39761Y-44551D01*
X39761Y-44551D01*
X39727Y-44380D01*
X39630Y-44235D01*
X39630Y-44235D01*
X38279Y-42883D01*
X44667Y-42883D01*
X44565Y-42951D01*
X44469Y-43096D01*
X44435Y-43267D01*
X44435Y-52460D01*
X44469Y-52631D01*
X44565Y-52776D01*
X44710Y-52873D01*
X44881Y-52907D01*
X45052Y-52873D01*
X45197Y-52776D01*
X45294Y-52631D01*
X45328Y-52460D01*
X45328Y-43267D01*
X45294Y-43096D01*
X45197Y-42951D01*
X45096Y-42883D01*
X65372Y-42883D01*
X65335Y-42939D01*
X65301Y-43110D01*
X65301Y-46653D01*
X65301Y-50590D01*
X65301Y-51968D01*
X65335Y-52139D01*
X65432Y-52284D01*
X65577Y-52381D01*
X65748Y-52415D01*
X65919Y-52381D01*
X66064Y-52284D01*
X66160Y-52139D01*
X66194Y-51968D01*
X66194Y-50590D01*
X66194Y-46653D01*
X66194Y-43110D01*
X66160Y-42939D01*
X66123Y-42883D01*
X73836Y-42883D01*
X73799Y-42939D01*
X73765Y-43110D01*
X73765Y-50000D01*
X73765Y-51574D01*
X73765Y-51968D01*
X73799Y-52139D01*
X73896Y-52284D01*
X74041Y-52381D01*
X74212Y-52415D01*
X74383Y-52381D01*
X74528Y-52284D01*
X74625Y-52139D01*
X74659Y-51968D01*
X74659Y-51574D01*
X74659Y-50000D01*
X74659Y-43110D01*
X74625Y-42939D01*
X74588Y-42883D01*
X80913Y-42883D01*
X81084Y-42849D01*
X81084Y-42849D01*
X81229Y-42752D01*
X81968Y-42013D01*
X87714Y-42013D01*
X87577Y-42105D01*
X87480Y-42250D01*
X87446Y-42421D01*
X87480Y-42592D01*
X87577Y-42737D01*
X96928Y-52087D01*
X97073Y-52184D01*
X97073Y-52184D01*
X97244Y-52218D01*
X97342Y-52218D01*
X97513Y-52184D01*
X97658Y-52087D01*
X97755Y-51942D01*
X97789Y-51771D01*
X97755Y-51600D01*
X97658Y-51455D01*
X97513Y-51358D01*
X97450Y-51346D01*
X88209Y-42105D01*
X88072Y-42013D01*
X97700Y-42013D01*
X97719Y-42032D01*
X97921Y-42116D01*
X98140Y-42117D01*
X98342Y-42033D01*
X98497Y-41878D01*
X98581Y-41676D01*
X98581Y-41458D01*
X98581Y-65498D01*
X98025Y-65498D01*
X98025Y-62434D01*
X98025Y-62132D01*
X97984Y-61923D01*
X97865Y-61746D01*
X97688Y-61628D01*
X97480Y-61587D01*
X97271Y-61628D01*
X97094Y-61746D01*
X96976Y-61923D01*
X96935Y-62132D01*
X96935Y-62434D01*
X96976Y-62643D01*
X97094Y-62820D01*
X97271Y-62938D01*
X97480Y-62979D01*
X97688Y-62938D01*
X97865Y-62820D01*
X97984Y-62643D01*
X98025Y-62434D01*
X98025Y-65498D01*
X96411Y-65498D01*
X96411Y-51771D01*
X96377Y-51600D01*
X96280Y-51455D01*
X96135Y-51358D01*
X96072Y-51346D01*
X87028Y-42302D01*
X86883Y-42205D01*
X86712Y-42171D01*
X86541Y-42205D01*
X86396Y-42302D01*
X86299Y-42447D01*
X86265Y-42618D01*
X86299Y-42789D01*
X86396Y-42934D01*
X95550Y-52087D01*
X95695Y-52184D01*
X95866Y-52218D01*
X95964Y-52218D01*
X96135Y-52184D01*
X96280Y-52087D01*
X96377Y-51942D01*
X96411Y-51771D01*
X96411Y-65498D01*
X96025Y-65498D01*
X96025Y-62434D01*
X96025Y-62132D01*
X95984Y-61923D01*
X95865Y-61746D01*
X95688Y-61628D01*
X95480Y-61587D01*
X95368Y-61609D01*
X95368Y-54637D01*
X95150Y-54111D01*
X94748Y-53708D01*
X94222Y-53490D01*
X93653Y-53489D01*
X93127Y-53707D01*
X92724Y-54109D01*
X92506Y-54635D01*
X92505Y-55204D01*
X92723Y-55730D01*
X93125Y-56133D01*
X93651Y-56352D01*
X94220Y-56352D01*
X94746Y-56135D01*
X95149Y-55732D01*
X95367Y-55207D01*
X95368Y-54637D01*
X95368Y-61609D01*
X95271Y-61628D01*
X95094Y-61746D01*
X94976Y-61923D01*
X94935Y-62132D01*
X94935Y-62434D01*
X94976Y-62643D01*
X95094Y-62820D01*
X95271Y-62938D01*
X95480Y-62979D01*
X95688Y-62938D01*
X95865Y-62820D01*
X95984Y-62643D01*
X96025Y-62434D01*
X96025Y-65498D01*
X94935Y-65498D01*
X94935Y-63976D01*
X94901Y-63805D01*
X94804Y-63660D01*
X94659Y-63563D01*
X94488Y-63529D01*
X94025Y-63529D01*
X94025Y-62434D01*
X94025Y-62132D01*
X93984Y-61923D01*
X93865Y-61746D01*
X93688Y-61628D01*
X93480Y-61587D01*
X93271Y-61628D01*
X93094Y-61746D01*
X92976Y-61923D01*
X92935Y-62132D01*
X92935Y-62434D01*
X92976Y-62643D01*
X93094Y-62820D01*
X93271Y-62938D01*
X93480Y-62979D01*
X93688Y-62938D01*
X93865Y-62820D01*
X93984Y-62643D01*
X94025Y-62434D01*
X94025Y-63529D01*
X92025Y-63529D01*
X92025Y-62667D01*
X92025Y-61800D01*
X91987Y-61708D01*
X91917Y-61638D01*
X91825Y-61600D01*
X91726Y-61600D01*
X91135Y-61600D01*
X91043Y-61638D01*
X90973Y-61708D01*
X90935Y-61800D01*
X90934Y-61899D01*
X90934Y-62766D01*
X90972Y-62857D01*
X91043Y-62928D01*
X91135Y-62966D01*
X91234Y-62966D01*
X91825Y-62966D01*
X91917Y-62928D01*
X91987Y-62858D01*
X92025Y-62766D01*
X92025Y-62667D01*
X92025Y-63529D01*
X89960Y-63529D01*
X89789Y-63563D01*
X89644Y-63660D01*
X89547Y-63805D01*
X89513Y-63976D01*
X89547Y-64147D01*
X89644Y-64292D01*
X89789Y-64389D01*
X89960Y-64423D01*
X94488Y-64423D01*
X94659Y-64389D01*
X94804Y-64292D01*
X94901Y-64147D01*
X94935Y-63976D01*
X94935Y-65498D01*
X93360Y-65498D01*
X93360Y-64960D01*
X93326Y-64789D01*
X93229Y-64644D01*
X93084Y-64547D01*
X92913Y-64513D01*
X89960Y-64513D01*
X89789Y-64547D01*
X89644Y-64644D01*
X89547Y-64789D01*
X89513Y-64960D01*
X89547Y-65131D01*
X89644Y-65276D01*
X89789Y-65373D01*
X89960Y-65407D01*
X92913Y-65407D01*
X93084Y-65373D01*
X93229Y-65276D01*
X93326Y-65131D01*
X93360Y-64960D01*
X93360Y-65498D01*
X84206Y-65498D01*
X84206Y-52066D01*
X84206Y-46791D01*
X84187Y-46692D01*
X84187Y-46692D01*
X84187Y-44251D01*
X84187Y-42677D01*
X84152Y-42506D01*
X84056Y-42361D01*
X83911Y-42264D01*
X83740Y-42230D01*
X83569Y-42264D01*
X83424Y-42361D01*
X83327Y-42506D01*
X83293Y-42677D01*
X83293Y-44251D01*
X83293Y-46771D01*
X83312Y-46870D01*
X83312Y-52066D01*
X83347Y-52237D01*
X83443Y-52382D01*
X83588Y-52479D01*
X83759Y-52513D01*
X83930Y-52479D01*
X84075Y-52382D01*
X84172Y-52237D01*
X84206Y-52066D01*
X84206Y-65498D01*
X74791Y-65498D01*
X74163Y-64870D01*
X74163Y-64866D01*
X74163Y-64763D01*
X74163Y-62728D01*
X74220Y-62643D01*
X74261Y-62434D01*
X74261Y-62132D01*
X74220Y-61923D01*
X74102Y-61746D01*
X73925Y-61628D01*
X73716Y-61587D01*
X73507Y-61628D01*
X73330Y-61746D01*
X73212Y-61923D01*
X73171Y-62132D01*
X73171Y-62434D01*
X73212Y-62643D01*
X73269Y-62728D01*
X73269Y-64681D01*
X72452Y-65498D01*
X72261Y-65498D01*
X72261Y-62434D01*
X72261Y-62132D01*
X72220Y-61923D01*
X72102Y-61746D01*
X71943Y-61640D01*
X71943Y-54637D01*
X71725Y-54111D01*
X71323Y-53708D01*
X70797Y-53490D01*
X70228Y-53489D01*
X69702Y-53707D01*
X69299Y-54109D01*
X69080Y-54635D01*
X69080Y-55204D01*
X69297Y-55730D01*
X69700Y-56133D01*
X70225Y-56352D01*
X70795Y-56352D01*
X71321Y-56135D01*
X71724Y-55732D01*
X71942Y-55207D01*
X71943Y-54637D01*
X71943Y-61640D01*
X71925Y-61628D01*
X71716Y-61587D01*
X71507Y-61628D01*
X71330Y-61746D01*
X71212Y-61923D01*
X71171Y-62132D01*
X71171Y-62434D01*
X71212Y-62643D01*
X71330Y-62820D01*
X71507Y-62938D01*
X71716Y-62979D01*
X71925Y-62938D01*
X72102Y-62820D01*
X72220Y-62643D01*
X72261Y-62434D01*
X72261Y-65498D01*
X70261Y-65498D01*
X70261Y-62434D01*
X70261Y-62132D01*
X70220Y-61923D01*
X70102Y-61746D01*
X69925Y-61628D01*
X69716Y-61587D01*
X69507Y-61628D01*
X69330Y-61746D01*
X69212Y-61923D01*
X69171Y-62132D01*
X69171Y-62434D01*
X69212Y-62643D01*
X69330Y-62820D01*
X69507Y-62938D01*
X69716Y-62979D01*
X69925Y-62938D01*
X70102Y-62820D01*
X70220Y-62643D01*
X70261Y-62434D01*
X70261Y-65498D01*
X68261Y-65498D01*
X68261Y-62434D01*
X68261Y-62132D01*
X68220Y-61923D01*
X68102Y-61746D01*
X67925Y-61628D01*
X67716Y-61587D01*
X67507Y-61628D01*
X67330Y-61746D01*
X67212Y-61923D01*
X67171Y-62132D01*
X67171Y-62434D01*
X67212Y-62643D01*
X67330Y-62820D01*
X67507Y-62938D01*
X67716Y-62979D01*
X67925Y-62938D01*
X68102Y-62820D01*
X68220Y-62643D01*
X68261Y-62434D01*
X68261Y-65498D01*
X66261Y-65498D01*
X66261Y-62434D01*
X66261Y-62132D01*
X66220Y-61923D01*
X66102Y-61746D01*
X65925Y-61628D01*
X65716Y-61587D01*
X65507Y-61628D01*
X65330Y-61746D01*
X65212Y-61923D01*
X65171Y-62132D01*
X65171Y-62434D01*
X65212Y-62643D01*
X65330Y-62820D01*
X65507Y-62938D01*
X65716Y-62979D01*
X65925Y-62938D01*
X66102Y-62820D01*
X66220Y-62643D01*
X66261Y-62434D01*
X66261Y-65498D01*
X65998Y-65498D01*
X65998Y-63976D01*
X65964Y-63805D01*
X65867Y-63660D01*
X65722Y-63563D01*
X65551Y-63529D01*
X64261Y-63529D01*
X64261Y-62434D01*
X64261Y-62132D01*
X64220Y-61923D01*
X64102Y-61746D01*
X63925Y-61628D01*
X63716Y-61587D01*
X63662Y-61597D01*
X58003Y-55938D01*
X57989Y-55904D01*
X57828Y-55743D01*
X57988Y-55584D01*
X58080Y-55363D01*
X58080Y-55125D01*
X57989Y-54904D01*
X57820Y-54735D01*
X57600Y-54644D01*
X57361Y-54643D01*
X57140Y-54735D01*
X56971Y-54903D01*
X56880Y-55124D01*
X56880Y-55362D01*
X56971Y-55583D01*
X57131Y-55744D01*
X56971Y-55903D01*
X56880Y-56124D01*
X56880Y-56362D01*
X56971Y-56583D01*
X57046Y-56658D01*
X56988Y-56682D01*
X56918Y-56752D01*
X56880Y-56844D01*
X56880Y-56943D01*
X56880Y-57131D01*
X56942Y-57194D01*
X57430Y-57194D01*
X57430Y-57186D01*
X57530Y-57186D01*
X57530Y-57194D01*
X57538Y-57194D01*
X57538Y-57294D01*
X57530Y-57294D01*
X57530Y-57781D01*
X57592Y-57844D01*
X57879Y-57844D01*
X57971Y-57806D01*
X58042Y-57735D01*
X58080Y-57644D01*
X58080Y-57544D01*
X58080Y-57356D01*
X58017Y-57294D01*
X58080Y-57294D01*
X58080Y-57279D01*
X63171Y-62370D01*
X63171Y-62434D01*
X63212Y-62643D01*
X63330Y-62820D01*
X63507Y-62938D01*
X63716Y-62979D01*
X63925Y-62938D01*
X64102Y-62820D01*
X64220Y-62643D01*
X64261Y-62434D01*
X64261Y-63529D01*
X62261Y-63529D01*
X62261Y-62667D01*
X62261Y-61800D01*
X62223Y-61708D01*
X62153Y-61638D01*
X62061Y-61600D01*
X61962Y-61600D01*
X61371Y-61600D01*
X61279Y-61638D01*
X61209Y-61708D01*
X61171Y-61800D01*
X61171Y-61899D01*
X61171Y-62766D01*
X61209Y-62857D01*
X61279Y-62928D01*
X61371Y-62966D01*
X61470Y-62966D01*
X62061Y-62966D01*
X62153Y-62928D01*
X62223Y-62858D01*
X62261Y-62766D01*
X62261Y-62667D01*
X62261Y-63529D01*
X60236Y-63529D01*
X60065Y-63563D01*
X59920Y-63660D01*
X59823Y-63805D01*
X59789Y-63976D01*
X59823Y-64147D01*
X59920Y-64292D01*
X60065Y-64389D01*
X60236Y-64423D01*
X65551Y-64423D01*
X65722Y-64389D01*
X65867Y-64292D01*
X65964Y-64147D01*
X65998Y-63976D01*
X65998Y-65498D01*
X63438Y-65498D01*
X63438Y-64960D01*
X63404Y-64789D01*
X63308Y-64644D01*
X63163Y-64547D01*
X62992Y-64513D01*
X61023Y-64513D01*
X58080Y-64513D01*
X57677Y-64513D01*
X57506Y-64547D01*
X57430Y-64598D01*
X57430Y-57781D01*
X57430Y-57294D01*
X56942Y-57294D01*
X56880Y-57356D01*
X56880Y-57544D01*
X56880Y-57644D01*
X56918Y-57735D01*
X56988Y-57806D01*
X57080Y-57844D01*
X57367Y-57844D01*
X57430Y-57781D01*
X57430Y-64598D01*
X57361Y-64644D01*
X57264Y-64789D01*
X57230Y-64960D01*
X57264Y-65131D01*
X57361Y-65276D01*
X57506Y-65373D01*
X57677Y-65407D01*
X61023Y-65407D01*
X62992Y-65407D01*
X63163Y-65373D01*
X63308Y-65276D01*
X63404Y-65131D01*
X63438Y-64960D01*
X63438Y-65498D01*
X54231Y-65498D01*
X54231Y-55950D01*
X54147Y-55747D01*
X53993Y-55593D01*
X53790Y-55509D01*
X53572Y-55508D01*
X53369Y-55592D01*
X53215Y-55747D01*
X53131Y-55949D01*
X53131Y-56167D01*
X53214Y-56370D01*
X53369Y-56525D01*
X53571Y-56608D01*
X53790Y-56609D01*
X53992Y-56525D01*
X54147Y-56371D01*
X54231Y-56168D01*
X54231Y-55950D01*
X54231Y-65498D01*
X45066Y-65498D01*
X44379Y-64810D01*
X44379Y-62728D01*
X44436Y-62643D01*
X44478Y-62434D01*
X44478Y-62132D01*
X44436Y-61923D01*
X44318Y-61746D01*
X44141Y-61628D01*
X43933Y-61587D01*
X43724Y-61628D01*
X43547Y-61746D01*
X43429Y-61923D01*
X43387Y-62132D01*
X43387Y-62434D01*
X43429Y-62643D01*
X43486Y-62728D01*
X43486Y-64996D01*
X43520Y-65167D01*
X43617Y-65312D01*
X44565Y-66260D01*
X44565Y-66260D01*
X44710Y-66357D01*
X44881Y-66391D01*
X72637Y-66391D01*
X72808Y-66357D01*
X72808Y-66357D01*
X72953Y-66260D01*
X73622Y-65592D01*
X74290Y-66260D01*
X74290Y-66260D01*
X74435Y-66357D01*
X74606Y-66391D01*
X102755Y-66391D01*
X102926Y-66357D01*
X102926Y-66357D01*
X103071Y-66260D01*
X103444Y-65887D01*
X103817Y-66260D01*
X103817Y-66260D01*
X103962Y-66357D01*
X104133Y-66391D01*
X132086Y-66391D01*
X132257Y-66357D01*
X132257Y-66357D01*
X132402Y-66260D01*
X133599Y-65064D01*
X133696Y-64919D01*
X133696Y-64919D01*
X133730Y-64748D01*
X133730Y-62728D01*
X133787Y-62643D01*
X133828Y-62434D01*
X133828Y-62132D01*
X133787Y-61923D01*
X133669Y-61746D01*
X133492Y-61628D01*
X133300Y-61590D01*
X133300Y-57781D01*
X133300Y-57294D01*
X132812Y-57294D01*
X132750Y-57356D01*
X132750Y-57544D01*
X132750Y-57644D01*
X132788Y-57735D01*
X132858Y-57806D01*
X132950Y-57844D01*
X133237Y-57844D01*
X133300Y-57781D01*
X133300Y-61590D01*
X133283Y-61587D01*
X133229Y-61597D01*
X131415Y-59783D01*
X131415Y-57602D01*
X132326Y-56690D01*
X132850Y-56690D01*
X132788Y-56752D01*
X132750Y-56844D01*
X132750Y-56943D01*
X132750Y-57131D01*
X132812Y-57194D01*
X133300Y-57194D01*
X133300Y-57186D01*
X133400Y-57186D01*
X133400Y-57194D01*
X133887Y-57194D01*
X133950Y-57131D01*
X133950Y-56943D01*
X133950Y-56844D01*
X133912Y-56752D01*
X133841Y-56682D01*
X133784Y-56658D01*
X133858Y-56584D01*
X133950Y-56363D01*
X133950Y-56125D01*
X133950Y-71206D01*
X133950Y-71206D01*
X133950Y-57544D01*
X133950Y-57356D01*
X133887Y-57294D01*
X133400Y-57294D01*
X133400Y-57781D01*
X133462Y-57844D01*
X133749Y-57844D01*
X133841Y-57806D01*
X133912Y-57735D01*
X133950Y-57644D01*
X133950Y-57544D01*
X133950Y-71206D01*
X103412Y-71206D01*
X103412Y-69673D01*
X103252Y-69287D01*
X102957Y-68992D01*
X102571Y-68832D01*
X102154Y-68831D01*
X101768Y-68991D01*
X101472Y-69286D01*
X101312Y-69672D01*
X101312Y-70089D01*
X101471Y-70475D01*
X101766Y-70771D01*
X102152Y-70931D01*
X102570Y-70932D01*
X102956Y-70772D01*
X103251Y-70477D01*
X103412Y-70091D01*
X103412Y-69673D01*
X103412Y-71206D01*
X64042Y-71206D01*
X64042Y-69673D01*
X63882Y-69287D01*
X63587Y-68992D01*
X63201Y-68832D01*
X62784Y-68831D01*
X62398Y-68991D01*
X62102Y-69286D01*
X61942Y-69672D01*
X61941Y-70089D01*
X62101Y-70475D01*
X62396Y-70771D01*
X62782Y-70931D01*
X63200Y-70932D01*
X63586Y-70772D01*
X63881Y-70477D01*
X64041Y-70091D01*
X64042Y-69673D01*
X64042Y-71206D01*
X42478Y-71206D01*
X42478Y-62434D01*
X42478Y-62132D01*
X42436Y-61923D01*
X42318Y-61746D01*
X42141Y-61628D01*
X41933Y-61587D01*
X41724Y-61628D01*
X41547Y-61746D01*
X41429Y-61923D01*
X41387Y-62132D01*
X41387Y-62434D01*
X41429Y-62643D01*
X41547Y-62820D01*
X41724Y-62938D01*
X41933Y-62979D01*
X42141Y-62938D01*
X42318Y-62820D01*
X42436Y-62643D01*
X42478Y-62434D01*
X42478Y-71206D01*
X40478Y-71206D01*
X40478Y-62434D01*
X40478Y-62132D01*
X40436Y-61923D01*
X40318Y-61746D01*
X40141Y-61628D01*
X39933Y-61587D01*
X39724Y-61628D01*
X39547Y-61746D01*
X39429Y-61923D01*
X39387Y-62132D01*
X39387Y-62434D01*
X39429Y-62643D01*
X39547Y-62820D01*
X39724Y-62938D01*
X39933Y-62979D01*
X40141Y-62938D01*
X40318Y-62820D01*
X40436Y-62643D01*
X40478Y-62434D01*
X40478Y-71206D01*
X38478Y-71206D01*
X38478Y-62434D01*
X38478Y-62132D01*
X38436Y-61923D01*
X38318Y-61746D01*
X38141Y-61628D01*
X37933Y-61587D01*
X37724Y-61628D01*
X37547Y-61746D01*
X37429Y-61923D01*
X37387Y-62132D01*
X37387Y-62434D01*
X37429Y-62643D01*
X37547Y-62820D01*
X37724Y-62938D01*
X37933Y-62979D01*
X38141Y-62938D01*
X38318Y-62820D01*
X38436Y-62643D01*
X38478Y-62434D01*
X38478Y-71206D01*
X36478Y-71206D01*
X36478Y-62434D01*
X36478Y-62132D01*
X36436Y-61923D01*
X36318Y-61746D01*
X36141Y-61628D01*
X35933Y-61587D01*
X35724Y-61628D01*
X35547Y-61746D01*
X35429Y-61923D01*
X35387Y-62132D01*
X35387Y-62434D01*
X35429Y-62643D01*
X35547Y-62820D01*
X35724Y-62938D01*
X35933Y-62979D01*
X36141Y-62938D01*
X36318Y-62820D01*
X36436Y-62643D01*
X36478Y-62434D01*
X36478Y-71206D01*
X35359Y-71206D01*
X35359Y-56125D01*
X35268Y-55904D01*
X35108Y-55743D01*
X35268Y-55584D01*
X35359Y-55363D01*
X35359Y-55125D01*
X35268Y-54904D01*
X35100Y-54735D01*
X34879Y-54644D01*
X34641Y-54643D01*
X34420Y-54735D01*
X34251Y-54903D01*
X34159Y-55124D01*
X34159Y-55362D01*
X34250Y-55583D01*
X34411Y-55744D01*
X34358Y-55797D01*
X34196Y-55797D01*
X34025Y-55831D01*
X33880Y-55928D01*
X31617Y-58191D01*
X31520Y-58336D01*
X31486Y-58507D01*
X31486Y-61648D01*
X31425Y-61708D01*
X31387Y-61800D01*
X31387Y-61899D01*
X31387Y-62766D01*
X31425Y-62857D01*
X31495Y-62928D01*
X31587Y-62966D01*
X31687Y-62966D01*
X32277Y-62966D01*
X32369Y-62928D01*
X32440Y-62858D01*
X32478Y-62766D01*
X32478Y-62667D01*
X32478Y-61800D01*
X32440Y-61708D01*
X32379Y-61648D01*
X32379Y-58692D01*
X34159Y-56913D01*
X34159Y-56943D01*
X34159Y-57131D01*
X34222Y-57194D01*
X34709Y-57194D01*
X34709Y-57186D01*
X34809Y-57186D01*
X34809Y-57194D01*
X35297Y-57194D01*
X35359Y-57131D01*
X35359Y-56943D01*
X35359Y-56844D01*
X35321Y-56752D01*
X35251Y-56682D01*
X35194Y-56658D01*
X35268Y-56584D01*
X35359Y-56363D01*
X35359Y-56125D01*
X35359Y-71206D01*
X35359Y-71206D01*
X35359Y-57544D01*
X35359Y-57356D01*
X35297Y-57294D01*
X34809Y-57294D01*
X34809Y-57781D01*
X34872Y-57844D01*
X35159Y-57844D01*
X35251Y-57806D01*
X35321Y-57735D01*
X35359Y-57644D01*
X35359Y-57544D01*
X35359Y-71206D01*
X34709Y-71206D01*
X34709Y-57781D01*
X34709Y-57294D01*
X34222Y-57294D01*
X34159Y-57356D01*
X34159Y-57544D01*
X34159Y-57644D01*
X34198Y-57735D01*
X34268Y-57806D01*
X34360Y-57844D01*
X34647Y-57844D01*
X34709Y-57781D01*
X34709Y-71206D01*
X34478Y-71206D01*
X34478Y-62434D01*
X34478Y-62132D01*
X34436Y-61923D01*
X34318Y-61746D01*
X34141Y-61628D01*
X33933Y-61587D01*
X33724Y-61628D01*
X33547Y-61746D01*
X33429Y-61923D01*
X33387Y-62132D01*
X33387Y-62434D01*
X33429Y-62643D01*
X33547Y-62820D01*
X33724Y-62938D01*
X33933Y-62979D01*
X34141Y-62938D01*
X34318Y-62820D01*
X34436Y-62643D01*
X34478Y-62434D01*
X34478Y-71206D01*
X31302Y-71206D01*
X31302Y-55950D01*
X31302Y-51950D01*
X31218Y-51747D01*
X31063Y-51593D01*
X30861Y-51509D01*
X30643Y-51508D01*
X30440Y-51592D01*
X30285Y-51747D01*
X30202Y-51949D01*
X30201Y-52167D01*
X30285Y-52370D01*
X30440Y-52525D01*
X30642Y-52608D01*
X30860Y-52609D01*
X31063Y-52525D01*
X31217Y-52371D01*
X31301Y-52168D01*
X31302Y-51950D01*
X31302Y-55950D01*
X31218Y-55747D01*
X31063Y-55593D01*
X30861Y-55509D01*
X30643Y-55508D01*
X30440Y-55592D01*
X30285Y-55747D01*
X30202Y-55949D01*
X30201Y-56167D01*
X30285Y-56370D01*
X30440Y-56525D01*
X30642Y-56608D01*
X30860Y-56609D01*
X31063Y-56525D01*
X31217Y-56371D01*
X31301Y-56168D01*
X31302Y-55950D01*
X31302Y-71206D01*
X26345Y-71206D01*
X26345Y-69772D01*
X26185Y-69386D01*
X25890Y-69090D01*
X25505Y-68930D01*
X25087Y-68930D01*
X24701Y-69089D01*
X24405Y-69384D01*
X24245Y-69770D01*
X24245Y-70188D01*
X24404Y-70574D01*
X24699Y-70869D01*
X25085Y-71030D01*
X25503Y-71030D01*
X25889Y-70870D01*
X26184Y-70575D01*
X26345Y-70190D01*
X26345Y-69772D01*
X26345Y-71206D01*
X23950Y-71206D01*
X23950Y-22671D01*
X141305Y-22671D01*
X141305Y-42263D01*
X141294Y-42210D01*
X141197Y-42065D01*
X141197Y-42065D01*
X140813Y-41682D01*
X140813Y-24201D01*
X140654Y-23815D01*
X140359Y-23519D01*
X139973Y-23359D01*
X139555Y-23359D01*
X139169Y-23518D01*
X138874Y-23813D01*
X138713Y-24199D01*
X138713Y-24617D01*
X138873Y-25003D01*
X139168Y-25299D01*
X139554Y-25459D01*
X139971Y-25459D01*
X140357Y-25300D01*
X140653Y-25005D01*
X140813Y-24619D01*
X140813Y-24201D01*
X140813Y-41682D01*
X139895Y-40763D01*
X139895Y-29640D01*
X139768Y-29331D01*
X139531Y-29094D01*
X139223Y-28966D01*
X138888Y-28966D01*
X138579Y-29094D01*
X138342Y-29330D01*
X138214Y-29639D01*
X138214Y-29973D01*
X138342Y-30282D01*
X138578Y-30519D01*
X138887Y-30647D01*
X139221Y-30647D01*
X139530Y-30520D01*
X139767Y-30283D01*
X139895Y-29975D01*
X139895Y-29640D01*
X139895Y-40763D01*
X139895Y-40763D01*
X139895Y-32447D01*
X139895Y-31167D01*
X139857Y-31075D01*
X139787Y-31004D01*
X139695Y-30966D01*
X139596Y-30966D01*
X139167Y-30966D01*
X139105Y-31029D01*
X139105Y-31757D01*
X139833Y-31757D01*
X139895Y-31694D01*
X139895Y-31167D01*
X139895Y-32447D01*
X139895Y-31919D01*
X139833Y-31857D01*
X139105Y-31857D01*
X139105Y-32585D01*
X139167Y-32647D01*
X139596Y-32647D01*
X139695Y-32647D01*
X139787Y-32609D01*
X139857Y-32539D01*
X139895Y-32447D01*
X139895Y-40763D01*
X139005Y-39873D01*
X139005Y-32585D01*
X139005Y-31857D01*
X139005Y-31757D01*
X139005Y-31029D01*
X138942Y-30966D01*
X138514Y-30966D01*
X138414Y-30966D01*
X138322Y-31004D01*
X138252Y-31075D01*
X138214Y-31167D01*
X138214Y-31694D01*
X138277Y-31757D01*
X139005Y-31757D01*
X139005Y-31857D01*
X138277Y-31857D01*
X138214Y-31919D01*
X138214Y-32447D01*
X138252Y-32539D01*
X138322Y-32609D01*
X138414Y-32647D01*
X138514Y-32647D01*
X138942Y-32647D01*
X139005Y-32585D01*
X139005Y-39873D01*
X133828Y-34696D01*
X133828Y-32434D01*
X133828Y-32132D01*
X133787Y-31923D01*
X133669Y-31746D01*
X133492Y-31628D01*
X133283Y-31587D01*
X133074Y-31628D01*
X132897Y-31746D01*
X132779Y-31923D01*
X132738Y-32132D01*
X132738Y-32434D01*
X132779Y-32643D01*
X132897Y-32820D01*
X133074Y-32938D01*
X133283Y-32979D01*
X133492Y-32938D01*
X133669Y-32820D01*
X133787Y-32643D01*
X133828Y-32434D01*
X133828Y-34696D01*
X131782Y-32650D01*
X131787Y-32643D01*
X131828Y-32434D01*
X131828Y-32132D01*
X131787Y-31923D01*
X131669Y-31746D01*
X131492Y-31628D01*
X131283Y-31587D01*
X131074Y-31628D01*
X130897Y-31746D01*
X130779Y-31923D01*
X130738Y-32132D01*
X130738Y-32434D01*
X130779Y-32643D01*
X130836Y-32728D01*
X130836Y-32783D01*
X130870Y-32954D01*
X130967Y-33099D01*
X140435Y-42566D01*
X140435Y-49940D01*
X140228Y-50147D01*
X140173Y-50147D01*
X140153Y-50098D01*
X140082Y-50028D01*
X140029Y-50006D01*
X140098Y-49937D01*
X140190Y-49715D01*
X140191Y-49474D01*
X140099Y-49252D01*
X139941Y-49094D01*
X140098Y-48937D01*
X140190Y-48715D01*
X140191Y-48474D01*
X140099Y-48252D01*
X139941Y-48094D01*
X140098Y-47937D01*
X140190Y-47715D01*
X140191Y-47474D01*
X140099Y-47252D01*
X139941Y-47094D01*
X140098Y-46937D01*
X140190Y-46715D01*
X140191Y-46474D01*
X140099Y-46252D01*
X139941Y-46094D01*
X140098Y-45937D01*
X140190Y-45715D01*
X140191Y-45474D01*
X140099Y-45252D01*
X139941Y-45094D01*
X140098Y-44937D01*
X140190Y-44715D01*
X140191Y-44474D01*
X140099Y-44252D01*
X139941Y-44094D01*
X140098Y-43937D01*
X140190Y-43715D01*
X140191Y-43474D01*
X140099Y-43252D01*
X139929Y-43082D01*
X139707Y-42990D01*
X139466Y-42990D01*
X139244Y-43081D01*
X139074Y-43251D01*
X138982Y-43473D01*
X138982Y-43714D01*
X139073Y-43936D01*
X139231Y-44094D01*
X139074Y-44251D01*
X138982Y-44473D01*
X138982Y-44714D01*
X139073Y-44936D01*
X139231Y-45094D01*
X139074Y-45251D01*
X138982Y-45473D01*
X138982Y-45714D01*
X139073Y-45936D01*
X139231Y-46094D01*
X139178Y-46147D01*
X138972Y-46147D01*
X138450Y-45625D01*
X138450Y-43574D01*
X138523Y-43466D01*
X138557Y-43295D01*
X138523Y-43124D01*
X138426Y-42979D01*
X138281Y-42882D01*
X138110Y-42848D01*
X137939Y-42882D01*
X137794Y-42979D01*
X137687Y-43085D01*
X137591Y-43230D01*
X137557Y-43401D01*
X137557Y-45811D01*
X137591Y-45982D01*
X137687Y-46126D01*
X138471Y-46910D01*
X138471Y-46910D01*
X138616Y-47007D01*
X138787Y-47041D01*
X138787Y-47041D01*
X139178Y-47041D01*
X139231Y-47094D01*
X139074Y-47251D01*
X138982Y-47473D01*
X138982Y-47714D01*
X139073Y-47936D01*
X139231Y-48094D01*
X139178Y-48147D01*
X137968Y-48147D01*
X137112Y-47291D01*
X137112Y-41326D01*
X137078Y-41155D01*
X136981Y-41010D01*
X136981Y-41010D01*
X134237Y-38266D01*
X134092Y-38169D01*
X133921Y-38135D01*
X129929Y-38135D01*
X129876Y-38082D01*
X130035Y-37922D01*
X130127Y-37702D01*
X130127Y-37463D01*
X130036Y-37243D01*
X129867Y-37074D01*
X129647Y-36982D01*
X129408Y-36982D01*
X129188Y-37073D01*
X129019Y-37242D01*
X128927Y-37462D01*
X128927Y-37701D01*
X129018Y-37922D01*
X129179Y-38082D01*
X129019Y-38242D01*
X128927Y-38462D01*
X128927Y-38701D01*
X129018Y-38922D01*
X129093Y-38996D01*
X129036Y-39020D01*
X128965Y-39090D01*
X128927Y-39182D01*
X128927Y-39282D01*
X128927Y-39470D01*
X128990Y-39532D01*
X129477Y-39532D01*
X129477Y-39524D01*
X129577Y-39524D01*
X129577Y-39532D01*
X130065Y-39532D01*
X130127Y-39470D01*
X130127Y-39282D01*
X130127Y-39182D01*
X130089Y-39090D01*
X130027Y-39029D01*
X133736Y-39029D01*
X136218Y-41511D01*
X136218Y-47476D01*
X136252Y-47647D01*
X136349Y-47792D01*
X137467Y-48910D01*
X137467Y-48910D01*
X137612Y-49007D01*
X137783Y-49041D01*
X139178Y-49041D01*
X139231Y-49094D01*
X139178Y-49147D01*
X137480Y-49147D01*
X130127Y-41794D01*
X130127Y-39883D01*
X130127Y-39695D01*
X130065Y-39632D01*
X129577Y-39632D01*
X129577Y-40120D01*
X129640Y-40182D01*
X129927Y-40182D01*
X130018Y-40144D01*
X130089Y-40074D01*
X130127Y-39982D01*
X130127Y-39883D01*
X130127Y-41794D01*
X129477Y-41144D01*
X129477Y-40120D01*
X129477Y-39632D01*
X128990Y-39632D01*
X128927Y-39695D01*
X128927Y-39883D01*
X128927Y-39982D01*
X128965Y-40074D01*
X129036Y-40144D01*
X129128Y-40182D01*
X129415Y-40182D01*
X129477Y-40120D01*
X129477Y-41144D01*
X126438Y-38105D01*
X126464Y-38116D01*
X126683Y-38117D01*
X126885Y-38033D01*
X127040Y-37878D01*
X127124Y-37676D01*
X127124Y-37458D01*
X127041Y-37255D01*
X126886Y-37100D01*
X126684Y-37017D01*
X126465Y-37016D01*
X126263Y-37100D01*
X126108Y-37254D01*
X126024Y-37457D01*
X126024Y-37675D01*
X126036Y-37703D01*
X125828Y-37496D01*
X125828Y-32434D01*
X125828Y-32132D01*
X125787Y-31923D01*
X125669Y-31746D01*
X125492Y-31628D01*
X125283Y-31587D01*
X125074Y-31628D01*
X124897Y-31746D01*
X124779Y-31923D01*
X124738Y-32132D01*
X124738Y-32434D01*
X124779Y-32643D01*
X124897Y-32820D01*
X125074Y-32938D01*
X125283Y-32979D01*
X125492Y-32938D01*
X125669Y-32820D01*
X125787Y-32643D01*
X125828Y-32434D01*
X125828Y-37496D01*
X122245Y-33912D01*
X122100Y-33815D01*
X121929Y-33781D01*
X121730Y-33781D01*
X121730Y-32728D01*
X121787Y-32643D01*
X121828Y-32434D01*
X121828Y-32132D01*
X121787Y-31923D01*
X121669Y-31746D01*
X121492Y-31628D01*
X121283Y-31587D01*
X121074Y-31628D01*
X120897Y-31746D01*
X120779Y-31923D01*
X120738Y-32132D01*
X120738Y-32434D01*
X120779Y-32643D01*
X120836Y-32728D01*
X120836Y-34043D01*
X120484Y-34395D01*
X104025Y-34395D01*
X104025Y-32434D01*
X104025Y-32132D01*
X103984Y-31923D01*
X103865Y-31746D01*
X103688Y-31628D01*
X103480Y-31587D01*
X103271Y-31628D01*
X103094Y-31746D01*
X102976Y-31923D01*
X102935Y-32132D01*
X102935Y-32434D01*
X102976Y-32643D01*
X103094Y-32820D01*
X103271Y-32938D01*
X103480Y-32979D01*
X103688Y-32938D01*
X103865Y-32820D01*
X103984Y-32643D01*
X104025Y-32434D01*
X104025Y-34395D01*
X100279Y-34395D01*
X100315Y-34371D01*
X101796Y-32890D01*
X101796Y-32890D01*
X101796Y-32890D01*
X101825Y-32847D01*
X101825Y-32847D01*
X101865Y-32820D01*
X101984Y-32643D01*
X102025Y-32434D01*
X102025Y-32132D01*
X102015Y-32081D01*
X102547Y-31549D01*
X119685Y-31549D01*
X119856Y-31515D01*
X120001Y-31418D01*
X120097Y-31273D01*
X120131Y-31102D01*
X120097Y-30931D01*
X120001Y-30786D01*
X119856Y-30689D01*
X119685Y-30655D01*
X102362Y-30655D01*
X102191Y-30689D01*
X102046Y-30786D01*
X101164Y-31668D01*
X101125Y-31725D01*
X101094Y-31746D01*
X100976Y-31923D01*
X100935Y-32132D01*
X100935Y-32434D01*
X100943Y-32479D01*
X99814Y-33608D01*
X96025Y-33608D01*
X96025Y-32434D01*
X96025Y-32132D01*
X95984Y-31923D01*
X95865Y-31746D01*
X95688Y-31628D01*
X95480Y-31587D01*
X95271Y-31628D01*
X95094Y-31746D01*
X94976Y-31923D01*
X94935Y-32132D01*
X94935Y-32434D01*
X94976Y-32643D01*
X95094Y-32820D01*
X95271Y-32938D01*
X95480Y-32979D01*
X95688Y-32938D01*
X95865Y-32820D01*
X95984Y-32643D01*
X96025Y-32434D01*
X96025Y-33608D01*
X93700Y-33608D01*
X93529Y-33642D01*
X93384Y-33739D01*
X93287Y-33884D01*
X93253Y-34055D01*
X93287Y-34226D01*
X93384Y-34371D01*
X93421Y-34395D01*
X92114Y-34395D01*
X91927Y-34208D01*
X91927Y-32728D01*
X91984Y-32643D01*
X92025Y-32434D01*
X92025Y-32132D01*
X91984Y-31923D01*
X91865Y-31746D01*
X91688Y-31628D01*
X91480Y-31587D01*
X91271Y-31628D01*
X91094Y-31746D01*
X90976Y-31923D01*
X90935Y-32132D01*
X90935Y-32434D01*
X90976Y-32643D01*
X91033Y-32728D01*
X91033Y-34121D01*
X90759Y-34395D01*
X90042Y-34395D01*
X90079Y-34371D01*
X90176Y-34226D01*
X90210Y-34055D01*
X90176Y-33884D01*
X90079Y-33739D01*
X89934Y-33642D01*
X89763Y-33608D01*
X75393Y-33608D01*
X72232Y-33608D01*
X72163Y-33539D01*
X72163Y-32728D01*
X72220Y-32643D01*
X72261Y-32434D01*
X72261Y-32132D01*
X72220Y-31923D01*
X72102Y-31746D01*
X71925Y-31628D01*
X71922Y-31627D01*
X73510Y-31627D01*
X73507Y-31628D01*
X73330Y-31746D01*
X73212Y-31923D01*
X73171Y-32132D01*
X73171Y-32434D01*
X73212Y-32643D01*
X73330Y-32820D01*
X73507Y-32938D01*
X73716Y-32979D01*
X73925Y-32938D01*
X74102Y-32820D01*
X74162Y-32730D01*
X89763Y-32730D01*
X89934Y-32696D01*
X90079Y-32599D01*
X90176Y-32454D01*
X90210Y-32283D01*
X90176Y-32112D01*
X90079Y-31967D01*
X89934Y-31870D01*
X89763Y-31836D01*
X74162Y-31836D01*
X74102Y-31746D01*
X73925Y-31628D01*
X73922Y-31627D01*
X75984Y-31627D01*
X76155Y-31593D01*
X76155Y-31593D01*
X76300Y-31497D01*
X80054Y-27743D01*
X80151Y-27598D01*
X80185Y-27427D01*
X80185Y-27427D01*
X80185Y-27405D01*
X80238Y-27352D01*
X80395Y-27510D01*
X80617Y-27602D01*
X80857Y-27602D01*
X81080Y-27510D01*
X81238Y-27352D01*
X81395Y-27510D01*
X81617Y-27602D01*
X81857Y-27602D01*
X82080Y-27510D01*
X82238Y-27352D01*
X82291Y-27405D01*
X82291Y-28328D01*
X82325Y-28499D01*
X82422Y-28644D01*
X85156Y-31378D01*
X85301Y-31475D01*
X85301Y-31475D01*
X85472Y-31509D01*
X92074Y-31509D01*
X92935Y-32370D01*
X92935Y-32434D01*
X92976Y-32643D01*
X93094Y-32820D01*
X93271Y-32938D01*
X93480Y-32979D01*
X93688Y-32938D01*
X93865Y-32820D01*
X93984Y-32643D01*
X94025Y-32434D01*
X94025Y-32132D01*
X93984Y-31923D01*
X93865Y-31746D01*
X93688Y-31628D01*
X93480Y-31587D01*
X93426Y-31597D01*
X92575Y-30747D01*
X92480Y-30683D01*
X95917Y-30683D01*
X97033Y-31799D01*
X97033Y-31838D01*
X96976Y-31923D01*
X96935Y-32132D01*
X96935Y-32434D01*
X96976Y-32643D01*
X97094Y-32820D01*
X97271Y-32938D01*
X97480Y-32979D01*
X97688Y-32938D01*
X97865Y-32820D01*
X97984Y-32643D01*
X98025Y-32434D01*
X98025Y-32132D01*
X97984Y-31923D01*
X97927Y-31838D01*
X97927Y-31614D01*
X97893Y-31443D01*
X97796Y-31298D01*
X97796Y-31298D01*
X96511Y-30013D01*
X97373Y-30013D01*
X99033Y-31673D01*
X99033Y-31838D01*
X98976Y-31923D01*
X98935Y-32132D01*
X98935Y-32434D01*
X98976Y-32643D01*
X99094Y-32820D01*
X99271Y-32938D01*
X99480Y-32979D01*
X99688Y-32938D01*
X99865Y-32820D01*
X99984Y-32643D01*
X100025Y-32434D01*
X100025Y-32132D01*
X99984Y-31923D01*
X99927Y-31838D01*
X99927Y-31488D01*
X99893Y-31317D01*
X99893Y-31317D01*
X99796Y-31172D01*
X97929Y-29305D01*
X119673Y-29305D01*
X122738Y-32370D01*
X122738Y-32434D01*
X122779Y-32643D01*
X122897Y-32820D01*
X123074Y-32938D01*
X123283Y-32979D01*
X123492Y-32938D01*
X123669Y-32820D01*
X123787Y-32643D01*
X123828Y-32434D01*
X123828Y-32132D01*
X123787Y-31923D01*
X123669Y-31746D01*
X123492Y-31628D01*
X123283Y-31587D01*
X123229Y-31597D01*
X120174Y-28542D01*
X120137Y-28517D01*
X122885Y-28517D01*
X126738Y-32370D01*
X126738Y-32434D01*
X126779Y-32643D01*
X126897Y-32820D01*
X127074Y-32938D01*
X127283Y-32979D01*
X127492Y-32938D01*
X127669Y-32820D01*
X127787Y-32643D01*
X127828Y-32434D01*
X127828Y-32132D01*
X127787Y-31923D01*
X127669Y-31746D01*
X127492Y-31628D01*
X127283Y-31587D01*
X127229Y-31597D01*
X123386Y-27754D01*
X123241Y-27658D01*
X123070Y-27624D01*
X91248Y-27624D01*
X91185Y-27560D01*
X91185Y-27405D01*
X91238Y-27352D01*
X91395Y-27510D01*
X91617Y-27602D01*
X91857Y-27602D01*
X92080Y-27510D01*
X92238Y-27352D01*
X92395Y-27510D01*
X92617Y-27602D01*
X92857Y-27602D01*
X93080Y-27510D01*
X93238Y-27352D01*
X93395Y-27510D01*
X93617Y-27602D01*
X93857Y-27602D01*
X94080Y-27510D01*
X94250Y-27340D01*
X94342Y-27118D01*
X94342Y-26883D01*
X104173Y-26883D01*
X104276Y-26863D01*
X104363Y-26804D01*
X104422Y-26717D01*
X104442Y-26614D01*
X104422Y-26510D01*
X104363Y-26423D01*
X104276Y-26365D01*
X104212Y-26352D01*
X122720Y-26352D01*
X128738Y-32370D01*
X128738Y-32434D01*
X128779Y-32643D01*
X128897Y-32820D01*
X129074Y-32938D01*
X129283Y-32979D01*
X129492Y-32938D01*
X129669Y-32820D01*
X129787Y-32643D01*
X129828Y-32434D01*
X129828Y-32132D01*
X129787Y-31923D01*
X129669Y-31746D01*
X129492Y-31628D01*
X129283Y-31587D01*
X129229Y-31597D01*
X123221Y-25589D01*
X123076Y-25492D01*
X122905Y-25458D01*
X103412Y-25458D01*
X103412Y-23807D01*
X103252Y-23421D01*
X102957Y-23126D01*
X102571Y-22965D01*
X102154Y-22965D01*
X101768Y-23125D01*
X101472Y-23420D01*
X101312Y-23805D01*
X101312Y-24223D01*
X101471Y-24609D01*
X101766Y-24905D01*
X102152Y-25065D01*
X102570Y-25065D01*
X102956Y-24906D01*
X103251Y-24611D01*
X103412Y-24225D01*
X103412Y-23807D01*
X103412Y-25458D01*
X92283Y-25458D01*
X92112Y-25492D01*
X91967Y-25589D01*
X91422Y-26134D01*
X91325Y-26279D01*
X91291Y-26450D01*
X91291Y-26590D01*
X91238Y-26643D01*
X91080Y-26486D01*
X90858Y-26393D01*
X90618Y-26393D01*
X90396Y-26485D01*
X90238Y-26643D01*
X90080Y-26486D01*
X89858Y-26393D01*
X89618Y-26393D01*
X89396Y-26485D01*
X89238Y-26643D01*
X89080Y-26486D01*
X88858Y-26393D01*
X88618Y-26393D01*
X88396Y-26485D01*
X88238Y-26643D01*
X88080Y-26486D01*
X87858Y-26393D01*
X87618Y-26393D01*
X87396Y-26485D01*
X87238Y-26643D01*
X87080Y-26486D01*
X86858Y-26393D01*
X86618Y-26393D01*
X86396Y-26485D01*
X86238Y-26643D01*
X86080Y-26486D01*
X85858Y-26393D01*
X85618Y-26393D01*
X85396Y-26485D01*
X85238Y-26643D01*
X85080Y-26486D01*
X84858Y-26393D01*
X84618Y-26393D01*
X84396Y-26485D01*
X84238Y-26643D01*
X84080Y-26486D01*
X83858Y-26393D01*
X83618Y-26393D01*
X83396Y-26485D01*
X83238Y-26643D01*
X83080Y-26486D01*
X82858Y-26393D01*
X82618Y-26393D01*
X82396Y-26485D01*
X82238Y-26643D01*
X82080Y-26486D01*
X81858Y-26393D01*
X81618Y-26393D01*
X81396Y-26485D01*
X81238Y-26643D01*
X81080Y-26486D01*
X80858Y-26393D01*
X80618Y-26393D01*
X80396Y-26485D01*
X80238Y-26643D01*
X80080Y-26486D01*
X79858Y-26393D01*
X79618Y-26393D01*
X79396Y-26485D01*
X79238Y-26643D01*
X79080Y-26486D01*
X78858Y-26393D01*
X78618Y-26393D01*
X78396Y-26485D01*
X78238Y-26643D01*
X78080Y-26486D01*
X77858Y-26393D01*
X77618Y-26393D01*
X77396Y-26485D01*
X77238Y-26643D01*
X77080Y-26486D01*
X76858Y-26393D01*
X76618Y-26393D01*
X76396Y-26485D01*
X76238Y-26643D01*
X76080Y-26486D01*
X75858Y-26393D01*
X75618Y-26393D01*
X75396Y-26485D01*
X75238Y-26643D01*
X75080Y-26486D01*
X74858Y-26393D01*
X74618Y-26393D01*
X74396Y-26485D01*
X74238Y-26643D01*
X74080Y-26486D01*
X73858Y-26393D01*
X73618Y-26393D01*
X73396Y-26485D01*
X73238Y-26643D01*
X73080Y-26486D01*
X72858Y-26393D01*
X72618Y-26393D01*
X72396Y-26485D01*
X72238Y-26643D01*
X72080Y-26486D01*
X71858Y-26393D01*
X71618Y-26393D01*
X71396Y-26485D01*
X71326Y-26555D01*
X71304Y-26502D01*
X71234Y-26431D01*
X71142Y-26393D01*
X71043Y-26393D01*
X70334Y-26393D01*
X70242Y-26431D01*
X70172Y-26501D01*
X70151Y-26551D01*
X63813Y-26551D01*
X63813Y-24204D01*
X63655Y-23822D01*
X63363Y-23530D01*
X62982Y-23372D01*
X62570Y-23371D01*
X62188Y-23529D01*
X61896Y-23821D01*
X61738Y-24202D01*
X61738Y-24614D01*
X61895Y-24996D01*
X62187Y-25288D01*
X62568Y-25446D01*
X62981Y-25447D01*
X63362Y-25289D01*
X63654Y-24997D01*
X63812Y-24616D01*
X63813Y-24204D01*
X63813Y-26551D01*
X38356Y-26551D01*
X38185Y-26585D01*
X38040Y-26682D01*
X33617Y-31105D01*
X33520Y-31250D01*
X33486Y-31421D01*
X33486Y-31838D01*
X33429Y-31923D01*
X33387Y-32132D01*
X33387Y-32434D01*
X33429Y-32643D01*
X33547Y-32820D01*
X33724Y-32938D01*
X33933Y-32979D01*
X34141Y-32938D01*
X34318Y-32820D01*
X34436Y-32643D01*
X34478Y-32434D01*
X34478Y-32132D01*
X34436Y-31923D01*
X34379Y-31838D01*
X34379Y-31606D01*
X38541Y-27444D01*
X70151Y-27444D01*
X70171Y-27493D01*
X70242Y-27564D01*
X70333Y-27602D01*
X70433Y-27602D01*
X71142Y-27602D01*
X71233Y-27564D01*
X71304Y-27494D01*
X71326Y-27440D01*
X71395Y-27510D01*
X71617Y-27602D01*
X71857Y-27602D01*
X71968Y-27556D01*
X71783Y-27742D01*
X41220Y-27742D01*
X41049Y-27776D01*
X40904Y-27873D01*
X37617Y-31160D01*
X37520Y-31305D01*
X37486Y-31476D01*
X37486Y-31838D01*
X37429Y-31923D01*
X37387Y-32132D01*
X37387Y-32434D01*
X37429Y-32643D01*
X37547Y-32820D01*
X37724Y-32938D01*
X37933Y-32979D01*
X38141Y-32938D01*
X38318Y-32820D01*
X38436Y-32643D01*
X38478Y-32434D01*
X38478Y-32132D01*
X38436Y-31923D01*
X38379Y-31838D01*
X38379Y-31661D01*
X41405Y-28635D01*
X42267Y-28635D01*
X39617Y-31286D01*
X39520Y-31431D01*
X39486Y-31602D01*
X39486Y-31838D01*
X39429Y-31923D01*
X39387Y-32132D01*
X39387Y-32434D01*
X39429Y-32643D01*
X39547Y-32820D01*
X39724Y-32938D01*
X39933Y-32979D01*
X40141Y-32938D01*
X40318Y-32820D01*
X40436Y-32643D01*
X40478Y-32434D01*
X40478Y-32132D01*
X40436Y-31923D01*
X40379Y-31838D01*
X40379Y-31787D01*
X42822Y-29344D01*
X72519Y-29344D01*
X72690Y-29310D01*
X72690Y-29310D01*
X72835Y-29213D01*
X74054Y-27995D01*
X74054Y-27995D01*
X74151Y-27850D01*
X74185Y-27679D01*
X74185Y-27679D01*
X74185Y-27405D01*
X74238Y-27352D01*
X74395Y-27510D01*
X74617Y-27602D01*
X74857Y-27602D01*
X75080Y-27510D01*
X75238Y-27352D01*
X75395Y-27510D01*
X75617Y-27602D01*
X75857Y-27602D01*
X76062Y-27517D01*
X74224Y-29356D01*
X64685Y-29356D01*
X64514Y-29390D01*
X64369Y-29487D01*
X63400Y-30455D01*
X63303Y-30600D01*
X63269Y-30771D01*
X63269Y-31838D01*
X63242Y-31879D01*
X63242Y-31496D01*
X63208Y-31325D01*
X63111Y-31180D01*
X63111Y-31180D01*
X61930Y-29998D01*
X61785Y-29902D01*
X61614Y-29868D01*
X42716Y-29868D01*
X42545Y-29902D01*
X42400Y-29998D01*
X42400Y-29998D01*
X42400Y-29998D01*
X41617Y-30782D01*
X41520Y-30927D01*
X41486Y-31098D01*
X41486Y-31838D01*
X41429Y-31923D01*
X41387Y-32132D01*
X41387Y-32434D01*
X41429Y-32643D01*
X41547Y-32820D01*
X41724Y-32938D01*
X41933Y-32979D01*
X42141Y-32938D01*
X42318Y-32820D01*
X42436Y-32643D01*
X42478Y-32434D01*
X42478Y-32132D01*
X42436Y-31923D01*
X42379Y-31838D01*
X42379Y-31283D01*
X42901Y-30761D01*
X61429Y-30761D01*
X62348Y-31681D01*
X62348Y-33267D01*
X62382Y-33438D01*
X62479Y-33583D01*
X63266Y-34371D01*
X63303Y-34395D01*
X62586Y-34395D01*
X62163Y-33972D01*
X62163Y-32728D01*
X62220Y-32643D01*
X62261Y-32434D01*
X62261Y-32132D01*
X62220Y-31923D01*
X62102Y-31746D01*
X61925Y-31628D01*
X61716Y-31587D01*
X61507Y-31628D01*
X61330Y-31746D01*
X61212Y-31923D01*
X61171Y-32132D01*
X61171Y-32434D01*
X61212Y-32643D01*
X61269Y-32728D01*
X61269Y-33964D01*
X60838Y-34395D01*
X59501Y-34395D01*
X59501Y-33661D01*
X59467Y-33490D01*
X59371Y-33345D01*
X57993Y-31967D01*
X57848Y-31870D01*
X57677Y-31836D01*
X44378Y-31836D01*
X44318Y-31746D01*
X44141Y-31628D01*
X43933Y-31587D01*
X43724Y-31628D01*
X43547Y-31746D01*
X43429Y-31923D01*
X43387Y-32132D01*
X43387Y-32434D01*
X43429Y-32643D01*
X43547Y-32820D01*
X43724Y-32938D01*
X43933Y-32979D01*
X44141Y-32938D01*
X44318Y-32820D01*
X44378Y-32730D01*
X52625Y-32730D01*
X52624Y-32736D01*
X52644Y-32839D01*
X52703Y-32926D01*
X52790Y-32985D01*
X52893Y-33005D01*
X52913Y-33005D01*
X53016Y-32985D01*
X53104Y-32926D01*
X53162Y-32839D01*
X53183Y-32736D01*
X53181Y-32730D01*
X57492Y-32730D01*
X58739Y-33977D01*
X58884Y-34074D01*
X59055Y-34108D01*
X59226Y-34074D01*
X59371Y-33977D01*
X59467Y-33832D01*
X59501Y-33661D01*
X59501Y-34395D01*
X36478Y-34395D01*
X36478Y-32434D01*
X36478Y-32132D01*
X36436Y-31923D01*
X36318Y-31746D01*
X36141Y-31628D01*
X35933Y-31587D01*
X35724Y-31628D01*
X35547Y-31746D01*
X35429Y-31923D01*
X35387Y-32132D01*
X35387Y-32434D01*
X35429Y-32643D01*
X35547Y-32820D01*
X35724Y-32938D01*
X35933Y-32979D01*
X36141Y-32938D01*
X36318Y-32820D01*
X36436Y-32643D01*
X36478Y-32434D01*
X36478Y-34395D01*
X33255Y-34395D01*
X32379Y-33519D01*
X32379Y-32728D01*
X32436Y-32643D01*
X32478Y-32434D01*
X32478Y-32132D01*
X32436Y-31923D01*
X32318Y-31746D01*
X32141Y-31628D01*
X31933Y-31587D01*
X31724Y-31628D01*
X31547Y-31746D01*
X31429Y-31923D01*
X31387Y-32132D01*
X31387Y-32434D01*
X31429Y-32643D01*
X31486Y-32728D01*
X31486Y-33704D01*
X31520Y-33875D01*
X31617Y-34020D01*
X32754Y-35158D01*
X32899Y-35255D01*
X32899Y-35255D01*
X33070Y-35289D01*
X61023Y-35289D01*
X61194Y-35255D01*
X61194Y-35255D01*
X61339Y-35158D01*
X61712Y-34785D01*
X62085Y-35158D01*
X62085Y-35158D01*
X62230Y-35255D01*
X62401Y-35289D01*
X90944Y-35289D01*
X91115Y-35255D01*
X91115Y-35255D01*
X91260Y-35158D01*
X91437Y-34982D01*
X91613Y-35158D01*
X91613Y-35158D01*
X91758Y-35255D01*
X91929Y-35289D01*
X120669Y-35289D01*
X120840Y-35255D01*
X120840Y-35255D01*
X120985Y-35158D01*
X121468Y-34675D01*
X121744Y-34675D01*
X136979Y-49910D01*
X137124Y-50007D01*
X137295Y-50041D01*
X139077Y-50041D01*
X139020Y-50098D01*
X138982Y-50190D01*
X138982Y-50289D01*
X138982Y-50998D01*
X139020Y-51090D01*
X139090Y-51160D01*
X139182Y-51198D01*
X139281Y-51198D01*
X139990Y-51198D01*
X140082Y-51160D01*
X140152Y-51090D01*
X140173Y-51041D01*
X140413Y-51041D01*
X140584Y-51007D01*
X140584Y-51007D01*
X140729Y-50910D01*
X141197Y-50441D01*
X141294Y-50296D01*
X141294Y-50296D01*
X141305Y-50244D01*
X141305Y-71206D01*
M02*
