G04 (created by PCBNEW (2013-07-07 BZR 4022)-stable) date 12/25/2014 10:33:01 AM*
%MOIN*%
G04 Gerber Fmt 3.4, Leading zero omitted, Abs format*
%FSLAX34Y34*%
G01*
G70*
G90*
G04 APERTURE LIST*
%ADD10C,0.00590551*%
%ADD11R,0.0708661X0.0708661*%
%ADD12C,0.0708661*%
%ADD13C,0.06*%
%ADD14R,0.06X0.06*%
%ADD15R,0.1181X0.1181*%
%ADD16C,0.1181*%
%ADD17C,0.07*%
%ADD18R,0.07X0.07*%
%ADD19C,0.23622*%
%ADD20C,0.16*%
%ADD21C,0.15748*%
%ADD22R,0.0590551X0.0866142*%
%ADD23O,0.0590551X0.0866142*%
G04 APERTURE END LIST*
G54D10*
G54D11*
X25944Y-50594D03*
G54D12*
X25944Y-49594D03*
X25944Y-48594D03*
X25944Y-47594D03*
X25944Y-46594D03*
X25944Y-45594D03*
X25944Y-44594D03*
X25944Y-43594D03*
G54D11*
X70738Y-26998D03*
G54D12*
X71738Y-26998D03*
X72738Y-26998D03*
X73738Y-26998D03*
X74738Y-26998D03*
X75738Y-26998D03*
X76738Y-26998D03*
X77738Y-26998D03*
X78738Y-26998D03*
X79738Y-26998D03*
X80738Y-26998D03*
X81738Y-26998D03*
X82738Y-26998D03*
X83738Y-26998D03*
X84738Y-26998D03*
X85738Y-26998D03*
X86738Y-26998D03*
X87738Y-26998D03*
X88738Y-26998D03*
X89738Y-26998D03*
X90738Y-26998D03*
X91738Y-26998D03*
X92738Y-26998D03*
X93738Y-26998D03*
G54D13*
X98031Y-37566D03*
X98031Y-41566D03*
X35433Y-37566D03*
X35433Y-41566D03*
X126574Y-37566D03*
X126574Y-41566D03*
X111948Y-56059D03*
X111948Y-52059D03*
X30751Y-56059D03*
X30751Y-52059D03*
X128149Y-56724D03*
X128149Y-52724D03*
X53681Y-56059D03*
X53681Y-52059D03*
G54D11*
X139586Y-50594D03*
G54D12*
X139586Y-49594D03*
X139586Y-48594D03*
X139586Y-47594D03*
X139586Y-46594D03*
X139586Y-45594D03*
X139586Y-44594D03*
X139586Y-43594D03*
G54D14*
X118251Y-50598D03*
G54D13*
X119251Y-50598D03*
X118251Y-49598D03*
X119251Y-49598D03*
X118251Y-48598D03*
X119251Y-48598D03*
X118251Y-47598D03*
X119251Y-47598D03*
X118251Y-46598D03*
X119251Y-46598D03*
X118251Y-45598D03*
X119251Y-45598D03*
X118251Y-44598D03*
X119251Y-44598D03*
X118251Y-43598D03*
X119251Y-43598D03*
G54D15*
X139055Y-31807D03*
G54D16*
X139055Y-29807D03*
G54D15*
X25964Y-31807D03*
G54D16*
X25964Y-29807D03*
G54D17*
X101574Y-37582D03*
X101574Y-38582D03*
G54D18*
X101574Y-39582D03*
G54D17*
X129527Y-37582D03*
X129527Y-38582D03*
G54D18*
X129527Y-39582D03*
G54D17*
X38779Y-37582D03*
X38779Y-38582D03*
G54D18*
X38779Y-39582D03*
G54D17*
X107699Y-55244D03*
X107699Y-56244D03*
G54D18*
X107699Y-57244D03*
G54D17*
X34759Y-55244D03*
X34759Y-56244D03*
G54D18*
X34759Y-57244D03*
G54D17*
X133350Y-55244D03*
X133350Y-56244D03*
G54D18*
X133350Y-57244D03*
G54D17*
X57480Y-55244D03*
X57480Y-56244D03*
G54D18*
X57480Y-57244D03*
G54D19*
X93937Y-54921D03*
X70511Y-54921D03*
G54D20*
X139665Y-69881D03*
X25787Y-24212D03*
X139763Y-24409D03*
G54D21*
X62775Y-24409D03*
G54D20*
X25295Y-69980D03*
X62992Y-69881D03*
G54D22*
X31933Y-62283D03*
G54D23*
X33933Y-62283D03*
X35933Y-62283D03*
X37933Y-62283D03*
X39933Y-62283D03*
X41933Y-62283D03*
X43933Y-62283D03*
X43933Y-32283D03*
X41933Y-32283D03*
X39933Y-32283D03*
X37933Y-32283D03*
X35933Y-32283D03*
X33933Y-32283D03*
X31933Y-32283D03*
G54D22*
X61716Y-62283D03*
G54D23*
X63716Y-62283D03*
X65716Y-62283D03*
X67716Y-62283D03*
X69716Y-62283D03*
X71716Y-62283D03*
X73716Y-62283D03*
X73716Y-32283D03*
X71716Y-32283D03*
X69716Y-32283D03*
X67716Y-32283D03*
X65716Y-32283D03*
X63716Y-32283D03*
X61716Y-32283D03*
G54D22*
X91480Y-62283D03*
G54D23*
X93480Y-62283D03*
X95480Y-62283D03*
X97480Y-62283D03*
X99480Y-62283D03*
X101480Y-62283D03*
X103480Y-62283D03*
X103480Y-32283D03*
X101480Y-32283D03*
X99480Y-32283D03*
X97480Y-32283D03*
X95480Y-32283D03*
X93480Y-32283D03*
X91480Y-32283D03*
G54D22*
X121283Y-62283D03*
G54D23*
X123283Y-62283D03*
X125283Y-62283D03*
X127283Y-62283D03*
X129283Y-62283D03*
X131283Y-62283D03*
X133283Y-62283D03*
X133283Y-32283D03*
X131283Y-32283D03*
X129283Y-32283D03*
X127283Y-32283D03*
X125283Y-32283D03*
X123283Y-32283D03*
X121283Y-32283D03*
G54D20*
X102362Y-69881D03*
X102362Y-24015D03*
M02*
