M48
;DRILL file {Pcbnew (2013-07-07 BZR 4022)-stable} date 12/25/2014 10:33:03 AM
;FORMAT={-:-/ absolute / inch / decimal}
FMAT,2
INCH,TZ
T1C0.025
T2C0.031
T3C0.032
T4C0.040
T5C0.049
T6C0.157
T7C0.236
%
G90
G05
M72
T1
X3.5421Y-4.3571
X4.4882Y-4.3268
X4.4882Y-5.2461
X4.6752Y-5.2461
X4.6949Y-4.3406
X5.7677Y-6.4961
X5.9055Y-3.3661
X6.0236Y-6.3976
X6.2992Y-6.4961
X6.5551Y-6.3976
X6.5748Y-4.311
X6.5748Y-5.1969
X7.4213Y-4.311
X7.4213Y-5.1969
X8.374Y-4.2677
X8.376Y-5.2067
X8.6713Y-4.2618
X8.7894Y-4.2421
X8.9764Y-3.2283
X8.9764Y-3.4055
X8.9961Y-6.3976
X8.9961Y-6.4961
X9.2913Y-6.4961
X9.3701Y-3.4055
X9.4488Y-6.3976
X9.5965Y-5.1772
X9.7343Y-5.1772
X10.428Y-5.7594
X10.4323Y-6.0169
X10.4429Y-5.1764
X11.9488Y-6.3976
X11.9488Y-6.4961
X11.9685Y-3.1102
X12.1134Y-5.6209
X12.1417Y-5.161
X12.2441Y-6.4961
X12.2543Y-5.152
X12.9256Y-4.3469
X13.811Y-4.3295
T2
X3.1933Y-3.2283
X3.1933Y-6.2283
X3.3933Y-3.2283
X3.3933Y-6.2283
X3.5933Y-3.2283
X3.5933Y-6.2283
X3.7933Y-3.2283
X3.7933Y-6.2283
X3.9933Y-3.2283
X3.9933Y-6.2283
X4.1933Y-3.2283
X4.1933Y-6.2283
X4.3933Y-3.2283
X4.3933Y-6.2283
X6.1717Y-3.2283
X6.1717Y-6.2283
X6.3717Y-3.2283
X6.3717Y-6.2283
X6.5717Y-3.2283
X6.5717Y-6.2283
X6.7717Y-3.2283
X6.7717Y-6.2283
X6.9717Y-3.2283
X6.9717Y-6.2283
X7.1717Y-3.2283
X7.1717Y-6.2283
X7.3717Y-3.2283
X7.3717Y-6.2283
X9.148Y-3.2283
X9.148Y-6.2283
X9.348Y-3.2283
X9.348Y-6.2283
X9.548Y-3.2283
X9.548Y-6.2283
X9.748Y-3.2283
X9.748Y-6.2283
X9.948Y-3.2283
X9.948Y-6.2283
X10.148Y-3.2283
X10.148Y-6.2283
X10.348Y-3.2283
X10.348Y-6.2283
X12.1283Y-3.2283
X12.1283Y-6.2283
X12.3283Y-3.2283
X12.3283Y-6.2283
X12.5283Y-3.2283
X12.5283Y-6.2283
X12.7283Y-3.2283
X12.7283Y-6.2283
X12.9283Y-3.2283
X12.9283Y-6.2283
X13.1283Y-3.2283
X13.1283Y-6.2283
X13.3283Y-3.2283
X13.3283Y-6.2283
T3
X2.5945Y-4.3594
X2.5945Y-4.4594
X2.5945Y-4.5594
X2.5945Y-4.6594
X2.5945Y-4.7594
X2.5945Y-4.8594
X2.5945Y-4.9594
X2.5945Y-5.0594
X3.0752Y-5.2059
X3.0752Y-5.6059
X3.5433Y-3.7567
X3.5433Y-4.1567
X5.3681Y-5.2059
X5.3681Y-5.6059
X7.0738Y-2.6998
X7.1738Y-2.6998
X7.2738Y-2.6998
X7.3738Y-2.6998
X7.4738Y-2.6998
X7.5738Y-2.6998
X7.6738Y-2.6998
X7.7738Y-2.6998
X7.8738Y-2.6998
X7.9738Y-2.6998
X8.0738Y-2.6998
X8.1738Y-2.6998
X8.2738Y-2.6998
X8.3738Y-2.6998
X8.4738Y-2.6998
X8.5738Y-2.6998
X8.6738Y-2.6998
X8.7738Y-2.6998
X8.8738Y-2.6998
X8.9738Y-2.6998
X9.0738Y-2.6998
X9.1738Y-2.6998
X9.2738Y-2.6998
X9.3738Y-2.6998
X9.8031Y-3.7567
X9.8031Y-4.1567
X11.1949Y-5.2059
X11.1949Y-5.6059
X11.8252Y-4.3598
X11.8252Y-4.4598
X11.8252Y-4.5598
X11.8252Y-4.6598
X11.8252Y-4.7598
X11.8252Y-4.8598
X11.8252Y-4.9598
X11.8252Y-5.0598
X11.9252Y-4.3598
X11.9252Y-4.4598
X11.9252Y-4.5598
X11.9252Y-4.6598
X11.9252Y-4.7598
X11.9252Y-4.8598
X11.9252Y-4.9598
X11.9252Y-5.0598
X12.6575Y-3.7567
X12.6575Y-4.1567
X12.815Y-5.2724
X12.815Y-5.6724
X13.9587Y-4.3594
X13.9587Y-4.4594
X13.9587Y-4.5594
X13.9587Y-4.6594
X13.9587Y-4.7594
X13.9587Y-4.8594
X13.9587Y-4.9594
X13.9587Y-5.0594
T4
X3.476Y-5.5244
X3.476Y-5.6244
X3.476Y-5.7244
X3.878Y-3.7583
X3.878Y-3.8583
X3.878Y-3.9583
X5.748Y-5.5244
X5.748Y-5.6244
X5.748Y-5.7244
X10.1575Y-3.7583
X10.1575Y-3.8583
X10.1575Y-3.9583
X10.7699Y-5.5244
X10.7699Y-5.6244
X10.7699Y-5.7244
X12.9528Y-3.7583
X12.9528Y-3.8583
X12.9528Y-3.9583
X13.335Y-5.5244
X13.335Y-5.6244
X13.335Y-5.7244
T5
X2.5965Y-2.9807
X2.5965Y-3.1807
X13.9055Y-2.9807
X13.9055Y-3.1807
T6
X2.5295Y-6.998
X2.5787Y-2.4213
X6.2776Y-2.4409
X6.2992Y-6.9882
X10.2362Y-2.4016
X10.2362Y-6.9882
X13.9665Y-6.9882
X13.9764Y-2.4409
T7
X7.0512Y-5.4921
X9.3937Y-5.4921
T0
M30
