G04 (created by PCBNEW (2013-07-07 BZR 4022)-stable) date 12/25/2014 10:33:01 AM*
%MOIN*%
G04 Gerber Fmt 3.4, Leading zero omitted, Abs format*
%FSLAX34Y34*%
G01*
G70*
G90*
G04 APERTURE LIST*
%ADD10C,0.00590551*%
%ADD11C,0.015*%
%ADD12C,0.011811*%
%ADD13C,0.0393701*%
%ADD14C,0.393701*%
%ADD15C,0.01*%
G04 APERTURE END LIST*
G54D10*
G54D11*
X94108Y-54301D02*
G75*
G03X94108Y-54301I-900J0D01*
G74*
G01*
X71027Y-54261D02*
G75*
G03X71027Y-54261I-900J0D01*
G74*
G01*
X140565Y-69881D02*
G75*
G03X140565Y-69881I-900J0D01*
G74*
G01*
X26687Y-24212D02*
G75*
G03X26687Y-24212I-900J0D01*
G74*
G01*
X140663Y-24409D02*
G75*
G03X140663Y-24409I-900J0D01*
G74*
G01*
X84364Y-24409D02*
G75*
G03X84364Y-24409I-900J0D01*
G74*
G01*
X26195Y-69980D02*
G75*
G03X26195Y-69980I-900J0D01*
G74*
G01*
X63892Y-69881D02*
G75*
G03X63892Y-69881I-900J0D01*
G74*
G01*
G54D12*
X23120Y-67509D02*
X23090Y-67480D01*
X23159Y-67352D02*
X23100Y-67293D01*
X23179Y-67185D02*
X23090Y-67096D01*
X23228Y-67037D02*
X23110Y-66919D01*
X23287Y-66909D02*
X23090Y-66712D01*
X23307Y-66732D02*
X23090Y-66515D01*
X52893Y-58976D02*
X52500Y-58976D01*
X52500Y-53228D02*
X52893Y-53228D01*
X52893Y-41338D02*
X52500Y-41338D01*
X52893Y-35590D02*
X52500Y-35590D01*
X23366Y-59015D02*
X22972Y-59015D01*
X22972Y-53188D02*
X23366Y-53188D01*
X22972Y-41377D02*
X23366Y-41377D01*
X22972Y-35551D02*
X23366Y-35551D01*
X24566Y-67992D02*
X23307Y-66732D01*
X23267Y-66889D02*
X24370Y-67992D01*
X23090Y-67874D02*
X23248Y-68031D01*
X23425Y-68011D02*
X23110Y-67696D01*
X23129Y-67519D02*
X23602Y-67992D01*
X23799Y-67992D02*
X23169Y-67362D01*
X23228Y-67037D02*
X24173Y-67982D01*
X23986Y-67992D02*
X23198Y-67204D01*
X52500Y-68149D02*
X52500Y-58976D01*
X52500Y-53228D02*
X52500Y-41338D01*
X52500Y-35590D02*
X52500Y-26417D01*
X23366Y-41377D02*
X23366Y-35551D01*
X23366Y-59015D02*
X23366Y-53188D01*
X22972Y-41377D02*
X22972Y-53188D01*
X22972Y-59015D02*
X22972Y-68149D01*
X22972Y-26417D02*
X22972Y-35551D01*
X52893Y-35590D02*
X52893Y-41338D01*
X52893Y-53228D02*
X52893Y-58976D01*
G54D13*
X26720Y-65283D02*
G75*
G03X26720Y-65283I-787J0D01*
G74*
G01*
X26366Y-65283D02*
G75*
G03X26366Y-65283I-433J0D01*
G74*
G01*
G54D14*
X26011Y-65283D02*
G75*
G03X26011Y-65283I-78J0D01*
G74*
G01*
X32011Y-65283D02*
G75*
G03X32011Y-65283I-78J0D01*
G74*
G01*
G54D13*
X32366Y-65283D02*
G75*
G03X32366Y-65283I-433J0D01*
G74*
G01*
X32720Y-65283D02*
G75*
G03X32720Y-65283I-787J0D01*
G74*
G01*
G54D14*
X50011Y-65283D02*
G75*
G03X50011Y-65283I-78J0D01*
G74*
G01*
G54D13*
X50366Y-65283D02*
G75*
G03X50366Y-65283I-433J0D01*
G74*
G01*
X50720Y-65283D02*
G75*
G03X50720Y-65283I-787J0D01*
G74*
G01*
X44720Y-65283D02*
G75*
G03X44720Y-65283I-787J0D01*
G74*
G01*
X44366Y-65283D02*
G75*
G03X44366Y-65283I-433J0D01*
G74*
G01*
G54D14*
X44011Y-65283D02*
G75*
G03X44011Y-65283I-78J0D01*
G74*
G01*
X38011Y-65283D02*
G75*
G03X38011Y-65283I-78J0D01*
G74*
G01*
G54D13*
X38366Y-65283D02*
G75*
G03X38366Y-65283I-433J0D01*
G74*
G01*
X38720Y-65283D02*
G75*
G03X38720Y-65283I-787J0D01*
G74*
G01*
X26720Y-59283D02*
G75*
G03X26720Y-59283I-787J0D01*
G74*
G01*
X26366Y-59283D02*
G75*
G03X26366Y-59283I-433J0D01*
G74*
G01*
G54D14*
X26011Y-59283D02*
G75*
G03X26011Y-59283I-78J0D01*
G74*
G01*
X32011Y-59283D02*
G75*
G03X32011Y-59283I-78J0D01*
G74*
G01*
G54D13*
X32366Y-59283D02*
G75*
G03X32366Y-59283I-433J0D01*
G74*
G01*
X32720Y-59283D02*
G75*
G03X32720Y-59283I-787J0D01*
G74*
G01*
G54D14*
X50011Y-59283D02*
G75*
G03X50011Y-59283I-78J0D01*
G74*
G01*
G54D13*
X50366Y-59283D02*
G75*
G03X50366Y-59283I-433J0D01*
G74*
G01*
X50720Y-59283D02*
G75*
G03X50720Y-59283I-787J0D01*
G74*
G01*
X44720Y-59283D02*
G75*
G03X44720Y-59283I-787J0D01*
G74*
G01*
X44366Y-59283D02*
G75*
G03X44366Y-59283I-433J0D01*
G74*
G01*
G54D14*
X44011Y-59283D02*
G75*
G03X44011Y-59283I-78J0D01*
G74*
G01*
X38011Y-59283D02*
G75*
G03X38011Y-59283I-78J0D01*
G74*
G01*
G54D13*
X38366Y-59283D02*
G75*
G03X38366Y-59283I-433J0D01*
G74*
G01*
X38720Y-59283D02*
G75*
G03X38720Y-59283I-787J0D01*
G74*
G01*
X38720Y-53283D02*
G75*
G03X38720Y-53283I-787J0D01*
G74*
G01*
X38366Y-53283D02*
G75*
G03X38366Y-53283I-433J0D01*
G74*
G01*
G54D14*
X38011Y-53283D02*
G75*
G03X38011Y-53283I-78J0D01*
G74*
G01*
X44011Y-53283D02*
G75*
G03X44011Y-53283I-78J0D01*
G74*
G01*
G54D13*
X44366Y-53283D02*
G75*
G03X44366Y-53283I-433J0D01*
G74*
G01*
X44720Y-53283D02*
G75*
G03X44720Y-53283I-787J0D01*
G74*
G01*
X50720Y-53283D02*
G75*
G03X50720Y-53283I-787J0D01*
G74*
G01*
X50366Y-53283D02*
G75*
G03X50366Y-53283I-433J0D01*
G74*
G01*
G54D14*
X50011Y-53283D02*
G75*
G03X50011Y-53283I-78J0D01*
G74*
G01*
G54D13*
X32720Y-53283D02*
G75*
G03X32720Y-53283I-787J0D01*
G74*
G01*
X32366Y-53283D02*
G75*
G03X32366Y-53283I-433J0D01*
G74*
G01*
G54D14*
X32011Y-53283D02*
G75*
G03X32011Y-53283I-78J0D01*
G74*
G01*
X26011Y-53283D02*
G75*
G03X26011Y-53283I-78J0D01*
G74*
G01*
G54D13*
X26366Y-53283D02*
G75*
G03X26366Y-53283I-433J0D01*
G74*
G01*
X26720Y-53283D02*
G75*
G03X26720Y-53283I-787J0D01*
G74*
G01*
X38720Y-29283D02*
G75*
G03X38720Y-29283I-787J0D01*
G74*
G01*
X38366Y-29283D02*
G75*
G03X38366Y-29283I-433J0D01*
G74*
G01*
G54D14*
X38011Y-29283D02*
G75*
G03X38011Y-29283I-78J0D01*
G74*
G01*
X44011Y-29283D02*
G75*
G03X44011Y-29283I-78J0D01*
G74*
G01*
G54D13*
X44366Y-29283D02*
G75*
G03X44366Y-29283I-433J0D01*
G74*
G01*
X44720Y-29283D02*
G75*
G03X44720Y-29283I-787J0D01*
G74*
G01*
X50720Y-29283D02*
G75*
G03X50720Y-29283I-787J0D01*
G74*
G01*
X50366Y-29283D02*
G75*
G03X50366Y-29283I-433J0D01*
G74*
G01*
G54D14*
X50011Y-29283D02*
G75*
G03X50011Y-29283I-78J0D01*
G74*
G01*
G54D13*
X32720Y-29283D02*
G75*
G03X32720Y-29283I-787J0D01*
G74*
G01*
X32366Y-29283D02*
G75*
G03X32366Y-29283I-433J0D01*
G74*
G01*
G54D14*
X32011Y-29283D02*
G75*
G03X32011Y-29283I-78J0D01*
G74*
G01*
X26011Y-29283D02*
G75*
G03X26011Y-29283I-78J0D01*
G74*
G01*
G54D13*
X26366Y-29283D02*
G75*
G03X26366Y-29283I-433J0D01*
G74*
G01*
X26720Y-29283D02*
G75*
G03X26720Y-29283I-787J0D01*
G74*
G01*
X38720Y-35283D02*
G75*
G03X38720Y-35283I-787J0D01*
G74*
G01*
X38366Y-35283D02*
G75*
G03X38366Y-35283I-433J0D01*
G74*
G01*
G54D14*
X38011Y-35283D02*
G75*
G03X38011Y-35283I-78J0D01*
G74*
G01*
X44011Y-35283D02*
G75*
G03X44011Y-35283I-78J0D01*
G74*
G01*
G54D13*
X44366Y-35283D02*
G75*
G03X44366Y-35283I-433J0D01*
G74*
G01*
X44720Y-35283D02*
G75*
G03X44720Y-35283I-787J0D01*
G74*
G01*
X50720Y-35283D02*
G75*
G03X50720Y-35283I-787J0D01*
G74*
G01*
X50366Y-35283D02*
G75*
G03X50366Y-35283I-433J0D01*
G74*
G01*
G54D14*
X50011Y-35283D02*
G75*
G03X50011Y-35283I-78J0D01*
G74*
G01*
G54D13*
X38720Y-41283D02*
G75*
G03X38720Y-41283I-787J0D01*
G74*
G01*
X38366Y-41283D02*
G75*
G03X38366Y-41283I-433J0D01*
G74*
G01*
G54D14*
X38011Y-41283D02*
G75*
G03X38011Y-41283I-78J0D01*
G74*
G01*
X32011Y-41283D02*
G75*
G03X32011Y-41283I-78J0D01*
G74*
G01*
G54D13*
X32366Y-41283D02*
G75*
G03X32366Y-41283I-433J0D01*
G74*
G01*
X32720Y-41283D02*
G75*
G03X32720Y-41283I-787J0D01*
G74*
G01*
X44720Y-41283D02*
G75*
G03X44720Y-41283I-787J0D01*
G74*
G01*
X44366Y-41283D02*
G75*
G03X44366Y-41283I-433J0D01*
G74*
G01*
G54D14*
X44011Y-41283D02*
G75*
G03X44011Y-41283I-78J0D01*
G74*
G01*
X50011Y-41283D02*
G75*
G03X50011Y-41283I-78J0D01*
G74*
G01*
G54D13*
X50366Y-41283D02*
G75*
G03X50366Y-41283I-433J0D01*
G74*
G01*
X50720Y-41283D02*
G75*
G03X50720Y-41283I-787J0D01*
G74*
G01*
X26720Y-35283D02*
G75*
G03X26720Y-35283I-787J0D01*
G74*
G01*
X26366Y-35283D02*
G75*
G03X26366Y-35283I-433J0D01*
G74*
G01*
G54D14*
X26011Y-35283D02*
G75*
G03X26011Y-35283I-78J0D01*
G74*
G01*
G54D13*
X32720Y-35283D02*
G75*
G03X32720Y-35283I-787J0D01*
G74*
G01*
X32366Y-35283D02*
G75*
G03X32366Y-35283I-433J0D01*
G74*
G01*
G54D14*
X32011Y-35283D02*
G75*
G03X32011Y-35283I-78J0D01*
G74*
G01*
X26011Y-41283D02*
G75*
G03X26011Y-41283I-78J0D01*
G74*
G01*
G54D13*
X26366Y-41283D02*
G75*
G03X26366Y-41283I-433J0D01*
G74*
G01*
X26720Y-41283D02*
G75*
G03X26720Y-41283I-787J0D01*
G74*
G01*
X26720Y-47283D02*
G75*
G03X26720Y-47283I-787J0D01*
G74*
G01*
X26366Y-47283D02*
G75*
G03X26366Y-47283I-433J0D01*
G74*
G01*
G54D14*
X26011Y-47283D02*
G75*
G03X26011Y-47283I-78J0D01*
G74*
G01*
X32011Y-47283D02*
G75*
G03X32011Y-47283I-78J0D01*
G74*
G01*
G54D13*
X32366Y-47283D02*
G75*
G03X32366Y-47283I-433J0D01*
G74*
G01*
X32720Y-47283D02*
G75*
G03X32720Y-47283I-787J0D01*
G74*
G01*
G54D14*
X50011Y-47283D02*
G75*
G03X50011Y-47283I-78J0D01*
G74*
G01*
G54D13*
X50366Y-47283D02*
G75*
G03X50366Y-47283I-433J0D01*
G74*
G01*
X50720Y-47283D02*
G75*
G03X50720Y-47283I-787J0D01*
G74*
G01*
X44720Y-47283D02*
G75*
G03X44720Y-47283I-787J0D01*
G74*
G01*
X44366Y-47283D02*
G75*
G03X44366Y-47283I-433J0D01*
G74*
G01*
G54D14*
X44011Y-47283D02*
G75*
G03X44011Y-47283I-78J0D01*
G74*
G01*
X38011Y-47283D02*
G75*
G03X38011Y-47283I-78J0D01*
G74*
G01*
G54D13*
X38366Y-47283D02*
G75*
G03X38366Y-47283I-433J0D01*
G74*
G01*
X38720Y-47283D02*
G75*
G03X38720Y-47283I-787J0D01*
G74*
G01*
G54D12*
X22972Y-68149D02*
X52500Y-68149D01*
X52500Y-26417D02*
X22972Y-26417D01*
X52903Y-67509D02*
X52874Y-67480D01*
X52942Y-67352D02*
X52883Y-67293D01*
X52962Y-67185D02*
X52874Y-67096D01*
X53011Y-67037D02*
X52893Y-66919D01*
X53070Y-66909D02*
X52874Y-66712D01*
X53090Y-66732D02*
X52874Y-66515D01*
X82677Y-58976D02*
X82283Y-58976D01*
X82283Y-53228D02*
X82677Y-53228D01*
X82677Y-41338D02*
X82283Y-41338D01*
X82677Y-35590D02*
X82283Y-35590D01*
X53149Y-59015D02*
X52755Y-59015D01*
X52755Y-53188D02*
X53149Y-53188D01*
X52755Y-41377D02*
X53149Y-41377D01*
X52755Y-35551D02*
X53149Y-35551D01*
X54350Y-67992D02*
X53090Y-66732D01*
X53051Y-66889D02*
X54153Y-67992D01*
X52874Y-67874D02*
X53031Y-68031D01*
X53208Y-68011D02*
X52893Y-67696D01*
X52913Y-67519D02*
X53385Y-67992D01*
X53582Y-67992D02*
X52952Y-67362D01*
X53011Y-67037D02*
X53956Y-67982D01*
X53769Y-67992D02*
X52982Y-67204D01*
X82283Y-68149D02*
X82283Y-58976D01*
X82283Y-53228D02*
X82283Y-41338D01*
X82283Y-35590D02*
X82283Y-26417D01*
X53149Y-41377D02*
X53149Y-35551D01*
X53149Y-59015D02*
X53149Y-53188D01*
X52755Y-41377D02*
X52755Y-53188D01*
X52755Y-59015D02*
X52755Y-68149D01*
X52755Y-26417D02*
X52755Y-35551D01*
X82677Y-35590D02*
X82677Y-41338D01*
X82677Y-53228D02*
X82677Y-58976D01*
G54D13*
X56503Y-65283D02*
G75*
G03X56503Y-65283I-787J0D01*
G74*
G01*
X56149Y-65283D02*
G75*
G03X56149Y-65283I-433J0D01*
G74*
G01*
G54D14*
X55795Y-65283D02*
G75*
G03X55795Y-65283I-78J0D01*
G74*
G01*
X61795Y-65283D02*
G75*
G03X61795Y-65283I-78J0D01*
G74*
G01*
G54D13*
X62149Y-65283D02*
G75*
G03X62149Y-65283I-433J0D01*
G74*
G01*
X62503Y-65283D02*
G75*
G03X62503Y-65283I-787J0D01*
G74*
G01*
G54D14*
X79795Y-65283D02*
G75*
G03X79795Y-65283I-78J0D01*
G74*
G01*
G54D13*
X80149Y-65283D02*
G75*
G03X80149Y-65283I-433J0D01*
G74*
G01*
X80503Y-65283D02*
G75*
G03X80503Y-65283I-787J0D01*
G74*
G01*
X74503Y-65283D02*
G75*
G03X74503Y-65283I-787J0D01*
G74*
G01*
X74149Y-65283D02*
G75*
G03X74149Y-65283I-433J0D01*
G74*
G01*
G54D14*
X73795Y-65283D02*
G75*
G03X73795Y-65283I-78J0D01*
G74*
G01*
X67795Y-65283D02*
G75*
G03X67795Y-65283I-78J0D01*
G74*
G01*
G54D13*
X68149Y-65283D02*
G75*
G03X68149Y-65283I-433J0D01*
G74*
G01*
X68503Y-65283D02*
G75*
G03X68503Y-65283I-787J0D01*
G74*
G01*
X56503Y-59283D02*
G75*
G03X56503Y-59283I-787J0D01*
G74*
G01*
X56149Y-59283D02*
G75*
G03X56149Y-59283I-433J0D01*
G74*
G01*
G54D14*
X55795Y-59283D02*
G75*
G03X55795Y-59283I-78J0D01*
G74*
G01*
X61795Y-59283D02*
G75*
G03X61795Y-59283I-78J0D01*
G74*
G01*
G54D13*
X62149Y-59283D02*
G75*
G03X62149Y-59283I-433J0D01*
G74*
G01*
X62503Y-59283D02*
G75*
G03X62503Y-59283I-787J0D01*
G74*
G01*
G54D14*
X79795Y-59283D02*
G75*
G03X79795Y-59283I-78J0D01*
G74*
G01*
G54D13*
X80149Y-59283D02*
G75*
G03X80149Y-59283I-433J0D01*
G74*
G01*
X80503Y-59283D02*
G75*
G03X80503Y-59283I-787J0D01*
G74*
G01*
X74503Y-59283D02*
G75*
G03X74503Y-59283I-787J0D01*
G74*
G01*
X74149Y-59283D02*
G75*
G03X74149Y-59283I-433J0D01*
G74*
G01*
G54D14*
X73795Y-59283D02*
G75*
G03X73795Y-59283I-78J0D01*
G74*
G01*
X67795Y-59283D02*
G75*
G03X67795Y-59283I-78J0D01*
G74*
G01*
G54D13*
X68149Y-59283D02*
G75*
G03X68149Y-59283I-433J0D01*
G74*
G01*
X68503Y-59283D02*
G75*
G03X68503Y-59283I-787J0D01*
G74*
G01*
X68503Y-53283D02*
G75*
G03X68503Y-53283I-787J0D01*
G74*
G01*
X68149Y-53283D02*
G75*
G03X68149Y-53283I-433J0D01*
G74*
G01*
G54D14*
X67795Y-53283D02*
G75*
G03X67795Y-53283I-78J0D01*
G74*
G01*
X73795Y-53283D02*
G75*
G03X73795Y-53283I-78J0D01*
G74*
G01*
G54D13*
X74149Y-53283D02*
G75*
G03X74149Y-53283I-433J0D01*
G74*
G01*
X74503Y-53283D02*
G75*
G03X74503Y-53283I-787J0D01*
G74*
G01*
X80503Y-53283D02*
G75*
G03X80503Y-53283I-787J0D01*
G74*
G01*
X80149Y-53283D02*
G75*
G03X80149Y-53283I-433J0D01*
G74*
G01*
G54D14*
X79795Y-53283D02*
G75*
G03X79795Y-53283I-78J0D01*
G74*
G01*
G54D13*
X62503Y-53283D02*
G75*
G03X62503Y-53283I-787J0D01*
G74*
G01*
X62149Y-53283D02*
G75*
G03X62149Y-53283I-433J0D01*
G74*
G01*
G54D14*
X61795Y-53283D02*
G75*
G03X61795Y-53283I-78J0D01*
G74*
G01*
X55795Y-53283D02*
G75*
G03X55795Y-53283I-78J0D01*
G74*
G01*
G54D13*
X56149Y-53283D02*
G75*
G03X56149Y-53283I-433J0D01*
G74*
G01*
X56503Y-53283D02*
G75*
G03X56503Y-53283I-787J0D01*
G74*
G01*
X68503Y-29283D02*
G75*
G03X68503Y-29283I-787J0D01*
G74*
G01*
X68149Y-29283D02*
G75*
G03X68149Y-29283I-433J0D01*
G74*
G01*
G54D14*
X67795Y-29283D02*
G75*
G03X67795Y-29283I-78J0D01*
G74*
G01*
X73795Y-29283D02*
G75*
G03X73795Y-29283I-78J0D01*
G74*
G01*
G54D13*
X74149Y-29283D02*
G75*
G03X74149Y-29283I-433J0D01*
G74*
G01*
X74503Y-29283D02*
G75*
G03X74503Y-29283I-787J0D01*
G74*
G01*
X80503Y-29283D02*
G75*
G03X80503Y-29283I-787J0D01*
G74*
G01*
X80149Y-29283D02*
G75*
G03X80149Y-29283I-433J0D01*
G74*
G01*
G54D14*
X79795Y-29283D02*
G75*
G03X79795Y-29283I-78J0D01*
G74*
G01*
G54D13*
X62503Y-29283D02*
G75*
G03X62503Y-29283I-787J0D01*
G74*
G01*
X62149Y-29283D02*
G75*
G03X62149Y-29283I-433J0D01*
G74*
G01*
G54D14*
X61795Y-29283D02*
G75*
G03X61795Y-29283I-78J0D01*
G74*
G01*
X55795Y-29283D02*
G75*
G03X55795Y-29283I-78J0D01*
G74*
G01*
G54D13*
X56149Y-29283D02*
G75*
G03X56149Y-29283I-433J0D01*
G74*
G01*
X56503Y-29283D02*
G75*
G03X56503Y-29283I-787J0D01*
G74*
G01*
X68503Y-35283D02*
G75*
G03X68503Y-35283I-787J0D01*
G74*
G01*
X68149Y-35283D02*
G75*
G03X68149Y-35283I-433J0D01*
G74*
G01*
G54D14*
X67795Y-35283D02*
G75*
G03X67795Y-35283I-78J0D01*
G74*
G01*
X73795Y-35283D02*
G75*
G03X73795Y-35283I-78J0D01*
G74*
G01*
G54D13*
X74149Y-35283D02*
G75*
G03X74149Y-35283I-433J0D01*
G74*
G01*
X74503Y-35283D02*
G75*
G03X74503Y-35283I-787J0D01*
G74*
G01*
X80503Y-35283D02*
G75*
G03X80503Y-35283I-787J0D01*
G74*
G01*
X80149Y-35283D02*
G75*
G03X80149Y-35283I-433J0D01*
G74*
G01*
G54D14*
X79795Y-35283D02*
G75*
G03X79795Y-35283I-78J0D01*
G74*
G01*
G54D13*
X68503Y-41283D02*
G75*
G03X68503Y-41283I-787J0D01*
G74*
G01*
X68149Y-41283D02*
G75*
G03X68149Y-41283I-433J0D01*
G74*
G01*
G54D14*
X67795Y-41283D02*
G75*
G03X67795Y-41283I-78J0D01*
G74*
G01*
X61795Y-41283D02*
G75*
G03X61795Y-41283I-78J0D01*
G74*
G01*
G54D13*
X62149Y-41283D02*
G75*
G03X62149Y-41283I-433J0D01*
G74*
G01*
X62503Y-41283D02*
G75*
G03X62503Y-41283I-787J0D01*
G74*
G01*
X74503Y-41283D02*
G75*
G03X74503Y-41283I-787J0D01*
G74*
G01*
X74149Y-41283D02*
G75*
G03X74149Y-41283I-433J0D01*
G74*
G01*
G54D14*
X73795Y-41283D02*
G75*
G03X73795Y-41283I-78J0D01*
G74*
G01*
X79795Y-41283D02*
G75*
G03X79795Y-41283I-78J0D01*
G74*
G01*
G54D13*
X80149Y-41283D02*
G75*
G03X80149Y-41283I-433J0D01*
G74*
G01*
X80503Y-41283D02*
G75*
G03X80503Y-41283I-787J0D01*
G74*
G01*
X56503Y-35283D02*
G75*
G03X56503Y-35283I-787J0D01*
G74*
G01*
X56149Y-35283D02*
G75*
G03X56149Y-35283I-433J0D01*
G74*
G01*
G54D14*
X55795Y-35283D02*
G75*
G03X55795Y-35283I-78J0D01*
G74*
G01*
G54D13*
X62503Y-35283D02*
G75*
G03X62503Y-35283I-787J0D01*
G74*
G01*
X62149Y-35283D02*
G75*
G03X62149Y-35283I-433J0D01*
G74*
G01*
G54D14*
X61795Y-35283D02*
G75*
G03X61795Y-35283I-78J0D01*
G74*
G01*
X55795Y-41283D02*
G75*
G03X55795Y-41283I-78J0D01*
G74*
G01*
G54D13*
X56149Y-41283D02*
G75*
G03X56149Y-41283I-433J0D01*
G74*
G01*
X56503Y-41283D02*
G75*
G03X56503Y-41283I-787J0D01*
G74*
G01*
X56503Y-47283D02*
G75*
G03X56503Y-47283I-787J0D01*
G74*
G01*
X56149Y-47283D02*
G75*
G03X56149Y-47283I-433J0D01*
G74*
G01*
G54D14*
X55795Y-47283D02*
G75*
G03X55795Y-47283I-78J0D01*
G74*
G01*
X61795Y-47283D02*
G75*
G03X61795Y-47283I-78J0D01*
G74*
G01*
G54D13*
X62149Y-47283D02*
G75*
G03X62149Y-47283I-433J0D01*
G74*
G01*
X62503Y-47283D02*
G75*
G03X62503Y-47283I-787J0D01*
G74*
G01*
G54D14*
X79795Y-47283D02*
G75*
G03X79795Y-47283I-78J0D01*
G74*
G01*
G54D13*
X80149Y-47283D02*
G75*
G03X80149Y-47283I-433J0D01*
G74*
G01*
X80503Y-47283D02*
G75*
G03X80503Y-47283I-787J0D01*
G74*
G01*
X74503Y-47283D02*
G75*
G03X74503Y-47283I-787J0D01*
G74*
G01*
X74149Y-47283D02*
G75*
G03X74149Y-47283I-433J0D01*
G74*
G01*
G54D14*
X73795Y-47283D02*
G75*
G03X73795Y-47283I-78J0D01*
G74*
G01*
X67795Y-47283D02*
G75*
G03X67795Y-47283I-78J0D01*
G74*
G01*
G54D13*
X68149Y-47283D02*
G75*
G03X68149Y-47283I-433J0D01*
G74*
G01*
X68503Y-47283D02*
G75*
G03X68503Y-47283I-787J0D01*
G74*
G01*
G54D12*
X52755Y-68149D02*
X82283Y-68149D01*
X82283Y-26417D02*
X52755Y-26417D01*
X82667Y-67509D02*
X82637Y-67480D01*
X82706Y-67352D02*
X82647Y-67293D01*
X82726Y-67185D02*
X82637Y-67096D01*
X82775Y-67037D02*
X82657Y-66919D01*
X82834Y-66909D02*
X82637Y-66712D01*
X82854Y-66732D02*
X82637Y-66515D01*
X112440Y-58976D02*
X112047Y-58976D01*
X112047Y-53228D02*
X112440Y-53228D01*
X112440Y-41338D02*
X112047Y-41338D01*
X112440Y-35590D02*
X112047Y-35590D01*
X82913Y-59015D02*
X82519Y-59015D01*
X82519Y-53188D02*
X82913Y-53188D01*
X82519Y-41377D02*
X82913Y-41377D01*
X82519Y-35551D02*
X82913Y-35551D01*
X84114Y-67992D02*
X82854Y-66732D01*
X82814Y-66889D02*
X83917Y-67992D01*
X82637Y-67874D02*
X82795Y-68031D01*
X82972Y-68011D02*
X82657Y-67696D01*
X82677Y-67519D02*
X83149Y-67992D01*
X83346Y-67992D02*
X82716Y-67362D01*
X82775Y-67037D02*
X83720Y-67982D01*
X83533Y-67992D02*
X82746Y-67204D01*
X112047Y-68149D02*
X112047Y-58976D01*
X112047Y-53228D02*
X112047Y-41338D01*
X112047Y-35590D02*
X112047Y-26417D01*
X82913Y-41377D02*
X82913Y-35551D01*
X82913Y-59015D02*
X82913Y-53188D01*
X82519Y-41377D02*
X82519Y-53188D01*
X82519Y-59015D02*
X82519Y-68149D01*
X82519Y-26417D02*
X82519Y-35551D01*
X112440Y-35590D02*
X112440Y-41338D01*
X112440Y-53228D02*
X112440Y-58976D01*
G54D13*
X86267Y-65283D02*
G75*
G03X86267Y-65283I-787J0D01*
G74*
G01*
X85913Y-65283D02*
G75*
G03X85913Y-65283I-433J0D01*
G74*
G01*
G54D14*
X85559Y-65283D02*
G75*
G03X85559Y-65283I-78J0D01*
G74*
G01*
X91559Y-65283D02*
G75*
G03X91559Y-65283I-78J0D01*
G74*
G01*
G54D13*
X91913Y-65283D02*
G75*
G03X91913Y-65283I-433J0D01*
G74*
G01*
X92267Y-65283D02*
G75*
G03X92267Y-65283I-787J0D01*
G74*
G01*
G54D14*
X109559Y-65283D02*
G75*
G03X109559Y-65283I-78J0D01*
G74*
G01*
G54D13*
X109913Y-65283D02*
G75*
G03X109913Y-65283I-433J0D01*
G74*
G01*
X110267Y-65283D02*
G75*
G03X110267Y-65283I-787J0D01*
G74*
G01*
X104267Y-65283D02*
G75*
G03X104267Y-65283I-787J0D01*
G74*
G01*
X103913Y-65283D02*
G75*
G03X103913Y-65283I-433J0D01*
G74*
G01*
G54D14*
X103559Y-65283D02*
G75*
G03X103559Y-65283I-78J0D01*
G74*
G01*
X97559Y-65283D02*
G75*
G03X97559Y-65283I-78J0D01*
G74*
G01*
G54D13*
X97913Y-65283D02*
G75*
G03X97913Y-65283I-433J0D01*
G74*
G01*
X98267Y-65283D02*
G75*
G03X98267Y-65283I-787J0D01*
G74*
G01*
X86267Y-59283D02*
G75*
G03X86267Y-59283I-787J0D01*
G74*
G01*
X85913Y-59283D02*
G75*
G03X85913Y-59283I-433J0D01*
G74*
G01*
G54D14*
X85559Y-59283D02*
G75*
G03X85559Y-59283I-78J0D01*
G74*
G01*
X91559Y-59283D02*
G75*
G03X91559Y-59283I-78J0D01*
G74*
G01*
G54D13*
X91913Y-59283D02*
G75*
G03X91913Y-59283I-433J0D01*
G74*
G01*
X92267Y-59283D02*
G75*
G03X92267Y-59283I-787J0D01*
G74*
G01*
G54D14*
X109559Y-59283D02*
G75*
G03X109559Y-59283I-78J0D01*
G74*
G01*
G54D13*
X109913Y-59283D02*
G75*
G03X109913Y-59283I-433J0D01*
G74*
G01*
X110267Y-59283D02*
G75*
G03X110267Y-59283I-787J0D01*
G74*
G01*
X104267Y-59283D02*
G75*
G03X104267Y-59283I-787J0D01*
G74*
G01*
X103913Y-59283D02*
G75*
G03X103913Y-59283I-433J0D01*
G74*
G01*
G54D14*
X103559Y-59283D02*
G75*
G03X103559Y-59283I-78J0D01*
G74*
G01*
X97559Y-59283D02*
G75*
G03X97559Y-59283I-78J0D01*
G74*
G01*
G54D13*
X97913Y-59283D02*
G75*
G03X97913Y-59283I-433J0D01*
G74*
G01*
X98267Y-59283D02*
G75*
G03X98267Y-59283I-787J0D01*
G74*
G01*
X98267Y-53283D02*
G75*
G03X98267Y-53283I-787J0D01*
G74*
G01*
X97913Y-53283D02*
G75*
G03X97913Y-53283I-433J0D01*
G74*
G01*
G54D14*
X97559Y-53283D02*
G75*
G03X97559Y-53283I-78J0D01*
G74*
G01*
X103559Y-53283D02*
G75*
G03X103559Y-53283I-78J0D01*
G74*
G01*
G54D13*
X103913Y-53283D02*
G75*
G03X103913Y-53283I-433J0D01*
G74*
G01*
X104267Y-53283D02*
G75*
G03X104267Y-53283I-787J0D01*
G74*
G01*
X110267Y-53283D02*
G75*
G03X110267Y-53283I-787J0D01*
G74*
G01*
X109913Y-53283D02*
G75*
G03X109913Y-53283I-433J0D01*
G74*
G01*
G54D14*
X109559Y-53283D02*
G75*
G03X109559Y-53283I-78J0D01*
G74*
G01*
G54D13*
X92267Y-53283D02*
G75*
G03X92267Y-53283I-787J0D01*
G74*
G01*
X91913Y-53283D02*
G75*
G03X91913Y-53283I-433J0D01*
G74*
G01*
G54D14*
X91559Y-53283D02*
G75*
G03X91559Y-53283I-78J0D01*
G74*
G01*
X85559Y-53283D02*
G75*
G03X85559Y-53283I-78J0D01*
G74*
G01*
G54D13*
X85913Y-53283D02*
G75*
G03X85913Y-53283I-433J0D01*
G74*
G01*
X86267Y-53283D02*
G75*
G03X86267Y-53283I-787J0D01*
G74*
G01*
X98267Y-29283D02*
G75*
G03X98267Y-29283I-787J0D01*
G74*
G01*
X97913Y-29283D02*
G75*
G03X97913Y-29283I-433J0D01*
G74*
G01*
G54D14*
X97559Y-29283D02*
G75*
G03X97559Y-29283I-78J0D01*
G74*
G01*
X103559Y-29283D02*
G75*
G03X103559Y-29283I-78J0D01*
G74*
G01*
G54D13*
X103913Y-29283D02*
G75*
G03X103913Y-29283I-433J0D01*
G74*
G01*
X104267Y-29283D02*
G75*
G03X104267Y-29283I-787J0D01*
G74*
G01*
X110267Y-29283D02*
G75*
G03X110267Y-29283I-787J0D01*
G74*
G01*
X109913Y-29283D02*
G75*
G03X109913Y-29283I-433J0D01*
G74*
G01*
G54D14*
X109559Y-29283D02*
G75*
G03X109559Y-29283I-78J0D01*
G74*
G01*
G54D13*
X92267Y-29283D02*
G75*
G03X92267Y-29283I-787J0D01*
G74*
G01*
X91913Y-29283D02*
G75*
G03X91913Y-29283I-433J0D01*
G74*
G01*
G54D14*
X91559Y-29283D02*
G75*
G03X91559Y-29283I-78J0D01*
G74*
G01*
X85559Y-29283D02*
G75*
G03X85559Y-29283I-78J0D01*
G74*
G01*
G54D13*
X85913Y-29283D02*
G75*
G03X85913Y-29283I-433J0D01*
G74*
G01*
X86267Y-29283D02*
G75*
G03X86267Y-29283I-787J0D01*
G74*
G01*
X98267Y-35283D02*
G75*
G03X98267Y-35283I-787J0D01*
G74*
G01*
X97913Y-35283D02*
G75*
G03X97913Y-35283I-433J0D01*
G74*
G01*
G54D14*
X97559Y-35283D02*
G75*
G03X97559Y-35283I-78J0D01*
G74*
G01*
X103559Y-35283D02*
G75*
G03X103559Y-35283I-78J0D01*
G74*
G01*
G54D13*
X103913Y-35283D02*
G75*
G03X103913Y-35283I-433J0D01*
G74*
G01*
X104267Y-35283D02*
G75*
G03X104267Y-35283I-787J0D01*
G74*
G01*
X110267Y-35283D02*
G75*
G03X110267Y-35283I-787J0D01*
G74*
G01*
X109913Y-35283D02*
G75*
G03X109913Y-35283I-433J0D01*
G74*
G01*
G54D14*
X109559Y-35283D02*
G75*
G03X109559Y-35283I-78J0D01*
G74*
G01*
G54D13*
X98267Y-41283D02*
G75*
G03X98267Y-41283I-787J0D01*
G74*
G01*
X97913Y-41283D02*
G75*
G03X97913Y-41283I-433J0D01*
G74*
G01*
G54D14*
X97559Y-41283D02*
G75*
G03X97559Y-41283I-78J0D01*
G74*
G01*
X91559Y-41283D02*
G75*
G03X91559Y-41283I-78J0D01*
G74*
G01*
G54D13*
X91913Y-41283D02*
G75*
G03X91913Y-41283I-433J0D01*
G74*
G01*
X92267Y-41283D02*
G75*
G03X92267Y-41283I-787J0D01*
G74*
G01*
X104267Y-41283D02*
G75*
G03X104267Y-41283I-787J0D01*
G74*
G01*
X103913Y-41283D02*
G75*
G03X103913Y-41283I-433J0D01*
G74*
G01*
G54D14*
X103559Y-41283D02*
G75*
G03X103559Y-41283I-78J0D01*
G74*
G01*
X109559Y-41283D02*
G75*
G03X109559Y-41283I-78J0D01*
G74*
G01*
G54D13*
X109913Y-41283D02*
G75*
G03X109913Y-41283I-433J0D01*
G74*
G01*
X110267Y-41283D02*
G75*
G03X110267Y-41283I-787J0D01*
G74*
G01*
X86267Y-35283D02*
G75*
G03X86267Y-35283I-787J0D01*
G74*
G01*
X85913Y-35283D02*
G75*
G03X85913Y-35283I-433J0D01*
G74*
G01*
G54D14*
X85559Y-35283D02*
G75*
G03X85559Y-35283I-78J0D01*
G74*
G01*
G54D13*
X92267Y-35283D02*
G75*
G03X92267Y-35283I-787J0D01*
G74*
G01*
X91913Y-35283D02*
G75*
G03X91913Y-35283I-433J0D01*
G74*
G01*
G54D14*
X91559Y-35283D02*
G75*
G03X91559Y-35283I-78J0D01*
G74*
G01*
X85559Y-41283D02*
G75*
G03X85559Y-41283I-78J0D01*
G74*
G01*
G54D13*
X85913Y-41283D02*
G75*
G03X85913Y-41283I-433J0D01*
G74*
G01*
X86267Y-41283D02*
G75*
G03X86267Y-41283I-787J0D01*
G74*
G01*
X86267Y-47283D02*
G75*
G03X86267Y-47283I-787J0D01*
G74*
G01*
X85913Y-47283D02*
G75*
G03X85913Y-47283I-433J0D01*
G74*
G01*
G54D14*
X85559Y-47283D02*
G75*
G03X85559Y-47283I-78J0D01*
G74*
G01*
X91559Y-47283D02*
G75*
G03X91559Y-47283I-78J0D01*
G74*
G01*
G54D13*
X91913Y-47283D02*
G75*
G03X91913Y-47283I-433J0D01*
G74*
G01*
X92267Y-47283D02*
G75*
G03X92267Y-47283I-787J0D01*
G74*
G01*
G54D14*
X109559Y-47283D02*
G75*
G03X109559Y-47283I-78J0D01*
G74*
G01*
G54D13*
X109913Y-47283D02*
G75*
G03X109913Y-47283I-433J0D01*
G74*
G01*
X110267Y-47283D02*
G75*
G03X110267Y-47283I-787J0D01*
G74*
G01*
X104267Y-47283D02*
G75*
G03X104267Y-47283I-787J0D01*
G74*
G01*
X103913Y-47283D02*
G75*
G03X103913Y-47283I-433J0D01*
G74*
G01*
G54D14*
X103559Y-47283D02*
G75*
G03X103559Y-47283I-78J0D01*
G74*
G01*
X97559Y-47283D02*
G75*
G03X97559Y-47283I-78J0D01*
G74*
G01*
G54D13*
X97913Y-47283D02*
G75*
G03X97913Y-47283I-433J0D01*
G74*
G01*
X98267Y-47283D02*
G75*
G03X98267Y-47283I-787J0D01*
G74*
G01*
G54D12*
X82519Y-68149D02*
X112047Y-68149D01*
X112047Y-26417D02*
X82519Y-26417D01*
X112470Y-67509D02*
X112440Y-67480D01*
X112509Y-67352D02*
X112450Y-67293D01*
X112529Y-67185D02*
X112440Y-67096D01*
X112578Y-67037D02*
X112460Y-66919D01*
X112637Y-66909D02*
X112440Y-66712D01*
X112657Y-66732D02*
X112440Y-66515D01*
X142244Y-58976D02*
X141850Y-58976D01*
X141850Y-53228D02*
X142244Y-53228D01*
X142244Y-41338D02*
X141850Y-41338D01*
X142244Y-35590D02*
X141850Y-35590D01*
X112716Y-59015D02*
X112322Y-59015D01*
X112322Y-53188D02*
X112716Y-53188D01*
X112322Y-41377D02*
X112716Y-41377D01*
X112322Y-35551D02*
X112716Y-35551D01*
X113917Y-67992D02*
X112657Y-66732D01*
X112618Y-66889D02*
X113720Y-67992D01*
X112440Y-67874D02*
X112598Y-68031D01*
X112775Y-68011D02*
X112460Y-67696D01*
X112480Y-67519D02*
X112952Y-67992D01*
X113149Y-67992D02*
X112519Y-67362D01*
X112578Y-67037D02*
X113523Y-67982D01*
X113336Y-67992D02*
X112549Y-67204D01*
X141850Y-68149D02*
X141850Y-58976D01*
X141850Y-53228D02*
X141850Y-41338D01*
X141850Y-35590D02*
X141850Y-26417D01*
X112716Y-41377D02*
X112716Y-35551D01*
X112716Y-59015D02*
X112716Y-53188D01*
X112322Y-41377D02*
X112322Y-53188D01*
X112322Y-59015D02*
X112322Y-68149D01*
X112322Y-26417D02*
X112322Y-35551D01*
X142244Y-35590D02*
X142244Y-41338D01*
X142244Y-53228D02*
X142244Y-58976D01*
G54D13*
X116070Y-65283D02*
G75*
G03X116070Y-65283I-787J0D01*
G74*
G01*
X115716Y-65283D02*
G75*
G03X115716Y-65283I-433J0D01*
G74*
G01*
G54D14*
X115362Y-65283D02*
G75*
G03X115362Y-65283I-78J0D01*
G74*
G01*
X121362Y-65283D02*
G75*
G03X121362Y-65283I-78J0D01*
G74*
G01*
G54D13*
X121716Y-65283D02*
G75*
G03X121716Y-65283I-433J0D01*
G74*
G01*
X122070Y-65283D02*
G75*
G03X122070Y-65283I-787J0D01*
G74*
G01*
G54D14*
X139362Y-65283D02*
G75*
G03X139362Y-65283I-78J0D01*
G74*
G01*
G54D13*
X139716Y-65283D02*
G75*
G03X139716Y-65283I-433J0D01*
G74*
G01*
X140070Y-65283D02*
G75*
G03X140070Y-65283I-787J0D01*
G74*
G01*
X134070Y-65283D02*
G75*
G03X134070Y-65283I-787J0D01*
G74*
G01*
X133716Y-65283D02*
G75*
G03X133716Y-65283I-433J0D01*
G74*
G01*
G54D14*
X133362Y-65283D02*
G75*
G03X133362Y-65283I-78J0D01*
G74*
G01*
X127362Y-65283D02*
G75*
G03X127362Y-65283I-78J0D01*
G74*
G01*
G54D13*
X127716Y-65283D02*
G75*
G03X127716Y-65283I-433J0D01*
G74*
G01*
X128070Y-65283D02*
G75*
G03X128070Y-65283I-787J0D01*
G74*
G01*
X116070Y-59283D02*
G75*
G03X116070Y-59283I-787J0D01*
G74*
G01*
X115716Y-59283D02*
G75*
G03X115716Y-59283I-433J0D01*
G74*
G01*
G54D14*
X115362Y-59283D02*
G75*
G03X115362Y-59283I-78J0D01*
G74*
G01*
X121362Y-59283D02*
G75*
G03X121362Y-59283I-78J0D01*
G74*
G01*
G54D13*
X121716Y-59283D02*
G75*
G03X121716Y-59283I-433J0D01*
G74*
G01*
X122070Y-59283D02*
G75*
G03X122070Y-59283I-787J0D01*
G74*
G01*
G54D14*
X139362Y-59283D02*
G75*
G03X139362Y-59283I-78J0D01*
G74*
G01*
G54D13*
X139716Y-59283D02*
G75*
G03X139716Y-59283I-433J0D01*
G74*
G01*
X140070Y-59283D02*
G75*
G03X140070Y-59283I-787J0D01*
G74*
G01*
X134070Y-59283D02*
G75*
G03X134070Y-59283I-787J0D01*
G74*
G01*
X133716Y-59283D02*
G75*
G03X133716Y-59283I-433J0D01*
G74*
G01*
G54D14*
X133362Y-59283D02*
G75*
G03X133362Y-59283I-78J0D01*
G74*
G01*
X127362Y-59283D02*
G75*
G03X127362Y-59283I-78J0D01*
G74*
G01*
G54D13*
X127716Y-59283D02*
G75*
G03X127716Y-59283I-433J0D01*
G74*
G01*
X128070Y-59283D02*
G75*
G03X128070Y-59283I-787J0D01*
G74*
G01*
X128070Y-53283D02*
G75*
G03X128070Y-53283I-787J0D01*
G74*
G01*
X127716Y-53283D02*
G75*
G03X127716Y-53283I-433J0D01*
G74*
G01*
G54D14*
X127362Y-53283D02*
G75*
G03X127362Y-53283I-78J0D01*
G74*
G01*
X133362Y-53283D02*
G75*
G03X133362Y-53283I-78J0D01*
G74*
G01*
G54D13*
X133716Y-53283D02*
G75*
G03X133716Y-53283I-433J0D01*
G74*
G01*
X134070Y-53283D02*
G75*
G03X134070Y-53283I-787J0D01*
G74*
G01*
X140070Y-53283D02*
G75*
G03X140070Y-53283I-787J0D01*
G74*
G01*
X139716Y-53283D02*
G75*
G03X139716Y-53283I-433J0D01*
G74*
G01*
G54D14*
X139362Y-53283D02*
G75*
G03X139362Y-53283I-78J0D01*
G74*
G01*
G54D13*
X122070Y-53283D02*
G75*
G03X122070Y-53283I-787J0D01*
G74*
G01*
X121716Y-53283D02*
G75*
G03X121716Y-53283I-433J0D01*
G74*
G01*
G54D14*
X121362Y-53283D02*
G75*
G03X121362Y-53283I-78J0D01*
G74*
G01*
X115362Y-53283D02*
G75*
G03X115362Y-53283I-78J0D01*
G74*
G01*
G54D13*
X115716Y-53283D02*
G75*
G03X115716Y-53283I-433J0D01*
G74*
G01*
X116070Y-53283D02*
G75*
G03X116070Y-53283I-787J0D01*
G74*
G01*
X128070Y-29283D02*
G75*
G03X128070Y-29283I-787J0D01*
G74*
G01*
X127716Y-29283D02*
G75*
G03X127716Y-29283I-433J0D01*
G74*
G01*
G54D14*
X127362Y-29283D02*
G75*
G03X127362Y-29283I-78J0D01*
G74*
G01*
X133362Y-29283D02*
G75*
G03X133362Y-29283I-78J0D01*
G74*
G01*
G54D13*
X133716Y-29283D02*
G75*
G03X133716Y-29283I-433J0D01*
G74*
G01*
X134070Y-29283D02*
G75*
G03X134070Y-29283I-787J0D01*
G74*
G01*
X140070Y-29283D02*
G75*
G03X140070Y-29283I-787J0D01*
G74*
G01*
X139716Y-29283D02*
G75*
G03X139716Y-29283I-433J0D01*
G74*
G01*
G54D14*
X139362Y-29283D02*
G75*
G03X139362Y-29283I-78J0D01*
G74*
G01*
G54D13*
X122070Y-29283D02*
G75*
G03X122070Y-29283I-787J0D01*
G74*
G01*
X121716Y-29283D02*
G75*
G03X121716Y-29283I-433J0D01*
G74*
G01*
G54D14*
X121362Y-29283D02*
G75*
G03X121362Y-29283I-78J0D01*
G74*
G01*
X115362Y-29283D02*
G75*
G03X115362Y-29283I-78J0D01*
G74*
G01*
G54D13*
X115716Y-29283D02*
G75*
G03X115716Y-29283I-433J0D01*
G74*
G01*
X116070Y-29283D02*
G75*
G03X116070Y-29283I-787J0D01*
G74*
G01*
X128070Y-35283D02*
G75*
G03X128070Y-35283I-787J0D01*
G74*
G01*
X127716Y-35283D02*
G75*
G03X127716Y-35283I-433J0D01*
G74*
G01*
G54D14*
X127362Y-35283D02*
G75*
G03X127362Y-35283I-78J0D01*
G74*
G01*
X133362Y-35283D02*
G75*
G03X133362Y-35283I-78J0D01*
G74*
G01*
G54D13*
X133716Y-35283D02*
G75*
G03X133716Y-35283I-433J0D01*
G74*
G01*
X134070Y-35283D02*
G75*
G03X134070Y-35283I-787J0D01*
G74*
G01*
X140070Y-35283D02*
G75*
G03X140070Y-35283I-787J0D01*
G74*
G01*
X139716Y-35283D02*
G75*
G03X139716Y-35283I-433J0D01*
G74*
G01*
G54D14*
X139362Y-35283D02*
G75*
G03X139362Y-35283I-78J0D01*
G74*
G01*
G54D13*
X128070Y-41283D02*
G75*
G03X128070Y-41283I-787J0D01*
G74*
G01*
X127716Y-41283D02*
G75*
G03X127716Y-41283I-433J0D01*
G74*
G01*
G54D14*
X127362Y-41283D02*
G75*
G03X127362Y-41283I-78J0D01*
G74*
G01*
X121362Y-41283D02*
G75*
G03X121362Y-41283I-78J0D01*
G74*
G01*
G54D13*
X121716Y-41283D02*
G75*
G03X121716Y-41283I-433J0D01*
G74*
G01*
X122070Y-41283D02*
G75*
G03X122070Y-41283I-787J0D01*
G74*
G01*
X134070Y-41283D02*
G75*
G03X134070Y-41283I-787J0D01*
G74*
G01*
X133716Y-41283D02*
G75*
G03X133716Y-41283I-433J0D01*
G74*
G01*
G54D14*
X133362Y-41283D02*
G75*
G03X133362Y-41283I-78J0D01*
G74*
G01*
X139362Y-41283D02*
G75*
G03X139362Y-41283I-78J0D01*
G74*
G01*
G54D13*
X139716Y-41283D02*
G75*
G03X139716Y-41283I-433J0D01*
G74*
G01*
X140070Y-41283D02*
G75*
G03X140070Y-41283I-787J0D01*
G74*
G01*
X116070Y-35283D02*
G75*
G03X116070Y-35283I-787J0D01*
G74*
G01*
X115716Y-35283D02*
G75*
G03X115716Y-35283I-433J0D01*
G74*
G01*
G54D14*
X115362Y-35283D02*
G75*
G03X115362Y-35283I-78J0D01*
G74*
G01*
G54D13*
X122070Y-35283D02*
G75*
G03X122070Y-35283I-787J0D01*
G74*
G01*
X121716Y-35283D02*
G75*
G03X121716Y-35283I-433J0D01*
G74*
G01*
G54D14*
X121362Y-35283D02*
G75*
G03X121362Y-35283I-78J0D01*
G74*
G01*
X115362Y-41283D02*
G75*
G03X115362Y-41283I-78J0D01*
G74*
G01*
G54D13*
X115716Y-41283D02*
G75*
G03X115716Y-41283I-433J0D01*
G74*
G01*
X116070Y-41283D02*
G75*
G03X116070Y-41283I-787J0D01*
G74*
G01*
X116070Y-47283D02*
G75*
G03X116070Y-47283I-787J0D01*
G74*
G01*
X115716Y-47283D02*
G75*
G03X115716Y-47283I-433J0D01*
G74*
G01*
G54D14*
X115362Y-47283D02*
G75*
G03X115362Y-47283I-78J0D01*
G74*
G01*
X121362Y-47283D02*
G75*
G03X121362Y-47283I-78J0D01*
G74*
G01*
G54D13*
X121716Y-47283D02*
G75*
G03X121716Y-47283I-433J0D01*
G74*
G01*
X122070Y-47283D02*
G75*
G03X122070Y-47283I-787J0D01*
G74*
G01*
G54D14*
X139362Y-47283D02*
G75*
G03X139362Y-47283I-78J0D01*
G74*
G01*
G54D13*
X139716Y-47283D02*
G75*
G03X139716Y-47283I-433J0D01*
G74*
G01*
X140070Y-47283D02*
G75*
G03X140070Y-47283I-787J0D01*
G74*
G01*
X134070Y-47283D02*
G75*
G03X134070Y-47283I-787J0D01*
G74*
G01*
X133716Y-47283D02*
G75*
G03X133716Y-47283I-433J0D01*
G74*
G01*
G54D14*
X133362Y-47283D02*
G75*
G03X133362Y-47283I-78J0D01*
G74*
G01*
X127362Y-47283D02*
G75*
G03X127362Y-47283I-78J0D01*
G74*
G01*
G54D13*
X127716Y-47283D02*
G75*
G03X127716Y-47283I-433J0D01*
G74*
G01*
X128070Y-47283D02*
G75*
G03X128070Y-47283I-787J0D01*
G74*
G01*
G54D12*
X112322Y-68149D02*
X141850Y-68149D01*
X141850Y-26417D02*
X112322Y-26417D01*
G54D11*
X103262Y-69881D02*
G75*
G03X103262Y-69881I-900J0D01*
G74*
G01*
X103262Y-24015D02*
G75*
G03X103262Y-24015I-900J0D01*
G74*
G01*
G54D15*
X92818Y-53263D02*
X92589Y-53263D01*
X92703Y-53263D02*
X92703Y-52863D01*
X92665Y-52920D01*
X92627Y-52958D01*
X92589Y-52977D01*
X92989Y-53263D02*
X92989Y-52863D01*
X93141Y-52863D01*
X93180Y-52882D01*
X93199Y-52901D01*
X93218Y-52939D01*
X93218Y-52996D01*
X93199Y-53034D01*
X93180Y-53053D01*
X93141Y-53072D01*
X92989Y-53072D01*
X93389Y-53263D02*
X93389Y-52863D01*
X93580Y-53263D02*
X93580Y-52863D01*
X93808Y-53263D01*
X93808Y-52863D01*
X69737Y-53223D02*
X69508Y-53223D01*
X69623Y-53223D02*
X69623Y-52823D01*
X69585Y-52880D01*
X69547Y-52918D01*
X69508Y-52938D01*
X69908Y-53223D02*
X69908Y-52823D01*
X70061Y-52823D01*
X70099Y-52842D01*
X70118Y-52861D01*
X70137Y-52899D01*
X70137Y-52957D01*
X70118Y-52995D01*
X70099Y-53014D01*
X70061Y-53033D01*
X69908Y-53033D01*
X70308Y-53223D02*
X70308Y-52823D01*
X70499Y-53223D02*
X70499Y-52823D01*
X70727Y-53223D01*
X70727Y-52823D01*
X139274Y-68843D02*
X139046Y-68843D01*
X139160Y-68843D02*
X139160Y-68443D01*
X139122Y-68500D01*
X139084Y-68539D01*
X139046Y-68558D01*
X139446Y-68843D02*
X139446Y-68443D01*
X139598Y-68443D01*
X139636Y-68462D01*
X139655Y-68481D01*
X139674Y-68519D01*
X139674Y-68577D01*
X139655Y-68615D01*
X139636Y-68634D01*
X139598Y-68653D01*
X139446Y-68653D01*
X139846Y-68843D02*
X139846Y-68443D01*
X140036Y-68843D02*
X140036Y-68443D01*
X140265Y-68843D01*
X140265Y-68443D01*
X25396Y-23174D02*
X25168Y-23174D01*
X25282Y-23174D02*
X25282Y-22774D01*
X25244Y-22831D01*
X25206Y-22869D01*
X25168Y-22888D01*
X25568Y-23174D02*
X25568Y-22774D01*
X25720Y-22774D01*
X25758Y-22793D01*
X25777Y-22812D01*
X25796Y-22850D01*
X25796Y-22907D01*
X25777Y-22945D01*
X25758Y-22964D01*
X25720Y-22984D01*
X25568Y-22984D01*
X25968Y-23174D02*
X25968Y-22774D01*
X26158Y-23174D02*
X26158Y-22774D01*
X26387Y-23174D01*
X26387Y-22774D01*
X139373Y-23371D02*
X139144Y-23371D01*
X139259Y-23371D02*
X139259Y-22971D01*
X139220Y-23028D01*
X139182Y-23066D01*
X139144Y-23085D01*
X139544Y-23371D02*
X139544Y-22971D01*
X139697Y-22971D01*
X139735Y-22990D01*
X139754Y-23009D01*
X139773Y-23047D01*
X139773Y-23104D01*
X139754Y-23142D01*
X139735Y-23161D01*
X139697Y-23180D01*
X139544Y-23180D01*
X139944Y-23371D02*
X139944Y-22971D01*
X140135Y-23371D02*
X140135Y-22971D01*
X140363Y-23371D01*
X140363Y-22971D01*
X83074Y-23371D02*
X82845Y-23371D01*
X82959Y-23371D02*
X82959Y-22971D01*
X82921Y-23028D01*
X82883Y-23066D01*
X82845Y-23085D01*
X83245Y-23371D02*
X83245Y-22971D01*
X83397Y-22971D01*
X83435Y-22990D01*
X83455Y-23009D01*
X83474Y-23047D01*
X83474Y-23104D01*
X83455Y-23142D01*
X83435Y-23161D01*
X83397Y-23180D01*
X83245Y-23180D01*
X83645Y-23371D02*
X83645Y-22971D01*
X83835Y-23371D02*
X83835Y-22971D01*
X84064Y-23371D01*
X84064Y-22971D01*
X24904Y-68942D02*
X24676Y-68942D01*
X24790Y-68942D02*
X24790Y-68542D01*
X24752Y-68599D01*
X24714Y-68637D01*
X24676Y-68656D01*
X25076Y-68942D02*
X25076Y-68542D01*
X25228Y-68542D01*
X25266Y-68561D01*
X25285Y-68580D01*
X25304Y-68618D01*
X25304Y-68675D01*
X25285Y-68713D01*
X25266Y-68732D01*
X25228Y-68751D01*
X25076Y-68751D01*
X25476Y-68942D02*
X25476Y-68542D01*
X25666Y-68942D02*
X25666Y-68542D01*
X25895Y-68942D01*
X25895Y-68542D01*
X62601Y-68843D02*
X62373Y-68843D01*
X62487Y-68843D02*
X62487Y-68443D01*
X62449Y-68500D01*
X62411Y-68539D01*
X62373Y-68558D01*
X62773Y-68843D02*
X62773Y-68443D01*
X62925Y-68443D01*
X62963Y-68462D01*
X62982Y-68481D01*
X63001Y-68519D01*
X63001Y-68577D01*
X62982Y-68615D01*
X62963Y-68634D01*
X62925Y-68653D01*
X62773Y-68653D01*
X63173Y-68843D02*
X63173Y-68443D01*
X63363Y-68843D02*
X63363Y-68443D01*
X63592Y-68843D01*
X63592Y-68443D01*
G54D12*
X37215Y-24522D02*
X37215Y-23931D01*
X37356Y-23931D01*
X37440Y-23960D01*
X37497Y-24016D01*
X37525Y-24072D01*
X37553Y-24185D01*
X37553Y-24269D01*
X37525Y-24381D01*
X37497Y-24438D01*
X37440Y-24494D01*
X37356Y-24522D01*
X37215Y-24522D01*
X37778Y-24494D02*
X37862Y-24522D01*
X38003Y-24522D01*
X38059Y-24494D01*
X38087Y-24466D01*
X38115Y-24410D01*
X38115Y-24353D01*
X38087Y-24297D01*
X38059Y-24269D01*
X38003Y-24241D01*
X37890Y-24213D01*
X37834Y-24185D01*
X37806Y-24156D01*
X37778Y-24100D01*
X37778Y-24044D01*
X37806Y-23988D01*
X37834Y-23960D01*
X37890Y-23931D01*
X38031Y-23931D01*
X38115Y-23960D01*
X38678Y-24522D02*
X38340Y-24522D01*
X38509Y-24522D02*
X38509Y-23931D01*
X38453Y-24016D01*
X38397Y-24072D01*
X38340Y-24100D01*
X35149Y-70466D02*
X35120Y-70494D01*
X35036Y-70522D01*
X34980Y-70522D01*
X34895Y-70494D01*
X34839Y-70438D01*
X34811Y-70381D01*
X34783Y-70269D01*
X34783Y-70185D01*
X34811Y-70072D01*
X34839Y-70016D01*
X34895Y-69960D01*
X34980Y-69931D01*
X35036Y-69931D01*
X35120Y-69960D01*
X35149Y-69988D01*
X35402Y-70522D02*
X35402Y-69931D01*
X35598Y-70353D01*
X35795Y-69931D01*
X35795Y-70522D01*
X36077Y-70522D02*
X36077Y-69931D01*
X36217Y-69931D01*
X36302Y-69960D01*
X36358Y-70016D01*
X36386Y-70072D01*
X36414Y-70185D01*
X36414Y-70269D01*
X36386Y-70381D01*
X36358Y-70438D01*
X36302Y-70494D01*
X36217Y-70522D01*
X36077Y-70522D01*
X36667Y-70297D02*
X37117Y-70297D01*
X37679Y-69931D02*
X37398Y-69931D01*
X37370Y-70213D01*
X37398Y-70185D01*
X37455Y-70156D01*
X37595Y-70156D01*
X37651Y-70185D01*
X37679Y-70213D01*
X37708Y-70269D01*
X37708Y-70410D01*
X37679Y-70466D01*
X37651Y-70494D01*
X37595Y-70522D01*
X37455Y-70522D01*
X37398Y-70494D01*
X37370Y-70466D01*
X38242Y-69931D02*
X37961Y-69931D01*
X37933Y-70213D01*
X37961Y-70185D01*
X38017Y-70156D01*
X38158Y-70156D01*
X38214Y-70185D01*
X38242Y-70213D01*
X38270Y-70269D01*
X38270Y-70410D01*
X38242Y-70466D01*
X38214Y-70494D01*
X38158Y-70522D01*
X38017Y-70522D01*
X37961Y-70494D01*
X37933Y-70466D01*
X38467Y-69931D02*
X38861Y-69931D01*
X38607Y-70522D01*
X39395Y-70522D02*
X39057Y-70522D01*
X39226Y-70522D02*
X39226Y-69931D01*
X39170Y-70016D01*
X39114Y-70072D01*
X39057Y-70100D01*
X39592Y-69931D02*
X39985Y-70522D01*
X39985Y-69931D02*
X39592Y-70522D01*
X40323Y-69931D02*
X40379Y-69931D01*
X40435Y-69960D01*
X40464Y-69988D01*
X40492Y-70044D01*
X40520Y-70156D01*
X40520Y-70297D01*
X40492Y-70410D01*
X40464Y-70466D01*
X40435Y-70494D01*
X40379Y-70522D01*
X40323Y-70522D01*
X40267Y-70494D01*
X40239Y-70466D01*
X40210Y-70410D01*
X40182Y-70297D01*
X40182Y-70156D01*
X40210Y-70044D01*
X40239Y-69988D01*
X40267Y-69960D01*
X40323Y-69931D01*
X40885Y-69931D02*
X40942Y-69931D01*
X40998Y-69960D01*
X41026Y-69988D01*
X41054Y-70044D01*
X41082Y-70156D01*
X41082Y-70297D01*
X41054Y-70410D01*
X41026Y-70466D01*
X40998Y-70494D01*
X40942Y-70522D01*
X40885Y-70522D01*
X40829Y-70494D01*
X40801Y-70466D01*
X40773Y-70410D01*
X40745Y-70297D01*
X40745Y-70156D01*
X40773Y-70044D01*
X40801Y-69988D01*
X40829Y-69960D01*
X40885Y-69931D01*
X66999Y-24522D02*
X66999Y-23931D01*
X67140Y-23931D01*
X67224Y-23960D01*
X67280Y-24016D01*
X67308Y-24072D01*
X67336Y-24185D01*
X67336Y-24269D01*
X67308Y-24381D01*
X67280Y-24438D01*
X67224Y-24494D01*
X67140Y-24522D01*
X66999Y-24522D01*
X67561Y-24494D02*
X67646Y-24522D01*
X67786Y-24522D01*
X67843Y-24494D01*
X67871Y-24466D01*
X67899Y-24410D01*
X67899Y-24353D01*
X67871Y-24297D01*
X67843Y-24269D01*
X67786Y-24241D01*
X67674Y-24213D01*
X67618Y-24185D01*
X67589Y-24156D01*
X67561Y-24100D01*
X67561Y-24044D01*
X67589Y-23988D01*
X67618Y-23960D01*
X67674Y-23931D01*
X67814Y-23931D01*
X67899Y-23960D01*
X68124Y-23988D02*
X68152Y-23960D01*
X68208Y-23931D01*
X68349Y-23931D01*
X68405Y-23960D01*
X68433Y-23988D01*
X68461Y-24044D01*
X68461Y-24100D01*
X68433Y-24185D01*
X68096Y-24522D01*
X68461Y-24522D01*
X64932Y-70466D02*
X64904Y-70494D01*
X64820Y-70522D01*
X64763Y-70522D01*
X64679Y-70494D01*
X64623Y-70438D01*
X64595Y-70381D01*
X64566Y-70269D01*
X64566Y-70185D01*
X64595Y-70072D01*
X64623Y-70016D01*
X64679Y-69960D01*
X64763Y-69931D01*
X64820Y-69931D01*
X64904Y-69960D01*
X64932Y-69988D01*
X65185Y-70522D02*
X65185Y-69931D01*
X65382Y-70353D01*
X65579Y-69931D01*
X65579Y-70522D01*
X65860Y-70522D02*
X65860Y-69931D01*
X66001Y-69931D01*
X66085Y-69960D01*
X66141Y-70016D01*
X66169Y-70072D01*
X66197Y-70185D01*
X66197Y-70269D01*
X66169Y-70381D01*
X66141Y-70438D01*
X66085Y-70494D01*
X66001Y-70522D01*
X65860Y-70522D01*
X66451Y-70297D02*
X66901Y-70297D01*
X67463Y-69931D02*
X67182Y-69931D01*
X67154Y-70213D01*
X67182Y-70185D01*
X67238Y-70156D01*
X67379Y-70156D01*
X67435Y-70185D01*
X67463Y-70213D01*
X67491Y-70269D01*
X67491Y-70410D01*
X67463Y-70466D01*
X67435Y-70494D01*
X67379Y-70522D01*
X67238Y-70522D01*
X67182Y-70494D01*
X67154Y-70466D01*
X68025Y-69931D02*
X67744Y-69931D01*
X67716Y-70213D01*
X67744Y-70185D01*
X67800Y-70156D01*
X67941Y-70156D01*
X67997Y-70185D01*
X68025Y-70213D01*
X68053Y-70269D01*
X68053Y-70410D01*
X68025Y-70466D01*
X67997Y-70494D01*
X67941Y-70522D01*
X67800Y-70522D01*
X67744Y-70494D01*
X67716Y-70466D01*
X68250Y-69931D02*
X68644Y-69931D01*
X68391Y-70522D01*
X69178Y-70522D02*
X68841Y-70522D01*
X69010Y-70522D02*
X69010Y-69931D01*
X68953Y-70016D01*
X68897Y-70072D01*
X68841Y-70100D01*
X69375Y-69931D02*
X69769Y-70522D01*
X69769Y-69931D02*
X69375Y-70522D01*
X70106Y-69931D02*
X70163Y-69931D01*
X70219Y-69960D01*
X70247Y-69988D01*
X70275Y-70044D01*
X70303Y-70156D01*
X70303Y-70297D01*
X70275Y-70410D01*
X70247Y-70466D01*
X70219Y-70494D01*
X70163Y-70522D01*
X70106Y-70522D01*
X70050Y-70494D01*
X70022Y-70466D01*
X69994Y-70410D01*
X69966Y-70297D01*
X69966Y-70156D01*
X69994Y-70044D01*
X70022Y-69988D01*
X70050Y-69960D01*
X70106Y-69931D01*
X70669Y-69931D02*
X70725Y-69931D01*
X70781Y-69960D01*
X70809Y-69988D01*
X70838Y-70044D01*
X70866Y-70156D01*
X70866Y-70297D01*
X70838Y-70410D01*
X70809Y-70466D01*
X70781Y-70494D01*
X70725Y-70522D01*
X70669Y-70522D01*
X70613Y-70494D01*
X70584Y-70466D01*
X70556Y-70410D01*
X70528Y-70297D01*
X70528Y-70156D01*
X70556Y-70044D01*
X70584Y-69988D01*
X70613Y-69960D01*
X70669Y-69931D01*
X96763Y-24522D02*
X96763Y-23931D01*
X96903Y-23931D01*
X96988Y-23960D01*
X97044Y-24016D01*
X97072Y-24072D01*
X97100Y-24185D01*
X97100Y-24269D01*
X97072Y-24381D01*
X97044Y-24438D01*
X96988Y-24494D01*
X96903Y-24522D01*
X96763Y-24522D01*
X97325Y-24494D02*
X97410Y-24522D01*
X97550Y-24522D01*
X97606Y-24494D01*
X97634Y-24466D01*
X97663Y-24410D01*
X97663Y-24353D01*
X97634Y-24297D01*
X97606Y-24269D01*
X97550Y-24241D01*
X97438Y-24213D01*
X97381Y-24185D01*
X97353Y-24156D01*
X97325Y-24100D01*
X97325Y-24044D01*
X97353Y-23988D01*
X97381Y-23960D01*
X97438Y-23931D01*
X97578Y-23931D01*
X97663Y-23960D01*
X97859Y-23931D02*
X98225Y-23931D01*
X98028Y-24156D01*
X98113Y-24156D01*
X98169Y-24185D01*
X98197Y-24213D01*
X98225Y-24269D01*
X98225Y-24410D01*
X98197Y-24466D01*
X98169Y-24494D01*
X98113Y-24522D01*
X97944Y-24522D01*
X97888Y-24494D01*
X97859Y-24466D01*
X94696Y-70466D02*
X94668Y-70494D01*
X94583Y-70522D01*
X94527Y-70522D01*
X94443Y-70494D01*
X94386Y-70438D01*
X94358Y-70381D01*
X94330Y-70269D01*
X94330Y-70185D01*
X94358Y-70072D01*
X94386Y-70016D01*
X94443Y-69960D01*
X94527Y-69931D01*
X94583Y-69931D01*
X94668Y-69960D01*
X94696Y-69988D01*
X94949Y-70522D02*
X94949Y-69931D01*
X95146Y-70353D01*
X95343Y-69931D01*
X95343Y-70522D01*
X95624Y-70522D02*
X95624Y-69931D01*
X95764Y-69931D01*
X95849Y-69960D01*
X95905Y-70016D01*
X95933Y-70072D01*
X95961Y-70185D01*
X95961Y-70269D01*
X95933Y-70381D01*
X95905Y-70438D01*
X95849Y-70494D01*
X95764Y-70522D01*
X95624Y-70522D01*
X96214Y-70297D02*
X96664Y-70297D01*
X97227Y-69931D02*
X96946Y-69931D01*
X96917Y-70213D01*
X96946Y-70185D01*
X97002Y-70156D01*
X97142Y-70156D01*
X97199Y-70185D01*
X97227Y-70213D01*
X97255Y-70269D01*
X97255Y-70410D01*
X97227Y-70466D01*
X97199Y-70494D01*
X97142Y-70522D01*
X97002Y-70522D01*
X96946Y-70494D01*
X96917Y-70466D01*
X97789Y-69931D02*
X97508Y-69931D01*
X97480Y-70213D01*
X97508Y-70185D01*
X97564Y-70156D01*
X97705Y-70156D01*
X97761Y-70185D01*
X97789Y-70213D01*
X97817Y-70269D01*
X97817Y-70410D01*
X97789Y-70466D01*
X97761Y-70494D01*
X97705Y-70522D01*
X97564Y-70522D01*
X97508Y-70494D01*
X97480Y-70466D01*
X98014Y-69931D02*
X98408Y-69931D01*
X98155Y-70522D01*
X98942Y-70522D02*
X98605Y-70522D01*
X98773Y-70522D02*
X98773Y-69931D01*
X98717Y-70016D01*
X98661Y-70072D01*
X98605Y-70100D01*
X99139Y-69931D02*
X99533Y-70522D01*
X99533Y-69931D02*
X99139Y-70522D01*
X99870Y-69931D02*
X99926Y-69931D01*
X99983Y-69960D01*
X100011Y-69988D01*
X100039Y-70044D01*
X100067Y-70156D01*
X100067Y-70297D01*
X100039Y-70410D01*
X100011Y-70466D01*
X99983Y-70494D01*
X99926Y-70522D01*
X99870Y-70522D01*
X99814Y-70494D01*
X99786Y-70466D01*
X99758Y-70410D01*
X99730Y-70297D01*
X99730Y-70156D01*
X99758Y-70044D01*
X99786Y-69988D01*
X99814Y-69960D01*
X99870Y-69931D01*
X100433Y-69931D02*
X100489Y-69931D01*
X100545Y-69960D01*
X100573Y-69988D01*
X100601Y-70044D01*
X100629Y-70156D01*
X100629Y-70297D01*
X100601Y-70410D01*
X100573Y-70466D01*
X100545Y-70494D01*
X100489Y-70522D01*
X100433Y-70522D01*
X100376Y-70494D01*
X100348Y-70466D01*
X100320Y-70410D01*
X100292Y-70297D01*
X100292Y-70156D01*
X100320Y-70044D01*
X100348Y-69988D01*
X100376Y-69960D01*
X100433Y-69931D01*
X126566Y-24522D02*
X126566Y-23931D01*
X126706Y-23931D01*
X126791Y-23960D01*
X126847Y-24016D01*
X126875Y-24072D01*
X126903Y-24185D01*
X126903Y-24269D01*
X126875Y-24381D01*
X126847Y-24438D01*
X126791Y-24494D01*
X126706Y-24522D01*
X126566Y-24522D01*
X127128Y-24494D02*
X127213Y-24522D01*
X127353Y-24522D01*
X127410Y-24494D01*
X127438Y-24466D01*
X127466Y-24410D01*
X127466Y-24353D01*
X127438Y-24297D01*
X127410Y-24269D01*
X127353Y-24241D01*
X127241Y-24213D01*
X127185Y-24185D01*
X127156Y-24156D01*
X127128Y-24100D01*
X127128Y-24044D01*
X127156Y-23988D01*
X127185Y-23960D01*
X127241Y-23931D01*
X127381Y-23931D01*
X127466Y-23960D01*
X127972Y-24128D02*
X127972Y-24522D01*
X127831Y-23903D02*
X127691Y-24325D01*
X128056Y-24325D01*
X124499Y-70466D02*
X124471Y-70494D01*
X124386Y-70522D01*
X124330Y-70522D01*
X124246Y-70494D01*
X124190Y-70438D01*
X124161Y-70381D01*
X124133Y-70269D01*
X124133Y-70185D01*
X124161Y-70072D01*
X124190Y-70016D01*
X124246Y-69960D01*
X124330Y-69931D01*
X124386Y-69931D01*
X124471Y-69960D01*
X124499Y-69988D01*
X124752Y-70522D02*
X124752Y-69931D01*
X124949Y-70353D01*
X125146Y-69931D01*
X125146Y-70522D01*
X125427Y-70522D02*
X125427Y-69931D01*
X125568Y-69931D01*
X125652Y-69960D01*
X125708Y-70016D01*
X125736Y-70072D01*
X125764Y-70185D01*
X125764Y-70269D01*
X125736Y-70381D01*
X125708Y-70438D01*
X125652Y-70494D01*
X125568Y-70522D01*
X125427Y-70522D01*
X126017Y-70297D02*
X126467Y-70297D01*
X127030Y-69931D02*
X126749Y-69931D01*
X126721Y-70213D01*
X126749Y-70185D01*
X126805Y-70156D01*
X126946Y-70156D01*
X127002Y-70185D01*
X127030Y-70213D01*
X127058Y-70269D01*
X127058Y-70410D01*
X127030Y-70466D01*
X127002Y-70494D01*
X126946Y-70522D01*
X126805Y-70522D01*
X126749Y-70494D01*
X126721Y-70466D01*
X127592Y-69931D02*
X127311Y-69931D01*
X127283Y-70213D01*
X127311Y-70185D01*
X127367Y-70156D01*
X127508Y-70156D01*
X127564Y-70185D01*
X127592Y-70213D01*
X127620Y-70269D01*
X127620Y-70410D01*
X127592Y-70466D01*
X127564Y-70494D01*
X127508Y-70522D01*
X127367Y-70522D01*
X127311Y-70494D01*
X127283Y-70466D01*
X127817Y-69931D02*
X128211Y-69931D01*
X127958Y-70522D01*
X128745Y-70522D02*
X128408Y-70522D01*
X128577Y-70522D02*
X128577Y-69931D01*
X128520Y-70016D01*
X128464Y-70072D01*
X128408Y-70100D01*
X128942Y-69931D02*
X129336Y-70522D01*
X129336Y-69931D02*
X128942Y-70522D01*
X129673Y-69931D02*
X129730Y-69931D01*
X129786Y-69960D01*
X129814Y-69988D01*
X129842Y-70044D01*
X129870Y-70156D01*
X129870Y-70297D01*
X129842Y-70410D01*
X129814Y-70466D01*
X129786Y-70494D01*
X129730Y-70522D01*
X129673Y-70522D01*
X129617Y-70494D01*
X129589Y-70466D01*
X129561Y-70410D01*
X129533Y-70297D01*
X129533Y-70156D01*
X129561Y-70044D01*
X129589Y-69988D01*
X129617Y-69960D01*
X129673Y-69931D01*
X130236Y-69931D02*
X130292Y-69931D01*
X130348Y-69960D01*
X130376Y-69988D01*
X130404Y-70044D01*
X130433Y-70156D01*
X130433Y-70297D01*
X130404Y-70410D01*
X130376Y-70466D01*
X130348Y-70494D01*
X130292Y-70522D01*
X130236Y-70522D01*
X130179Y-70494D01*
X130151Y-70466D01*
X130123Y-70410D01*
X130095Y-70297D01*
X130095Y-70156D01*
X130123Y-70044D01*
X130151Y-69988D01*
X130179Y-69960D01*
X130236Y-69931D01*
G54D15*
X101971Y-68843D02*
X101743Y-68843D01*
X101857Y-68843D02*
X101857Y-68443D01*
X101819Y-68500D01*
X101781Y-68539D01*
X101743Y-68558D01*
X102143Y-68843D02*
X102143Y-68443D01*
X102295Y-68443D01*
X102333Y-68462D01*
X102352Y-68481D01*
X102371Y-68519D01*
X102371Y-68577D01*
X102352Y-68615D01*
X102333Y-68634D01*
X102295Y-68653D01*
X102143Y-68653D01*
X102543Y-68843D02*
X102543Y-68443D01*
X102733Y-68843D02*
X102733Y-68443D01*
X102962Y-68843D01*
X102962Y-68443D01*
X101971Y-22977D02*
X101743Y-22977D01*
X101857Y-22977D02*
X101857Y-22577D01*
X101819Y-22634D01*
X101781Y-22672D01*
X101743Y-22691D01*
X102143Y-22977D02*
X102143Y-22577D01*
X102295Y-22577D01*
X102333Y-22596D01*
X102352Y-22615D01*
X102371Y-22653D01*
X102371Y-22710D01*
X102352Y-22749D01*
X102333Y-22768D01*
X102295Y-22787D01*
X102143Y-22787D01*
X102543Y-22977D02*
X102543Y-22577D01*
X102733Y-22977D02*
X102733Y-22577D01*
X102962Y-22977D01*
X102962Y-22577D01*
M02*
